<svg xmlns="http://www.w3.org/2000/svg" width="54.602" height="70.169" viewBox="186.699 468.789 54.602 70.169"><g data-name="Group 270"><path d="M201.914 509.671c5.96 13.853 9.586 22.308 11.797 24.805a3.134 3.134 0 0 0 2.173.884c.114-.267.331-.477.602-.582 1.063-.474 1.895-.008 2.986-.732.763-.51 1.339.111 1.613.53a37.629 37.629 0 0 0 1.616-.507.646.646 0 0 1 .373-.47l6.918-3.08a.67.67 0 0 1 .602.03c.636-.355 1.302-.75 1.955-1.17-.112-.496-.135-1.254.703-1.468 1.268-.327 1.478-1.256 2.542-1.73.163-.076.341-.115.522-.113.416-.55.625-1.23.59-1.919-.381-3.312-4.235-11.655-10.54-25.365-1.185-2.567-4.53-13.649-8.29-19.975-1.416-2.392-2.46-3.475-3.76-4.17-.324.237-.736.32-1.127.228l-3.987-.846a1.532 1.532 0 0 1-.974-.706l-.494.05 1.236 2.777-12.26 5.458-1.233-2.768-.367.334c.123.4.076.832-.128 1.197l-2.026 3.512c-.197.35-.537.598-.931.678-.35 1.44-.24 2.938.591 5.591 2.198 7.022 8.178 16.93 9.298 19.527Z" fill="#fff" fill-rule="evenodd" data-name="Path 971"/><path d="M37.375 6.436v-3.04c-3.831-1.192-9.604-1.192-13.435 0v3.04h13.435Z" fill-rule="evenodd" fill="url(&quot;#a&quot;)" transform="rotate(-24 1228.083 -162.395)" data-name="Path 972"/><path d="M202.504 509.027c5.747 13.338 9.236 21.462 11.336 23.875 2.426 2.783 12.262-1.807 12.262-1.807s9.98-4.232 9.543-7.901c-.383-3.177-4.087-11.206-10.157-24.4-1.134-2.477-4.404-13.123-7.993-19.226-2.338-3.978-3.605-4.25-6.835-5.169-4.385-1.24-14.351 3.196-16.359 7.283-1.483 3.018-2.128 4.141-.737 8.54 2.132 6.747 7.86 16.299 8.94 18.805Z" fill="#fff" fill-rule="evenodd" data-name="Path 973"/><path d="M22.042 57.593a50.154 50.154 0 0 1 10.23 0 15.97 15.97 0 0 1 4.548 1.32l.174-1.004a18.11 18.11 0 0 0-4.49-1.206 53.998 53.998 0 0 0-10.688 0 18.1 18.1 0 0 0-4.496 1.201l.174 1.004a16.022 16.022 0 0 1 4.548-1.315Z" fill-rule="evenodd" fill="url(&quot;#b&quot;)" transform="rotate(-24 1159.247 -156.37)" data-name="Path 974"/><path d="M14.12 37.892v.029c.222-.192.478-.342.753-.443a24.504 24.504 0 0 1 4.798-1.537c3.781-.749 7.673-.749 11.455 0 1.66.346 3.278.862 4.83 1.541.277.1.533.25.754.443v-.028c.08-.3.1-.611.062-.919a1.739 1.739 0 0 0-.82-.532 24.504 24.504 0 0 0-4.812-1.537 29.471 29.471 0 0 0-11.455 0c-1.653.345-3.265.86-4.812 1.537-.47.202-.725.362-.815.532-.09.17.061.914.061.914Z" fill-rule="evenodd" fill="url(&quot;#c&quot;)" transform="rotate(-24 1185.853 -166.302)" data-name="Path 975"/><path d="M20.182 46.175a54 54 0 0 1 10.687 0 18.11 18.11 0 0 1 4.491 1.201l1.456-8.307a2.356 2.356 0 0 0-.754-.443 24.504 24.504 0 0 0-4.811-1.537 29.471 29.471 0 0 0-11.456 0 24.505 24.505 0 0 0-4.811 1.546 2.455 2.455 0 0 0-.754.443l1.456 8.308a18.1 18.1 0 0 1 4.496-1.211Z" fill-rule="evenodd" fill="url(&quot;#d&quot;)" transform="rotate(-24 1183.195 -165.476)" data-name="Path 976"/><path d="M17.987 113.339a22.497 22.497 0 0 0 4.712 1.371c3.18.391 6.396.391 9.576 0a22.388 22.388 0 0 0 4.66-1.371c.185-2.23.061-4.476-.367-6.673-.071-.349-.156-.702-.255-1.046 0 0-.132.057-.386.146a26.026 26.026 0 0 1-8.483 1.291c-4.792 0-7.54-.89-8.482-1.267a4.838 4.838 0 0 1-.386-.17c-.1.358-.184.721-.26 1.08a24.434 24.434 0 0 0-.33 6.639Zm9.476-5.514c2.91.022 5.81-.325 8.633-1.032.262 1.873.322 3.77.18 5.655a19.834 19.834 0 0 1-4.36 1.371c-1.974.392-6.936.392-8.906 0a19.835 19.835 0 0 1-4.359-1.37 26.328 26.328 0 0 1 .17-5.656 32.624 32.624 0 0 0 8.642 1.047Z" fill-rule="evenodd" fill="url(&quot;#e&quot;)" transform="rotate(-24 1098.225 -142.651)" data-name="Path 977"/><path d="M19.414 113.845a19.834 19.834 0 0 0 4.359 1.371c1.97.391 6.931.391 8.906 0a19.834 19.834 0 0 0 4.359-1.371 26.436 26.436 0 0 0-.18-5.655 34.466 34.466 0 0 1-8.632 1.032 32.624 32.624 0 0 1-8.643-.985 26.328 26.328 0 0 0-.17 5.608Z" fill-rule="evenodd" fill="url(&quot;#f&quot;)" transform="rotate(-24 1095.41 -140.179)" data-name="Path 978"/><path d="m59.29 60.085 1.913-.65c-.061-.693-.132-2.046-.136-4.04 0-2.1.278-5.357.377-7.723.16-3.741 0-6.352 0-6.352l-1.82 10.179-.334 8.586Z" fill-rule="evenodd" fill="url(&quot;#g&quot;)" transform="rotate(-24 1189.147 -108.163)" data-name="Path 979"/><path d="M12.45 47.672c.1 2.356.387 5.622.382 7.724 0 1.993-.066 3.364-.142 4.038l1.918.65-.33-8.585L12.45 41.32s-.16 2.61 0 6.352Z" fill-rule="evenodd" fill="url(&quot;#h&quot;)" transform="rotate(-24 1176.744 -166.512)" data-name="Path 980"/><path d="M59.704 91.811c.342.763.775 1.482 1.291 2.14 0 0 .217-9.835 0-12.521l-1.984.83-.221 7.181c.206.825.513 1.62.914 2.37Z" fill-rule="evenodd" fill="url(&quot;#i&quot;)" transform="rotate(-24 1139.125 -98.18)" data-name="Path 981"/><path d="M12.812 93.956c.517-.66.95-1.382 1.291-2.149.403-.744.71-1.535.914-2.356l-.221-7.182-1.984-.829c-.217 2.69 0 12.516 0 12.516Z" fill-rule="evenodd" fill="url(&quot;#j&quot;)" transform="rotate(-24 1126.931 -155.487)" data-name="Path 982"/><path d="m209.227 474.02 3.988.846c.39.089.8.002 1.122-.237a17.356 17.356 0 0 0-3.44-1.156 7.879 7.879 0 0 0-2.623-.168c.208.357.552.615.953.716Z" fill-rule="evenodd" data-name="Path 983"/><path d="m192.956 483.875 2.04-3.528c.204-.365.25-.798.127-1.197a7.766 7.766 0 0 0-1.643 2.078 17.436 17.436 0 0 0-1.447 3.331c.392-.083.729-.333.923-.684Z" fill-rule="evenodd" data-name="Path 984"/><path d="M236.316 526.068a1.211 1.211 0 0 0-.522.113c-1.064.474-1.274 1.403-2.542 1.73-.838.214-.815.972-.703 1.469 1.528-.995 2.985-2.15 3.767-3.312Z" fill="#93091a" fill-rule="evenodd" data-name="Path 985"/><path d="M219.472 534.046c-1.091.724-1.923.258-2.986.732a1.08 1.08 0 0 0-.602.582c1.499.122 3.402-.26 5.207-.77-.28-.433-.856-1.054-1.619-.544Z" fill="#93091a" fill-rule="evenodd" data-name="Path 986"/><path d="M52.095 17.294c.301 1.503 2.516 5.546 2.516 5.546s-1.588-4.274-1.909-5.763c-.24-1.098-.47-4.477-.47-4.477s-.368 3.544-.137 4.694Z" fill-rule="evenodd" fill="url(&quot;#k&quot;)" transform="rotate(-24 1222.947 -124.801)" data-name="Path 987"/><path d="M18.82 22.819s2.22-4.043 2.521-5.547c.231-1.15-.132-4.712-.132-4.712s-.24 3.379-.471 4.477c-.33 1.508-1.918 5.782-1.918 5.782Z" fill-rule="evenodd" fill="url(&quot;#l&quot;)" transform="rotate(-24 1214.22 -166.104)" data-name="Path 988"/><path d="M20.182 46.345a56.001 56.001 0 0 1 8.755-.174c-1.15-1.998-4.034-6.72-6.451-9.321-.904.087-1.802.225-2.69.415a24.504 24.504 0 0 0-4.812 1.54 2.455 2.455 0 0 0-.754.444l1.456 8.307a18.1 18.1 0 0 1 4.496-1.21Z" fill-rule="evenodd" fill="url(&quot;#m&quot;)" transform="rotate(-24 1182.794 -165.391)" data-name="Path 989"/><path d="m220.082 520.425 2.118-.943c2.499-1.34 6.308-3.593 6.165-4.808-.196-1.76-7.034-17.326-7.034-17.326s-2.672-.208-9.012 2.79c-6.456 2.75-8.099 4.854-8.099 4.854s6.993 15.498 8.17 16.82c.797.899 5.042-.434 7.692-1.387Z" fill="#f9f9f9" fill-rule="evenodd" data-name="Path 990"/><path d="m224.762 531.098 1.12-.498 1.114-.497c6.139-2.965 8.108-5.957 8.108-5.957l-1.892-.937c-2.916 3.878-8.097 5.669-8.097 5.669s-4.79 2.648-9.635 2.226l-.57 2.034s3.531.516 9.852-2.04Z" fill="#f9f9f9" fill-rule="evenodd" data-name="Path 991"/><path d="M219.838 485.385a66.077 66.077 0 0 0-3.319-6.492c-2.358-4.139-7.062-4.381-7.062-4.381 4.348.88 10.38 10.873 10.38 10.873Z" fill="#f9f9f9" fill-rule="evenodd" data-name="Path 992"/><path d="M196.298 495.866s-3.39-11.17-1.122-14.976c0 0-3.006 3.676-1.474 8.183a67.656 67.656 0 0 0 2.596 6.793Z" fill="#f9f9f9" fill-rule="evenodd" data-name="Path 993"/><path d="M11.441 45.46c.065-.93.065-1.861 0-2.79 0 0-1.093.217-1.122 1.155-.028.937 1.098 2.841 1.122 1.635Z" fill-rule="evenodd" fill="url(&quot;#n&quot;)" transform="rotate(-24 1174.52 -168.717)" data-name="Path 994"/><path d="m4.415 46.409 3.162-.942c-.047-.326-.198-.712-.631-.57 0 0-2.206.683-2.446 1.008a.603.603 0 0 0-.085.504Z" fill-rule="evenodd" fill="url(&quot;#o&quot;)" transform="rotate(-24 1170.222 -175.507)" data-name="Path 995"/><path d="M7.63 46.55a2.516 2.516 0 0 0-.028-.4l-3.162.942a.858.858 0 0 0 .085.213l3.105-.754Z" fill-rule="evenodd" fill="url(&quot;#p&quot;)" transform="rotate(-24 1168.638 -175.11)" data-name="Path 996"/><path d="M63.664 45.335c.028 1.197 1.22-.688 1.192-1.63-.028-.943-1.192-1.155-1.192-1.155a19.434 19.434 0 0 0 0 2.785Z" fill-rule="evenodd" fill="url(&quot;#q&quot;)" transform="rotate(-24 1188.76 -102.46)" data-name="Path 997"/><path d="M68.457 46.295a.64.64 0 0 0-.07-.565c-.24-.326-2.446-1.014-2.446-1.014-.471-.146-.594.274-.641.608l3.157.971Z" fill-rule="evenodd" fill="url(&quot;#r&quot;)" transform="rotate(-24 1186.548 -99.798)" data-name="Path 998"/><path d="m65.208 46.382 3.105.777c.036-.054.068-.11.094-.17L65.227 46a2.04 2.04 0 0 0-.02.382Z" fill-rule="evenodd" fill="url(&quot;#s&quot;)" transform="rotate(-24 1184.89 -99.568)" data-name="Path 999"/><path d="m227.526 500.754-.981-2.204a.292.292 0 0 0-.386-.148l1.22 2.738a.292.292 0 0 0 .147-.386Z" fill="#595959" fill-rule="evenodd" data-name="Path 1000"/><path d="m232.574 511.732-.981-2.204a.292.292 0 0 0-.386-.148l1.22 2.738a.292.292 0 0 0 .147-.386Z" fill="#595959" fill-rule="evenodd" data-name="Path 1001"/><path d="M202.6 511.851a.292.292 0 0 0 .386.149l-1.219-2.738a.292.292 0 0 0-.148.385l.982 2.204Z" fill="#595959" fill-rule="evenodd" data-name="Path 1002"/><path d="M207.382 522.949a.292.292 0 0 0 .385.148l-1.219-2.738a.292.292 0 0 0-.148.386l.982 2.204Z" fill="#595959" fill-rule="evenodd" data-name="Path 1003"/><path d="M211.583 485.775c.444-.162.764-.01 1.205-.166a.066.066 0 0 0 .036-.093.07.07 0 0 0-.093-.036c-.446.158-.764.01-1.206.166a.07.07 0 0 0-.038.089.075.075 0 0 0 .096.04Z" fill="#9e9e9e" fill-rule="evenodd" data-name="Path 1004"/><path d="M211.694 486.024c.446-.157.764-.01 1.205-.165a.061.061 0 0 0 .038-.089.07.07 0 0 0-.093-.036c-.446.157-.764.01-1.206.166a.066.066 0 0 0-.037.089c.017.033.057.049.093.035Z" fill="#9e9e9e" fill-rule="evenodd" data-name="Path 1005"/><path d="M211.807 486.279c.444-.162.764-.01 1.206-.166a.07.07 0 1 0-.058-.129c-.446.157-.764.01-1.206.165a.07.07 0 0 0-.037.09.08.08 0 0 0 .095.04Z" fill="#9e9e9e" fill-rule="evenodd" data-name="Path 1006"/><path d="M201.212 490.763c.415-.226.517-.565.934-.787a.07.07 0 0 0 .03-.095.066.066 0 0 0-.087-.034c-.416.226-.52.561-.934.787a.07.07 0 0 0-.032.092.066.066 0 0 0 .09.037Z" fill="#9e9e9e" fill-rule="evenodd" data-name="Path 1007"/><path d="M201.323 491.013c.415-.226.519-.56.934-.787a.07.07 0 0 0 .032-.091.061.061 0 0 0-.087-.034c-.416.226-.52.561-.934.787a.07.07 0 0 0-.032.092.061.061 0 0 0 .087.033Z" fill="#9e9e9e" fill-rule="evenodd" data-name="Path 1008"/><path d="M201.437 491.267c.415-.226.516-.565.933-.787a.075.075 0 0 0 .03-.096.066.066 0 0 0-.087-.033c-.415.226-.519.56-.934.787a.07.07 0 0 0 .058.13Z" fill="#9e9e9e" fill-rule="evenodd" data-name="Path 1009"/><path d="M33.335 134.847s1.947.033 4.326-.184a.67.67 0 0 0-.537-.273h-7.573a.646.646 0 0 0-.551.287c2.39.203 4.335.17 4.335.17Z" fill-rule="evenodd" fill="url(&quot;#t&quot;)" transform="rotate(-24 1065.377 -121.232)" data-name="Path 1010"/><path d="M19.416 113.871a19.834 19.834 0 0 0 4.359 1.372c1.97.39 6.932.39 8.906 0a20.68 20.68 0 0 0 2.356-.608c-.348-.891-1.842-4.383-4.311-5.495-.783.052-1.612.085-2.488.085a32.624 32.624 0 0 1-8.643-.985 26.328 26.328 0 0 0-.179 5.631Z" fill-rule="evenodd" fill="url(&quot;#u&quot;)" transform="rotate(-24 1095.348 -140.16)" data-name="Path 1011"/></g><defs><linearGradient x1="1.813" y1="13.219" x2="2.68" y2="13.219" id="a"><stop stop-color="#525956" offset="0"/><stop stop-color="#2c2e2e" offset="1"/></linearGradient><linearGradient x1=".43" y1="3.631" x2="1.167" y2="3.631" id="b"><stop offset="0"/><stop stop-color="#1b1c1c" offset="1"/></linearGradient><linearGradient x1=".678" y1="7.247" x2="1.412" y2="7.247" id="c"><stop offset="0"/><stop stop-color="#1b1c1c" offset="1"/></linearGradient><linearGradient x1=".465" y1="2.036" x2="1.387" y2="2.036" id="d"><stop stop-color="#363b39" offset="0"/><stop stop-color="#1b1c1c" offset="1"/></linearGradient><linearGradient x1="-.616" y1="-3.432" x2=".347" y2="-3.432" id="e"><stop offset="0"/><stop stop-color="#1b1c1c" offset="1"/></linearGradient><linearGradient x1="-.64" y1="-4.558" x2=".278" y2="-4.558" id="f"><stop stop-color="#363b39" offset="0"/><stop stop-color="#1b1c1c" offset="1"/></linearGradient><linearGradient x1="-8.492" y1="1.26" x2="-2.811" y2="1.26" id="g"><stop stop-color="#363b39" offset="0"/><stop stop-color="#1b1c1c" offset="1"/></linearGradient><linearGradient x1="8.148" y1=".406" x2="14.783" y2=".406" id="h"><stop stop-color="#363b39" offset="0"/><stop stop-color="#1b1c1c" offset="1"/></linearGradient><linearGradient x1="-12.212" y1="-.463" x2="-8.011" y2="-.463" id="i"><stop stop-color="#363b39" offset="0"/><stop stop-color="#1b1c1c" offset="1"/></linearGradient><linearGradient x1="4.538" y1="-1.777" x2="8.385" y2="-1.777" id="j"><stop stop-color="#363b39" offset="0"/><stop stop-color="#1b1c1c" offset="1"/></linearGradient><linearGradient x1="2.236" y1="4.731" x2="2.538" y2="4.491" id="k"><stop stop-color="#d2dbda" offset="0"/><stop stop-color="#b5b5b5" offset="1"/></linearGradient><linearGradient x1="13.063" y1="3.935" x2="12.14" y2="3.006" id="l"><stop stop-color="#d2dbda" offset="0"/><stop stop-color="#b5b5b5" offset="1"/></linearGradient><linearGradient x1="1.326" y1="1.511" x2="1.697" y2="1.875" id="m"><stop stop-color="#363b39" offset="0"/><stop offset="1"/></linearGradient><linearGradient x1="27.389" y1="3.272" x2="29.583" y2="4.838" id="n"><stop stop-color="#363b39" offset="0"/><stop stop-color="#1b1c1c" offset="1"/></linearGradient><linearGradient x1="11.172" y1="5.738" x2="11.764" y2="5.738" id="o"><stop stop-color="#fff" offset="0"/><stop stop-color="#d2d6d5" offset="1"/></linearGradient><linearGradient x1="11.054" y1="7.012" x2="11.641" y2="7.012" id="p"><stop stop-color="#363b39" offset="0"/><stop stop-color="#1b1c1c" offset="1"/></linearGradient><linearGradient x1="-8.333" y1="8.905" x2="-6.588" y2="10.406" id="q"><stop stop-color="#363b39" offset="0"/><stop stop-color="#1b1c1c" offset="1"/></linearGradient><linearGradient x1="-4.395" y1="18.206" x2="-3.405" y2="18.206" id="r"><stop stop-color="#d2d6d5" offset="0"/><stop stop-color="#fff" offset="1"/></linearGradient><linearGradient x1="-4.403" y1="24.459" x2="-3.458" y2="24.459" id="s"><stop stop-color="#363b39" offset="0"/><stop stop-color="#1b1c1c" offset="1"/></linearGradient><linearGradient x1="-2.042" y1="-114.483" x2="-1.336" y2="-114.483" id="t"><stop stop-color="#363b39" offset="0"/><stop stop-color="#1b1c1c" offset="1"/></linearGradient><linearGradient x1="-.478" y1="-5.69" x2="-.262" y2="-4.974" id="u"><stop stop-color="#363b39" offset="0"/><stop offset="1"/></linearGradient></defs></svg>