<svg xmlns="http://www.w3.org/2000/svg" width="60.41" height="33.026" viewBox="183.84 26.974 60.41 33.026"><g data-name="Group 1220"><path d="M241.142 57.257c-1.237 1.423-2.661 2.264-4.396 2.581-4.688.856-8.86-1.75-9.977-6.38-.9-3.73.032-6.997 2.986-9.547 2.956-2.552 8.374-2.515 11.148.65.05.057.104.114.239.26v-.589c0-2.563.01-5.126-.01-7.688-.004-.43.119-.544.538-.523.712.036 1.427.025 2.141.003.323-.01.439.066.438.416-.01 7.57-.01 15.138 0 22.708 0 .333-.087.439-.427.428a37.85 37.85 0 0 0-2.295 0c-.323.009-.404-.101-.392-.408.023-.59.007-1.181.007-1.911m-.016-6.176c0-.237.021-.477-.004-.712-.226-2.109-1.121-3.827-3.108-4.744-2.02-.933-4.075-.901-5.97.357-1.623 1.079-2.285 2.735-2.384 4.614-.241 4.564 3.057 7.222 7.237 6.263 2.622-.602 4.244-2.844 4.229-5.778" fill-rule="evenodd" data-name="Path 1909"/><path d="M186.931 51.422c0 2.639-.01 5.15.01 7.659.004.408-.11.512-.504.495a29.66 29.66 0 0 0-2.193-.001c-.313.009-.404-.08-.4-.397.017-1.374.008-2.749.008-4.124 0-6.16.005-12.32-.012-18.481-.002-.454.111-.579.558-.552.678.04 1.361.034 2.04.001.394-.018.505.09.503.496-.016 4.31-.01 8.621-.01 12.932v.622c.681-.832 1.287-1.571 1.89-2.312 1.352-1.657 2.706-3.312 4.05-4.975.163-.201.322-.295.593-.29 1.105.017 2.21.006 3.34.006-.012.215-.18.322-.29.455-1.984 2.389-3.965 4.78-5.968 7.154-.255.302-.23.466.008.746 2.388 2.803 4.763 5.617 7.142 8.428.053.063.101.13.219.283-.75 0-1.42.013-2.09-.003-.657-.016-1.4.215-1.952-.092-.528-.294-.866-.932-1.284-1.422-1.86-2.177-3.718-4.356-5.658-6.628" fill-rule="evenodd" data-name="Path 1912"/><path d="M211.309 44.825c1.443-1.967 3.293-2.81 5.575-2.714 3.22.135 5.917 2.736 6.178 5.957.123 1.507.04 3.02.05 4.53.013 2.173-.004 4.346.01 6.52.003.347-.077.474-.447.46-.73-.03-1.463-.031-2.193 0-.386.016-.479-.1-.477-.481.017-3.124.007-6.249.011-9.373.002-.858-.127-1.69-.477-2.476-.839-1.887-2.601-2.468-4.545-2.147-2.126.352-3.626 2.171-3.667 4.446-.052 2.936-.017 5.874-.018 8.81 0 1.212 0 1.212-1.207 1.212-.51 0-1.021-.016-1.53.006-.3.013-.372-.1-.37-.381.013-1.29.006-2.58.006-3.871 0-4.109.006-8.218-.008-12.327-.002-.387.08-.527.495-.506.729.038 1.462.027 2.193.004.324-.01.447.065.43.413-.032.59-.01 1.184-.01 1.918" fill-rule="evenodd" data-name="Path 1913"/><path d="M211.129 26.974c-.238 2.965-.467 5.757-1.796 8.311-.563 1.083-1.512 1.71-2.63 2.112-.366.13-.744.229-1.114.347-1.22.39-2.51.584-3.633 1.302 1.019-2.52 2.618-4.622 4.5-6.539-2.304 1.505-3.969 3.605-5.496 6.01-.495-2.363-.033-4.362 1.3-6.175 1.005-1.368 2.405-2.154 3.985-2.676.723-.24 1.446-.483 2.159-.752 1.022-.387 1.896-1.007 2.725-1.94m-4.383 5.356c.056-.024.13-.054.06-.122-.064-.062-.1.03-.147.056-.047.037-.108.083-.037.138.076.06.094-.027.124-.072" fill-rule="evenodd" data-name="Path 1916"/><path d="M203.874 51.021c0 2.682-.007 5.363.008 8.044.001.375-.06.536-.487.513-.763-.039-1.53-.02-2.294-.006-.276.006-.383-.06-.382-.363.009-5.448.009-10.895 0-16.343 0-.286.071-.379.366-.371.765.02 1.53.026 2.295-.002.38-.014.508.068.505.485-.022 2.681-.011 5.362-.011 8.043" fill-rule="evenodd" data-name="Path 1917"/></g></svg>