<svg xmlns="http://www.w3.org/2000/svg" width="322.867" height="77.679"><g data-name="Group 1218" clip-path="url(&quot;#a&quot;)"><path d="M134.637 71.153c-2.906 3.343-6.253 5.321-10.329 6.066-11.015 2.011-20.816-4.113-23.441-14.991-2.115-8.766.075-16.44 7.016-22.433 6.946-5.996 19.675-5.908 26.192 1.526.12.137.246.269.562.613V40.55c0-6.021.025-12.043-.025-18.063-.008-1.013.281-1.279 1.265-1.23 1.673.084 3.355.059 5.032.007.758-.023 1.03.156 1.029.978a21080.01 21080.01 0 0 0-.002 53.354c.001.784-.204 1.032-1.001 1.006a88.936 88.936 0 0 0-5.392-.001c-.76.022-.95-.237-.922-.958.055-1.385.016-2.775.016-4.49m-.038-14.51c0-.558.051-1.121-.008-1.673-.531-4.955-2.635-8.992-7.302-11.147-4.749-2.193-9.576-2.117-14.029.84-3.812 2.533-5.368 6.424-5.601 10.84-.567 10.724 7.184 16.969 17.004 14.715 6.161-1.414 9.973-6.681 9.936-13.575" fill="#040404" fill-rule="evenodd" data-name="Path 1909"/><path d="M231.439 41.825c.387-.607.256-1.053.256-1.47.011-5.981.026-11.962-.012-17.943-.005-.921.22-1.27 1.196-1.225 1.674.077 3.355.054 5.032.007.781-.021 1.036.226 1.023 1.021-.046 2.671-.018 5.343-.018 8.015 0 14.992-.012 29.985.026 44.977.002 1.121-.234 1.554-1.428 1.476-1.591-.105-3.195-.059-4.791-.012-.773.022-1.067-.214-1.036-1.015.055-1.415.016-2.833.016-4.45-1.285 1.081-2.198 2.242-3.408 3.082-4.058 2.816-8.562 3.733-13.407 3.165-8.054-.944-13.378-5.474-16.263-12.84-3.72-9.497-.581-20.916 8.501-26.406 7.054-4.264 17.759-3.642 23.805 2.924.176.192.311.422.508.694m-13.401.626c-6.526-.007-11.294 3.521-12.838 9.673-1.251 4.986-.734 9.75 2.5 13.939 2.161 2.799 5.126 4.164 8.644 4.495 4.414.415 8.372-.593 11.493-3.807 3.234-3.332 4.132-7.473 3.694-12.016-.711-7.384-6.039-12.276-13.493-12.284" fill="#98d2bb" fill-rule="evenodd" data-name="Path 1910"/><path d="M270.367 59.704c-4.916 0-9.832.029-14.746-.024-1.005-.011-1.086.284-.876 1.147 1.316 5.395 5.852 9.16 11.423 9.704 3.451.337 6.659-.137 9.683-1.827.915-.512 1.735-1.15 2.407-1.949.42-.499.759-.514 1.297-.149 1.353.918 2.755 1.763 4.131 2.648 1.201.773 1.203.785.217 1.89-2.748 3.08-6.187 4.999-10.193 5.877-5.599 1.228-11.039.719-16.167-1.922-5.872-3.026-9.276-7.984-10.401-14.374-1.157-6.575.143-12.696 4.47-17.962 3.277-3.989 7.516-6.304 12.654-7.015 5.234-.725 10.007.419 14.257 3.509 4.715 3.43 7.19 8.179 7.889 13.914.227 1.866.288 3.716.061 5.592-.097.8-.396.958-1.12.954-4.996-.025-9.991-.013-14.986-.013m-3.557-6.224c3.713 0 7.426.004 11.139-.004.482-.001 1.149.176.97-.725-.528-2.66-1.474-5.143-3.422-7.098-2.423-2.433-5.442-3.273-8.829-3.219-5.928.094-10.907 4.283-11.972 10.09-.17.929.134.969.856.965 3.752-.02 7.505-.009 11.258-.009" fill="#98d2bb" fill-rule="evenodd" data-name="Path 1911"/><path d="M7.264 57.443c0 6.201-.024 12.099.024 17.996.008.958-.26 1.204-1.185 1.164-1.715-.074-3.436-.057-5.152-.004-.736.022-.95-.186-.941-.931.041-3.23.018-6.46.018-9.69 0-14.475.013-28.949-.028-43.424-.003-1.067.262-1.359 1.313-1.297 1.592.096 3.197.08 4.791.004.928-.044 1.187.211 1.184 1.165-.038 10.128-.024 20.256-.024 30.385v1.461c1.6-1.956 3.023-3.692 4.442-5.432 3.176-3.893 6.356-7.782 9.514-11.69.382-.472.757-.694 1.393-.683 2.596.042 5.192.017 7.846.017-.025.505-.421.756-.679 1.067-4.661 5.614-9.316 11.234-14.023 16.81-.598.709-.542 1.096.018 1.753 5.612 6.585 11.193 13.197 16.781 19.802.126.148.239.307.515.666-1.763 0-3.336.029-4.908-.008-1.547-.037-3.293.506-4.588-.215-1.242-.692-2.035-2.191-3.018-3.342-4.369-5.116-8.736-10.234-13.293-15.574" fill="#020202" fill-rule="evenodd" data-name="Path 1912"/><path d="M64.541 41.944c3.392-4.622 7.738-6.602 13.101-6.377 7.565.317 13.902 6.428 14.515 13.995.288 3.543.095 7.096.116 10.644.031 5.106-.009 10.213.026 15.319.006.817-.182 1.115-1.051 1.081a62.38 62.38 0 0 0-5.154 0c-.906.039-1.124-.234-1.119-1.13.039-7.34.016-14.681.026-22.021.003-2.017-.299-3.97-1.121-5.819-1.972-4.434-6.113-5.799-10.68-5.044-4.995.827-8.52 5.101-8.615 10.445-.123 6.899-.04 13.802-.044 20.703-.001 2.845 0 2.845-2.835 2.845-1.199 0-2.4-.037-3.597.015-.704.03-.872-.234-.866-.896.03-3.031.014-6.063.014-9.095 0-9.654.012-19.308-.021-28.962-.003-.91.187-1.239 1.163-1.189 1.714.088 3.437.062 5.153.008.761-.024 1.051.153 1.009.972-.072 1.387-.02 2.781-.02 4.506" fill="#050505" fill-rule="evenodd" data-name="Path 1913"/><path d="M306.968 77.64c-4.232-.148-8.343-.778-11.895-3.328-1.781-1.278-3.157-2.901-3.923-5.006-.252-.691-.125-.999.575-1.219 1.825-.575 3.635-1.198 5.447-1.814.466-.16.819-.188 1.073.359 1.087 2.351 3.097 3.449 5.52 3.917 2.942.568 5.863.656 8.645-.709 2.248-1.104 3.324-3.255 2.736-5.658-.363-1.484-1.568-2.248-2.91-2.781-2.015-.801-4.159-1.063-6.27-1.458-3.058-.572-6.115-1.139-8.838-2.781-3.043-1.835-4.552-4.527-4.766-8.061-.475-7.837 5.195-12.333 11.643-13.324 4.107-.631 8.034-.139 11.646 2.028 2.337 1.402 3.988 3.386 4.888 5.984.267.771.176 1.153-.71 1.349-1.631.362-3.244.816-4.847 1.29-.609.18-.952.091-1.227-.508-2.068-4.502-9.603-4.636-12.365-2.15-2.123 1.91-2.691 6.027.793 7.645 2.315 1.075 4.829 1.302 7.276 1.824 2.967.632 5.89 1.383 8.586 2.85 4.195 2.285 5.227 6.005 4.692 10.119-.925 7.111-6.224 10.4-12.429 11.19-1.102.14-2.208.373-3.34.242" fill="#98d3bb" fill-rule="evenodd" data-name="Path 1914"/><path d="M160.739 43.293c1.915-3.446 4.519-5.548 7.848-6.786 1.507-.561 3.081-.78 4.665-.965.668-.077.922.159.91.856-.036 2.113-.039 4.228.001 6.341.014.741-.237.967-.967.94-1.315-.049-2.646-.171-3.944.098-4.493.933-7.08 3.752-8.009 8.707a29.005 29.005 0 0 0-.512 5.458c.021 5.783-.009 11.567.026 17.351.006.907-.192 1.281-1.184 1.231a54.412 54.412 0 0 0-4.914-.003c-.898.036-1.159-.252-1.153-1.148.039-5.185.019-10.37.019-15.556 0-7.379.015-14.759-.019-22.138-.004-.921.217-1.263 1.193-1.216 1.674.08 3.356.057 5.033.006.782-.023 1.046.218 1.023 1.011-.051 1.811-.016 3.624-.016 5.813" fill="#98d2bb" fill-rule="evenodd" data-name="Path 1915"/><path d="M64.119 0c-.559 6.968-1.098 13.527-4.219 19.529-1.323 2.545-3.554 4.017-6.18 4.961-.86.308-1.748.538-2.618.817-2.867.916-5.899 1.371-8.535 3.059 2.393-5.924 6.151-10.86 10.572-15.364-5.414 3.535-9.325 8.47-12.914 14.118-1.161-5.549-.077-10.247 3.054-14.506 2.363-3.215 5.653-5.061 9.364-6.288 1.7-.562 3.399-1.134 5.073-1.768 2.402-.909 4.455-2.365 6.403-4.558M53.821 12.585c.132-.057.304-.127.139-.287-.149-.145-.232.072-.344.131-.109.089-.253.196-.087.326.18.14.222-.064.292-.17" fill="#030303" fill-rule="evenodd" data-name="Path 1916"/><path d="M47.072 56.502c0 6.3-.016 12.6.019 18.9.004.881-.14 1.258-1.143 1.206-1.793-.092-3.594-.048-5.391-.014-.647.012-.899-.143-.898-.855.021-12.8.021-25.599.001-38.399-.001-.672.167-.889.859-.872 1.797.047 3.597.063 5.392-.003.896-.034 1.195.16 1.187 1.138-.051 6.3-.026 12.599-.026 18.899" fill="#030303" fill-rule="evenodd" data-name="Path 1917"/><path d="M189.278 56.617c0 6.256-.03 12.512.028 18.767.01 1.106-.35 1.347-1.364 1.295a43.266 43.266 0 0 0-4.668.002c-1.125.065-1.416-.334-1.413-1.425.035-12.073.022-24.146.022-36.219 0-2.552 0-2.552 2.57-2.552 1.238 0 2.479.057 3.711-.019.913-.057 1.138.262 1.133 1.145-.036 6.335-.019 12.671-.019 19.006" fill="#99d3bc" fill-rule="evenodd" data-name="Path 1918"/><path d="M185.612 21.167c2.31.008 4.154 1.878 4.145 4.205-.008 2.221-1.913 4.144-4.105 4.141-2.264-.002-4.241-1.939-4.245-4.159-.004-2.253 1.946-4.195 4.205-4.187" fill="#99d3bc" fill-rule="evenodd" data-name="Path 1919"/></g><defs><clipPath id="a"><path d="M0 0h322.867v77.679H0V0z" data-name="Rectangle 412"/></clipPath></defs></svg>