<svg xmlns="http://www.w3.org/2000/svg" width="154.27" height="157.191" viewBox="118.036 596.212 154.27 157.191"><g data-name="Group 3"><g data-name="Group 1"><path d="M242.158 730.304c-.216.583-.748 1.122-1.596 1.614a7.375 7.375 0 0 1-2.8.94 9.281 9.281 0 0 1-3.071-.122 9.73 9.73 0 0 1-2.943-1.118l-4.09-2.361 8.242-4.79 4.09 2.362c.923.533 1.572 1.1 1.941 1.7.368.6.444 1.19.227 1.775m-5.743.469c.46-.076.9-.237 1.325-.484.415-.24.687-.494.813-.758a.807.807 0 0 0-.035-.784c-.147-.258-.419-.502-.812-.728l-1.173-.678-3.91 2.272 1.174.677a3.91 3.91 0 0 0 2.618.483" fill-rule="evenodd" data-name="Path 83"/><path d="m231.825 722.115-4.616 6.883-2.89-1.67.88-1.155-3.154-1.821-1.992.514-2.844-1.642 11.867-2.696 2.749 1.587Zm-7.005 1.52 1.606.928 1.273-1.67-2.88.743" fill-rule="evenodd" data-name="Path 84"/><path d="M222.705 719.625c-.291.438-.747.84-1.375 1.204a7.302 7.302 0 0 1-2.07.797 9.725 9.725 0 0 1-2.348.232 10.147 10.147 0 0 1-2.381-.331 8.843 8.843 0 0 1-2.18-.89c-.679-.392-1.197-.815-1.56-1.27-.36-.452-.555-.914-.586-1.381-.03-.468.102-.92.393-1.361.293-.44.751-.84 1.37-1.2a7.284 7.284 0 0 1 2.074-.802 9.756 9.756 0 0 1 2.342-.228c.81.015 1.605.127 2.388.335a8.843 8.843 0 0 1 2.186.893c.68.392 1.198.813 1.554 1.266.356.45.551.91.58 1.378.032.467-.096.92-.387 1.358m-5.203-.004a4.105 4.105 0 0 0 1.006-.42c.323-.188.564-.383.725-.586.16-.202.242-.405.25-.606a.94.94 0 0 0-.185-.577 1.828 1.828 0 0 0-.588-.502 3.196 3.196 0 0 0-.872-.34 4.153 4.153 0 0 0-.997-.106 4.29 4.29 0 0 0-1.044.147c-.35.094-.686.234-1.009.422-.32.186-.563.382-.723.584-.161.203-.244.406-.249.606a.927.927 0 0 0 .185.577c.132.184.326.353.588.504.26.15.552.262.872.338a4.19 4.19 0 0 0 2.041-.041" fill-rule="evenodd" data-name="Path 85"/><path d="m212.023 710.682-6.085 3.537 3.746 2.162-2.156 1.254-6.542-3.777 8.241-4.79 2.796 1.614Z" fill-rule="evenodd" data-name="Path 86"/><path d="M264.4 747.086c.44.254.673.55.7.882.026.334-.189.633-.644.897-.446.26-.964.386-1.55.378-.59-.006-1.104-.137-1.545-.391-.443-.256-.672-.554-.682-.894-.015-.34.202-.64.648-.9a2.88 2.88 0 0 1 1.547-.376c.572.014 1.083.148 1.525.404" fill-rule="evenodd" data-name="Path 87"/><path d="M263.912 740.423c.82.474 1.417.976 1.786 1.508.367.531.507 1.065.416 1.604l-3.353-.123a1.418 1.418 0 0 0-.172-.884c-.151-.263-.412-.502-.784-.717a3.93 3.93 0 0 0-2.023-.527 4.35 4.35 0 0 0-1.049.144c-.346.092-.68.23-1.002.418-.305.177-.54.368-.699.57-.16.203-.244.406-.251.612a.96.96 0 0 0 .204.603c.143.196.364.381.663.554a4.556 4.556 0 0 0 1.217.475l2.088-1.214 2.429 1.403-3.485 2.025a12.712 12.712 0 0 1-2.507-.548c-.826-.269-1.548-.579-2.156-.93-.67-.387-1.185-.806-1.543-1.252-.354-.447-.549-.901-.577-1.365-.03-.463.102-.913.397-1.351.297-.437.762-.841 1.398-1.211a7.476 7.476 0 0 1 2.087-.814 9.546 9.546 0 0 1 2.337-.234 9.994 9.994 0 0 1 2.376.343c.783.21 1.515.513 2.203.91" fill-rule="evenodd" data-name="Path 88"/><path d="m258.012 737.234-8.242 4.79-2.297-1.327.595-3.998-3.748 2.178-2.725-1.574 8.242-4.79 2.297 1.327-.594 3.998 3.746-2.178 2.726 1.574Z" fill-rule="evenodd" data-name="Path 89"/><path d="m248.485 731.733-8.242 4.79-2.796-1.614 8.242-4.79 2.796 1.614Z" fill-rule="evenodd" data-name="Path 90"/><path d="M271.603 751.245c.442.255.673.55.701.882.026.334-.19.633-.644.897-.446.26-.964.386-1.551.378-.59-.006-1.102-.136-1.544-.391-.443-.256-.672-.554-.682-.894-.015-.34.202-.64.648-.9.455-.264.97-.389 1.546-.376.573.014 1.083.148 1.526.404" fill-rule="evenodd" data-name="Path 91"/><path d="M268.001 749.165c.442.256.673.55.7.882.027.334-.188.633-.643.897-.446.26-.964.386-1.55.379-.59-.006-1.103-.137-1.545-.392-.443-.256-.672-.554-.682-.894-.015-.34.202-.64.648-.9a2.88 2.88 0 0 1 1.546-.375c.573.013 1.084.148 1.526.403" fill-rule="evenodd" data-name="Path 92"/></g><g data-name="Isometric car loading-01"><g data-name="Layer 1"><path d="m171.969 712.424-52.036-30.044a3.788 3.788 0 0 1-.924-5.817l2.552-2.84a30.205 30.205 0 0 1 17.94-9.668l5.512-.833 57.478 33.179a3.853 3.853 0 0 1 .675 6.18l-.372.343a42.914 42.914 0 0 1-13.129 8.238l-5.387 2.148a14.148 14.148 0 0 1-12.31-.886Z" fill="#bbb6b9" fill-rule="evenodd" data-name="Path 889"/><path d="M126.95 661.016c-.701.578-2.071 2.282-2.071 2.282l.599.989.675-.42 3.626-.848 1.322-3.55s-3.449.97-4.15 1.547Z" fill="#9bd8db" fill-rule="evenodd" data-name="Path 890"/><path d="M205.057 693.41c0-4.516-3.19-10.025-7.123-12.288-1.962-1.132-3.736-1.246-5.025-.52l-.028.016-3.457 1.998v3.483l10.102 13.87 3.177-1.85c.2-.09.389-.2.566-.329 1.117-.8 1.788-2.303 1.788-4.38Z" fill="#2d2c37" fill-rule="evenodd" data-name="Path 891"/><path d="M189.524 694.076a10.042 5.798 59.69 1 1 .05.086z" fill="#2d2c37" fill-rule="evenodd" data-name="Ellipse 31"/><path d="M189.524 694.076a10.042 5.798 59.69 1 1 .05.086z" fill="#393843" fill-rule="evenodd" data-name="Ellipse 32"/><path d="M189.54 694.04a9.66 5.576 59.69 1 1 .051.085z" fill="#2d2c37" fill-rule="evenodd" data-name="Ellipse 33"/><path d="M191.051 693.183a6.977 4.03 59.69 1 1 .05.086z" fill="#504f58" fill-rule="evenodd" data-name="Ellipse 34"/><path d="M191.34 692.9a6.612 3.817 59.69 1 1 .05.087z" fill="#bababe" fill-rule="evenodd" data-name="Ellipse 35"/><path d="M191.575 685.695c-1.49.85-1.688 3.368-.59 5.953a10.284 10.284 0 0 0 1.32 2.294c1.702 2.24 3.996 3.342 5.49 2.49.177-.103.338-.23.478-.38.39-.436.644-.978.728-1.558.258-1.433-.146-3.359-1.213-5.197-1.067-1.838-2.54-3.153-3.917-3.652a3.03 3.03 0 0 0-1.725-.16c-.2.042-.392.112-.571.21Z" fill="#5f5e67" fill-rule="evenodd" data-name="Path 892"/><path d="m194.747 689.567-3.42 1.95c-.132.074-.148.3-.036.535.112.234.239.477.382.716.143.238.284.477.437.69.152.212.353.312.477.238l3.42-1.95-1.26-2.18Z" fill="#bababe" fill-rule="evenodd" data-name="Path 893"/><path d="m195.112 690.813-.558 1.623.103.098 3.181 3.06c.165.157.346.186.437.07a2.8 2.8 0 0 0 .456-.956.761.761 0 0 0-.239-.66l-2.558-2.46-.822-.775Z" fill="#bababe" fill-rule="evenodd" data-name="Path 894"/><path d="M192.47 685.674c-.148.016-.212.186-.157.408l1.064 4.277.034.136 1.701.33-.272-1.084-.854-3.44a.761.761 0 0 0-.454-.537 2.825 2.825 0 0 0-1.062-.09Z" fill="#bababe" fill-rule="evenodd" data-name="Path 895"/><path d="M204.274 684.139c-.981-1.485-3.268-4.485-6.54-5.932-2.607-1.153-4.226-.83-5.145-.277l-3.67 2.12c-.8.437-1.125 1.065-1.125 1.194 0 .284.597.687 1.174.69.578.002 3.643-1.88 9.095 3.22 0 0 .238 3.305 1.019 3.403.179.036.635-.038 1.353-.327 2.435-.98 2.748-1.585 3.593-2.425.394-.394.551-1.196.246-1.666Z" fill="#9bd8db" fill-rule="evenodd" data-name="Path 896"/><path d="M203.784 684.12c.416.761-1.857 2.625-3.678 2.84-.239.034-.897-.477-1.766-1.41-1.015-1.096-3.731-2.698-3.731-2.698s2.762 1.208 4.705 1.432a3.58 3.58 0 0 0 3.067-1.193s1.062.401 1.403 1.029Z" fill="#9bd8db" fill-rule="evenodd" data-name="Path 897"/><path d="M141.583 680.437c0-4.514-3.19-10.014-7.123-12.286-1.96-1.131-3.736-1.248-5.025-.52l-.03.016-3.457 1.998v3.483l10.102 13.87 3.179-1.85a3.36 3.36 0 0 0 .566-.329c1.114-.8 1.788-2.303 1.788-4.382Z" fill="#23222d" fill-rule="evenodd" data-name="Path 898"/><path d="M126.045 681.106a10.042 5.798 59.69 1 1 .05.086z" fill="#2d2c37" fill-rule="evenodd" data-name="Ellipse 36"/><path d="M125.53 680.986a9.99 5.768 59.826 1 1 .05.087z" fill="#393843" fill-rule="evenodd" data-name="Ellipse 37"/><path d="M126.064 681.067a9.66 5.576 59.69 1 1 .05.086z" fill="#2d2c37" fill-rule="evenodd" data-name="Ellipse 38"/><path d="M136.05 681.122c0 3.136-2.215 4.399-4.949 2.821-2.733-1.578-4.948-5.4-4.948-8.536 0-3.136 2.215-4.399 4.948-2.821 2.734 1.578 4.949 5.4 4.949 8.536Z" fill="#504f58" fill-rule="evenodd" data-name="Path 899"/><path d="M127.862 679.929a6.612 3.817 59.69 1 1 .05.086z" fill="#bababe" fill-rule="evenodd" data-name="Ellipse 39"/><path d="M135.145 682.602c.936-1.626.39-4.507-1.194-6.87a10.62 10.62 0 0 0-.792-1.036 8.802 8.802 0 0 0-.88-.883c-1.965-1.702-4.075-1.867-5.013-.239a2.923 2.923 0 0 0-.275.642 5.053 5.053 0 0 0-.14 2.063 10.001 10.001 0 0 0 2.4 5.2c1.35 1.55 2.865 2.33 4.099 2.252a2.12 2.12 0 0 0 1.404-.616c.152-.153.284-.326.391-.513Z" fill="#5f5e67" fill-rule="evenodd" data-name="Path 900"/><path d="m132.054 679.465 1.67-3.427a.623.623 0 0 0-.121-.61 9.618 9.618 0 0 0-.501-.627 8.702 8.702 0 0 0-.537-.563c-.182-.175-.366-.184-.447-.043l-1.67 3.428 1.606 1.842Z" fill="#bababe" fill-rule="evenodd" data-name="Path 901"/><path d="M131.419 678.25v-2.06l-.107-.062-3.832-1.625c-.171-.098-.324-.048-.36.124-.087.416-.12.84-.095 1.265a.83.83 0 0 0 .372.62l3.182 1.249.84.49Z" fill="#bababe" fill-rule="evenodd" data-name="Path 902"/><path d="M134.446 683.038c.112-.088.114-.305 0-.525l-1.542-4.535-.065-.138-1.432.417.513 1.077 1.148 3.714c.12.25.342.42.506.387.319-.06.618-.196.872-.397Z" fill="#bababe" fill-rule="evenodd" data-name="Path 903"/><path d="m202.464 679.988-.389.835s.02 1.757-.415 2.61c-.434.851-1.108.92-1.21 1.541-.478 2.853-1.75 1.359-5.416 1.31-5.14-.066-9.722 3.15-9.722 3.15-23.371-12.984-23.51-12.75-24.713-14.027-.59-.623 1.686-7.485-1.432-13.627-3.117-6.141-8.817-8.383-10.075-11.1-.69-1.486.955-3.353.048-5.49-.907-2.135-1.767-4.57-1.767-4.57v-1.368l.356-.477s.129-.175.334-.44c.392-.52 1.055-1.398 1.566-2.04.432-.547-.334-.463.384-1.1.564-.504 1.082-.898 1.344-.955.6-.153 8.562 3.305 11.205 4.833 2.642 1.528 10.574 5.614 13.775 8.612l.016.017c.27.253.57.542.89.864l.017.017c1.588 1.587 3.734 3.92 5.918 6.354a547.457 547.457 0 0 1 4.68 5.299l.015.014c2.487 2.85 4.409 5.101 4.683 5.423l.036.041 2.167 2.036.239.217.513.478 1.11 1.043 3.58 4.879 2.263 5.621Z" fill="#9bd8db" fill-rule="evenodd" data-name="Path 904"/><path d="M147.722 638.782c5.729 4.604 17.03 12.035 17.03 12.035s22.006 15.737 22.254 15.88c.249.144 6.192 1.445 6.192 1.445-.716-1.244-1.382-2.376-1.382-2.376s-2.585-2.17-7.416-8.156c-4.831-5.986-7.4-8.593-9.593-10.4-2.194-1.807-7.942-5.335-7.942-5.335-4.325-2.387-8.545-3.981-12.013-5.607-3.414-1.596-4.423-1.41-4.454-1.405a19.18 19.18 0 0 0-.39.336c-.716.64.048.556-.384 1.103a129.38 129.38 0 0 0-1.568 2.038l-.334.442Z" fill="#9bd8db" fill-rule="evenodd" data-name="Path 905"/><path d="m148.054 638.34 1.062.955 2.012 1.518 10.868 7.732 1.193-7.07s-11.237-6.152-13.192-6.283c-.716.64.047.556-.385 1.103-.5.651-1.165 1.525-1.558 2.045Z" fill="#9bd8db" fill-rule="evenodd" data-name="Path 906"/><path d="M191.816 665.774s2.879 4.967 3.251 5.49c.373.522 1.177 3.804 1.239 4.34.062.534-2.99 3.432-2.99 3.432s-5.221.41-6.522 1.861a34.065 34.065 0 0 1-3.251 3.134c-.435.354-8.99-4.821-9.918-5.358.136.079-7.132-7.109-7.7-8.047-1.836-3.034-1.172-16.866-1.172-17.487v-2.327l2.112-8.937s5.743 3.533 7.942 5.335c2.198 1.802 4.506 4.72 9.44 9.81 5.352 5.527 7.57 8.754 7.57 8.754Z" fill="#9bd8db" fill-rule="evenodd" data-name="Path 907"/><path d="M160.146 664.026c-.628-1.742 2.888-2.745-6.975-9.018-4.829-3.074-7.017-1.353-7.017-1.353s-1.137-1.193-1.218-1.862c-.08-.668 2.125-2.967 5.729-1.65 3.604 1.318 9.421 5.605 11.65 10.165 2.23 4.559-.293 9.657-.293 9.657s-.475-1.327-1.876-5.939Z" fill="#9bd8db" fill-rule="evenodd" data-name="Path 908"/><path d="M202.464 679.988s-.885.53-3.568-1.492c-.716-.542-3.49-2.604-7.161-5.332-8.223-6.109-20.972-15.566-25.4-18.857l-1.577-1.17-.225-.148 11.458-5.144.238-.11.105-.06.017.017c.27.253.57.542.89.865l.017.016c1.587 1.588 3.733 3.92 5.917 6.354a547.141 547.141 0 0 1 4.681 5.3l.014.014a664.69 664.69 0 0 1 4.684 5.423l.035.04 2.168 2.036.239.218.513.477 1.11 1.043 2.501 3.416c.71.972 1.298 2.027 1.752 3.141l1.592 3.953Z" fill="#9bd8db" fill-rule="evenodd" data-name="Path 909"/><path d="M198.85 688.45c0-.716-9.237 2.838-11.104 2.313-1.03-.292-11.12-6.106-13.386-7.73-1.487-1.064-12.426-11.695-13.087-12.12-.662-.425-1.52-1.688-1.807-2.514-.287-.826-.716-7.75-6.292-10.78-5.576-3.028-7.018-1.35-7.018-1.35s-.99-1.07-1.217-1.864c0 0 .491 1.778 1.527 2.728 1.036.95 1.836-1.308 6.018 1.485 4.182 2.792 4.113 6.49 5.929 10.072 1.816 3.583 1.194 7.49 2.189 9.329-1.284-2.387 5.29 23.323 17.071 24.304 2.939.26 1.695 3.666 4.232 2.465.137-.064 3.247-3.062 4.087-3.485.84-.422 4.8-2.72 6.387-3.28 2.149-.758 3.45-.677 3.638-.77.8-.39 1.938.107 2.401-2.316.366-1.916.432-6.287.432-6.487Z" fill="#3c3b45" fill-rule="evenodd" data-name="Path 910"/><path d="M161.967 670.524s.478 2.89.814 3.155c.337.265 6.287 4.774 6.65 5.092.363.317 2.184 1.487 2.184 1.487l-9.648-9.734Z" fill="#9bd8db" fill-rule="evenodd" data-name="Path 911"/><path d="m195.509 668.452-.513-.478-.24-.217-2.167-2.036-.035-.04-11.233-12.463-4.987-5.53.017.016c.239.253 2.65 2.745 6.824 7.235 3.156 3.394 7.321 7.935 12.334 13.513Z" fill="#9bd8db" fill-rule="evenodd" data-name="Path 912"/><path d="m163.652 655.86-4.845 1.941 17.417-10.056-3.253 2.738-9.319 5.378Z" fill="#6c5757" fill-rule="evenodd" data-name="Path 913"/><path d="M202.464 679.988c.07.22-.238 1.02-.238 1.02l-.855 1.336s-4.373 3.888-6.053 4.855c-1.68.967-7.161 2.774-7.161 2.774l-4.087.625-2.282-5.612 3.342-1.064 13.217-7.639 1.193-2.711s1.098.513 2.924 6.416Z" fill="#9bd8db" fill-rule="evenodd" data-name="Path 914"/><path d="m202.464 682.12-1.098 2.355-5.38 5.092-6.967 3.131-4.949 1.557-1.534-1.478c.302-.23.551-.522.73-.857.226-.462.495-.901.804-1.312l4.08-.635s2.387-.85 6.533-3.103c4.225-2.3 6.683-4.524 6.683-4.524l.855-1.336.243 1.11Z" fill="#247377" fill-rule="evenodd" data-name="Path 915"/><path d="M199.958 686.091s-.63 4.524-1.108 4.968c-5.69 5.28-13.216 7.638-13.216 7.638l-4.17-1.922c.315-.317.519-.727.582-1.17.103-.62.778-.691 1.213-1.544.226-.46.495-.9.804-1.31l4.948-.043 6.975-3.141 5.383-5.092-1.411 1.616Z" fill="#247377" fill-rule="evenodd" data-name="Path 916"/><path d="M180.263 684.053s1.545 1.193 4.297.979c2.752-.215 6.52-1.433 9.987-3.846 3.466-2.413 5.027-4.296 5.28-4.817.253-.52.336-2.258-.296-2.78-.633-.523-19.268 10.464-19.268 10.464Z" fill="#9bd8db" fill-rule="evenodd" data-name="Path 917"/><path d="M199.364 673.338c.47.595.43 1.446-.096 1.993l-.928.97s-1.843 1.875-5.839 4.14a57.832 57.832 0 0 1-7.378 3.49l-.988.318a5.352 5.352 0 0 1-4.44-.547l-3.71-2.296-.79-.74-.322-.303 1.42-.222c1.759-.274 3.45-.87 4.992-1.76l11.457-6.62a6.036 6.036 0 0 0 2.454-2.677l.296-.632 3.872 4.886Z" fill="#9bd8db" fill-rule="evenodd" data-name="Path 918"/><path d="M124.934 663.239s-1.244 3.757-.208 4.707c1.036.95 2.78-.926 6.96 1.866 4.18 2.793 5.173 5.049 6.99 8.632 1.816 3.582 2.415 5.817 3.405 7.655.814 1.513 17.683 11.584 23.653 15.116a3.497 3.497 0 0 0 3.68-.06c.974-.634 2.29-1.257 3.648-1.214 3.58.112 8.404-2.803 8.404-3.17 0-.716-11.424-.28-13.293-.805-1.869-.525-10.837-3.785-12.324-4.85-1.487-1.065-12.426-11.696-13.087-12.121-.661-.425-1.528-1.688-1.817-2.518-.289-.83-3.103-5.62-8.67-8.648-5.566-3.03-7.86-.75-7.86-.75s-.002-3.198.519-3.84Z" fill="#5f5e67" fill-rule="evenodd" data-name="Path 919"/><path d="M184.07 690.598v2.148c-.309.41-.578.85-.804 1.31-.11.214-.253.41-.422.58-.36.361-.717.526-.79.956a2.077 2.077 0 0 1-.583 1.17c-1.42 1.405-5.013.806-8.04.768-5.138-.067-7.91 1.754-7.91 1.754s-21.244-13.102-21.828-13.727c-.585-.626-1.478-6.054-4.605-12.193-3.127-6.14-9.46-7.14-10.712-9.856-.633-1.358-.275-1.48-.893-3.117a14.078 14.078 0 0 0-.203-.508c-.898-2.137-.652-4.645-.652-4.645v-2.881l.356-.478s.129-.174.332-.441c.391-.52 1.375-2.251 1.885-2.893.428-.54 2.576-2.583 3.292-3.228.563-.503 1.084-.897 1.346-.954.6-.153 8.562 3.308 11.205 4.833 2.642 1.525 10.574 5.614 13.775 8.612 4.428 4.151 13.154 19.829 13.154 19.829l4.025 3.778 5.802 3.58 2.27 5.603Z" fill="#247377" fill-rule="evenodd" data-name="Path 920"/><path d="M182.844 694.632c-.36.36-.717.525-.79.955a2.077 2.077 0 0 1-.583 1.17c-1.42 1.405-5.013.806-8.04.768-5.138-.067-7.91 1.754-7.91 1.754s-21.244-13.102-21.828-13.727c-.585-.625-1.478-6.053-4.605-12.193-3.127-6.139-9.46-7.134-10.712-9.85-.633-1.359-.275-1.48-.893-3.118.752-.496 2.466.239 5.49 2.12 5.4 3.341 7.041 7.61 10.264 11.058 2.446 2.35 25.848 16.47 27.94 15.7 2.09-.772 4.019-.375 5.2 0 1.182.374 4.268 2.148 4.268 2.148a37.411 37.411 0 0 0 2.199 3.215Z" fill="#247377" fill-rule="evenodd" data-name="Path 921"/><path d="M184.07 692.746c-1.534.036-3.427-1.334-3.427-1.334l3.427-.814v2.148Z" fill="#247377" fill-rule="evenodd" data-name="Path 922"/><path d="m176.33 647.683-.105.062-3.254 2.738-9.31 5.378-4.845 1.938-23.733-12.758-1.246-.688 3.358-2.797s.561-.955 4.345-3.419c3.308-2.148 4.974-1.96 4.974-1.96s4.707-1.909 4.846-1.94c.599-.153 8.562 3.306 11.204 4.834 2.356 1.36 9.259 4.872 12.636 7.624.402.334.783.666 1.13.988Z" fill="#9bd8db" fill-rule="evenodd" data-name="Path 923"/><path d="M184.07 690.598a12.987 12.987 0 0 1-5.012-1.036c-.568-.258-5.442-2.186-5.956-2.57-2.683-2.025-30.45-18.056-30.45-18.056s-13.229-10.83-16.033-13.708v-2.871l.358-.478s.129-.174.332-.441c.391-.52 1.375-2.251 1.885-2.893.435-.54 2.583-2.583 3.3-3.228.562-.503 1.083-.897 1.345-.954.6-.153 8.562 3.308 11.205 4.833 2.642 1.525 10.574 5.614 13.775 8.612 4.428 4.154 13.154 19.829 13.154 19.829l2.912 2.735 1.113 1.043 5.802 3.58 2.27 5.603Z" fill="#9bd8db" fill-rule="evenodd" data-name="Path 924"/><path d="M126.984 651.886c8.142 8.355 16.446 13.033 16.446 13.033s11.5 7.521 22.958 13.687c.253.136 6.194 1.444 6.194 1.444l-1.384-2.373s.093-.238-4.388-6.483c-4.48-6.244-7.316-12.066-9.514-13.868-2.198-1.802-9.605-5.874-9.605-5.874-4.325-2.387-6.896-3.435-10.362-5.058-3.416-1.597-4.423-1.413-4.454-1.406-.124.103-.258.217-.392.337-.716.637-2.85 2.687-3.28 3.234-.51.642-1.493 2.373-1.885 2.893-.205.26-.334.434-.334.434Z" fill="#2d2c37" fill-rule="evenodd" data-name="Path 925"/><path d="M164.98 694.801c-.442 0-2.476-.954-11.317-6.191l-.807-.478c-1-.577-6.624-6.254-7.722-8.07-1.861-3.074-2.542-10.581-2.542-11.118 0-.621.743-3.903.774-4.042l4.284-13.558.072.041c.074.04 7.426 4.103 9.605 5.889 1.275 1.043 2.76 3.425 4.638 6.444 1.4 2.249 2.988 4.793 4.888 7.443 2.686 3.748 4.263 6.08 4.39 6.49 0 .022 1.193 2.148 1.547 2.68.353.533.384 3.581.384 6.684 0 .463-1.757 2.127-1.957 2.316-.039.026-2.729 1.654-4.006 3.081-.508.568-.876.995-1.17 1.337a8.471 8.471 0 0 1-.976 1.043.127.127 0 0 1-.085.01Zm-17.251-43.258-4.234 13.395c0 .029-.77 3.402-.77 4.008 0 .535.676 7.999 2.522 11.05 1.074 1.77 6.738 7.482 7.676 8.022l.81.477c8.886 5.251 11.025 6.263 11.254 6.178a8.78 8.78 0 0 0 .954-1.024c.296-.344.664-.771 1.172-1.34 1.292-1.444 3.999-3.081 4.027-3.103.757-.716 1.91-1.91 1.91-2.21 0-2.275 0-6.082-.358-6.6-.358-.518-1.509-2.604-1.557-2.692l-.014-.029c-.038-.11-.425-.929-4.373-6.445-1.91-2.654-3.49-5.2-4.893-7.45-1.871-3.002-3.342-5.375-4.61-6.406-2.057-1.678-8.747-5.406-9.516-5.831Z" fill="#247377" fill-rule="evenodd" data-name="Path 926"/><path d="M138.86 677.288s-2.462-5.664-7.293-8.736c-4.831-3.072-7.16-1.473-7.16-1.473s0-3.425.517-3.84c1.583-1.244 2.148-2.387 5.753-1.065 3.604 1.323 5.821 4.392 8.05 8.946 2.23 4.555 4.956 14.442 4.956 14.442s-3.44-5.037-4.824-8.274Z" fill="#9bd8db" fill-rule="evenodd" data-name="Path 927"/><path d="m174.873 680.363-2.912-2.736-13.15-19.811c.242.281 6.383 9.151 16.062 22.547Z" fill="#9bd8db" fill-rule="evenodd" data-name="Path 928"/><path d="M143.45 681.215s.477 2.89.813 3.155c.337.265 6.287 4.774 6.65 5.092.363.317 2.184 1.487 2.184 1.487l-9.648-9.734Z" fill="#9bd8db" fill-rule="evenodd" data-name="Path 929"/><path d="m127.461 651.24 4.805 4.556 8.517 6.206 4.893-10.404s-11.238-6.15-13.183-6.28c-.716.637-2.85 2.687-3.28 3.234-.522.642-1.36 2.167-1.752 2.687Z" fill="#573f3f" fill-rule="evenodd" data-name="Path 930"/><path d="M128.927 652.972a2.444 2.444 0 0 1 .17-2.625c.88-1.265 5.065-4.144 5.065-4.144s-.437-.506-1.829-.7c-.654.605-3.282 3.235-3.282 3.235l-1.74 2.688 1.616 1.546Z" fill="#7f6d6d" fill-rule="evenodd" data-name="Path 931"/><path d="M128.734 652.789c-.072-.07-1.316-1.23-.602-2.626l-.821 1.27-.327.449 1.75.907Z" fill="#2d2c37" fill-rule="evenodd" data-name="Path 932"/><path d="m149.579 653.46-2.864 12.502 19.152 11.563 4.708 1.193s-1.013-2.559-3.402-5.984c-4.215-6.041-8.407-13.367-9.767-14.5-1.36-1.135-7.827-4.775-7.827-4.775Z" fill="#573f3f" fill-rule="evenodd" data-name="Path 933"/><path d="M184.555 705.247c0-4.514-3.189-10.013-7.123-12.286-1.96-1.131-3.735-1.248-5.012-.52l-.031.019-3.457 1.995v3.485l10.102 13.868 3.18-1.847c.198-.092.387-.202.565-.33 1.1-.801 1.776-2.305 1.776-4.384Z" fill="#2d2c37" fill-rule="evenodd" data-name="Path 934"/><path d="M168.247 705.914a9.99 5.768 59.826 1 1 .05.086z" fill="#2d2c37" fill-rule="evenodd" data-name="Ellipse 40"/><path d="M169.02 705.917a10.042 5.798 59.69 1 1 .05.086z" fill="#393843" fill-rule="evenodd" data-name="Ellipse 41"/><path d="M169.036 705.878a9.66 5.576 59.69 1 1 .05.086z" fill="#2d2c37" fill-rule="evenodd" data-name="Ellipse 42"/><path d="M179.022 705.932c0 3.136-2.215 4.399-4.948 2.821-2.733-1.578-4.948-5.4-4.948-8.536 0-3.136 2.215-4.399 4.948-2.821 2.733 1.578 4.948 5.4 4.948 8.536Z" fill="#504f58" fill-rule="evenodd" data-name="Path 935"/><path d="M170.83 704.737a6.612 3.817 59.69 1 1 .05.086z" fill="#bababe" fill-rule="evenodd" data-name="Ellipse 43"/><path d="M171.069 697.535c-1.49.85-1.688 3.368-.59 5.953.172.405.369.8.59 1.181.22.382.465.748.732 1.098 1.702 2.241 3.996 3.342 5.49 2.492.178-.102.338-.23.478-.38.391-.437.645-.98.73-1.56.256-1.433-.148-3.357-1.212-5.194-1.065-1.838-2.545-3.154-3.917-3.653a3.014 3.014 0 0 0-1.728-.16c-.201.046-.394.12-.573.223Z" fill="#5f5e67" fill-rule="evenodd" data-name="Path 936"/><path d="m174.723 701.1-3.903 2.256c-.13.074-.148.301-.035.535.112.234.238.477.382.716.143.239.286.477.436.692.15.215.356.313.478.239l3.902-2.256-1.26-2.181Z" fill="#bababe" fill-rule="evenodd" data-name="Path 937"/><path d="m175.088 702.347-.568 1.623.1.098 2.702 3.365c.163.158.344.186.435.07a2.8 2.8 0 0 0 .456-.955.754.754 0 0 0-.239-.661l-2.077-2.765-.809-.775Z" fill="#bababe" fill-rule="evenodd" data-name="Path 938"/><path d="M171.966 697.52c-.148.017-.215.186-.16.408l1.547 3.96.036.139 1.7.327-.27-1.084-1.34-3.124a.757.757 0 0 0-.453-.538 2.813 2.813 0 0 0-1.06-.088Z" fill="#bababe" fill-rule="evenodd" data-name="Path 939"/><path d="M177.227 690.044c-2.607-1.15-4.225-.828-5.144-.274l-3.669 2.12.929.276c-.478.322-.81.575-.575.578.183 0 .477-.265.973-.458l.461.138.49-.337c1.167-.045 2.967.545 5.764 3.163 0 0 2.9 3.68 3.683 3.779.124.024 2.11.658 5.05-1.783 1.04-.862-.675-3.01-1.212-3.182-3.482-1.115-3.477-2.573-6.75-4.02Z" fill="#9bd8db" fill-rule="evenodd" data-name="Path 940"/><path d="M185.188 696.31c.303.812-2.218 2.34-4.058 2.277-.239 0-.82-.597-1.542-1.65-.848-1.23-3.304-3.21-3.304-3.21s2.559 1.595 4.45 2.094a3.595 3.595 0 0 0 3.21-.743s.998.561 1.244 1.232Z" fill="#9bd8db" fill-rule="evenodd" data-name="Path 941"/><path d="M177.554 696.997s1.797 1.936 2.58 2.034c.127.019.256.019.382 0 0 0-2.625-4.838-7.077-6.805-4.64-2.05-6.151.57-6.151.854 0 .284.594.688 1.172.69.577.003 3.642-1.871 9.094 3.227Z" fill="#9bd8db" fill-rule="evenodd" data-name="Path 942"/><path d="m195.509 668.452-.296.632-.048.1c-.592 1.194-2.592 4.032-6.894 6.207-5.931 3-10.213 4.475-11.973 4.75l-1.42.222c-.525-.73-1.041-1.447-1.549-2.149-8.78-12.192-14.283-20.136-14.513-20.41l3.633-1.454a17.986 17.986 0 0 0 2.344-1.136l3.834-2.213 2.96-1.709a18.195 18.195 0 0 0 2.625-1.84l1.15-.97.872-.735 19.275 20.705Z" fill="#2d2c37" fill-rule="evenodd" data-name="Path 943"/><path d="m194.315 668.638-.045.098v.014c-.189.375-1.829 3.418-6.445 5.758-6.397 3.234-10.352 4.449-11.68 4.654l-.818.127-.045-.065-1.148-1.587-.75-1.04a1800.916 1800.916 0 0 1-12.174-17.134c-.36-.509-.637-.905-.854-1.213l2.451-.983a19.46 19.46 0 0 0 2.47-1.194l3.832-2.213.399-.238 2.56-1.478a19.383 19.383 0 0 0 2.77-1.943l1.255-1.057.046-.036.584.628h.012l6.4 6.877 11.18 12.025Z" fill="#6c5757" fill-rule="evenodd" data-name="Path 944"/><path d="M194.277 668.736v.014c-.188.375-1.828 3.418-6.445 5.758-6.397 3.234-10.352 4.449-11.68 4.654l-.818.127-.045-.065-1.148-1.587-.75-1.04a.239.239 0 0 1 .079-.12c.477-.337 3.965-1.526 4.583-2.187.618-.66.537-1.568 1.487-2.473.95-.904 7.93-4.34 7.93-4.34s2.549-.14 6.807 1.259Z" fill="#c5a6a3" fill-rule="evenodd" data-name="Path 945"/><path d="M194.902 669.652c.055-.393.046-.737-.107-.909l-2.977-3.356c-2.823-3.184-14.88-16.47-15.787-17.482l-.048-.053.351-.162.017.017.89.864.017.017c1.587 1.587 3.733 3.919 5.917 6.354a1072.14 1072.14 0 0 1 12.334 13.51l1.11 1.045-2.285 2.11c.255-.63.445-1.286.568-1.955Z" fill="#9bd8db" fill-rule="evenodd" data-name="Path 946"/><path d="M159.48 657.53s14.952 21.482 15.436 21.911c.485.43 1.745.757 3.447.175.876.577-3.49.747-3.49.747l-16.066-22.564.673-.27Z" fill="#9bd8db" fill-rule="evenodd" data-name="Path 947"/><path d="m191.212 666.807-4.707-1.193-16.995-11.99 2.561-1.477a19.38 19.38 0 0 0 2.77-1.943l1.255-1.058c.195.182.408.377.63.592h.012a83.94 83.94 0 0 1 6.4 6.877c.585.694 1.178 1.425 1.78 2.193l6.294 8Z" fill="#d6b6b2" fill-rule="evenodd" data-name="Path 948"/><path d="M188.694 689.269c-1.487.568-4.335.876-4.848.787-.513-.088-2.31-.327-2.79-1.15a3.287 3.287 0 0 1-.368-2.168c.124-.606.477-1.019 1.015-.873 2.36.623 3.236-.012 4.2-.086.398-.03.796.048 1.154.224.83.38 3.124 2.697 1.637 3.266Z" fill="#fff" fill-rule="evenodd" data-name="Path 949"/><path d="M200.35 682.482c-.447.287-.807-.625-.98-1.75-.19-1.238-.152-2.732.251-3.186.267-.274.477-.598.616-.955.18-.53-.024-.93-.098-1.67-.124-1.24 1.774 3.367 1.836 4.63.062 1.263-.69 2.323-1.625 2.931Z" fill="#fff" fill-rule="evenodd" data-name="Path 950"/><path d="M127.218 677.737c.523 1.81 2.67 5.566 5.884 5.967-.165-.928-.97-1.921-.97-1.921s-.505-1.32-.732-1.466c-1.065-.675-2.048-2.231-2.048-2.231l-2.134-.349Z" fill="#8c8c93" fill-rule="evenodd" data-name="Path 951"/><path d="M133.589 682.92a.312.312 0 0 1-.062-.094l-1.177-3.774-1.466-1.67-3.25-1.29a.349.349 0 0 1-.125-.214 4.657 4.657 0 0 1 .02-.76l3.96 1.695.88-2.06a9.165 9.165 0 0 1 .833.979.329.329 0 0 1 .06.122l-.907 2.093 1.67 4.788a1.533 1.533 0 0 1-.436.184Z" fill="#393843" fill-rule="evenodd" data-name="Path 952"/><path d="m174.697 703.454-2.688 1.564a9.143 9.143 0 0 1-.413-.654 9.2 9.2 0 0 1-.358-.676l2.688-1.563-1.59-4.127c.186.008.37.036.55.083a.37.37 0 0 1 .114.182l1.353 3.193 1.15 1.981 2.127 2.815c.051.05.086.115.1.186a2.532 2.532 0 0 1-.202.51l-2.831-3.494Z" fill="#393843" fill-rule="evenodd" data-name="Path 953"/><path d="M199.168 686.552s-.542 1.081-2.253 2.296c-.41.29-.834.555-1.273.795-2.728 1.494-5.757 2.795-6.965 3.132-.19.052-.303.019-.353-.081-.272-.528 1.193-2.9 1.67-3.488.564-.697 1.096-3.56 1.703-3.893 2.37-.82 4.37-2.348 5.206-3.012.238-.184.374-.3.408-.318.518-.238 1.212.65 1.86 1.16.171.155.377.266.6.325a.477.477 0 0 0 .423-.117c.303-.265-1.026 3.201-1.026 3.201Z" fill="#247377" fill-rule="evenodd" data-name="Path 954"/><path d="M199.168 686.552s-.124 1.99-.415 2.881a1.375 1.375 0 0 1-.132.303c-.064.1-.126.191-.19.277-.37.504-.772.83-1.605 1.468a37.235 37.235 0 0 1-4.695 3.082c-1.776.935-4.745 1.897-4.222.809a5.512 5.512 0 0 0 .41-2.194c0-.288-.014-.477-.014-.477h.019l8.555-4.846 2.289-1.303Z" fill="#247377" fill-rule="evenodd" data-name="Path 955"/><path d="M199.168 686.552s-.124 1.99-.415 2.881a1.378 1.378 0 0 1-.132.303 4.56 4.56 0 0 1-.19.277l-1.411.06-.105-1.225-.024-.277s0-.315-.012-.716c0-.606 0-1.415.012-1.694.03-.478 1.23-2.975 1.23-2.975l1.047-.035c.375.298.73.477 1.024.207.294-.27-1.024 3.194-1.024 3.194Z" fill="#247377" fill-rule="evenodd" data-name="Path 956"/><path d="M198.753 689.433a1.377 1.377 0 0 1-.132.303c-.437.678-.82.998-1.795 1.745a37.225 37.225 0 0 1-4.695 3.082c-1.776.935-4.745 1.897-4.222.809a5.512 5.512 0 0 0 .41-2.194c4.807-1.506 8.572-4.607 8.572-4.607s1.064.724 1.862.862Z" fill="#9bd8db" fill-rule="evenodd" data-name="Path 957"/><path d="M199.77 683.468s-1.519-.16-2.034-.477a5.949 5.949 0 0 1-.836-.7c.239-.183.375-.3.408-.317.518-.239 1.213.65 1.86 1.16.17.158.377.272.601.334Z" fill="#247377" fill-rule="evenodd" data-name="Path 958"/><path d="M185.887 687.79c-.683.414-1.926.781-3.89.266-1.533-.401-1.287-.64-1.309-1.318.124-.606.477-1.019 1.015-.873 2.36.623 3.236-.012 4.2-.086.203.658.447 1.73-.016 2.012Z" fill="#dbd6d9" fill-rule="evenodd" data-name="Path 959"/><path d="M199.903 683.817c-.408 1.176-4.857 5.07-10.44 6.444.182-.4.467-.745.826-1 .324-.238 2.625-.885 4.823-2.224a36.779 36.779 0 0 0 4.498-3.407l.293.187Z" fill="#dbd6d9" fill-rule="evenodd" data-name="Path 960"/><path d="M200.237 679.618a2.404 2.404 0 0 1-.866 1.11c-.191-1.239-.153-2.733.25-3.187.267-.274.477-.598.616-.954.058 1.243.301 2.012 0 3.031Z" fill="#dbd6d9" fill-rule="evenodd" data-name="Path 961"/><path d="M153.097 690.949s8.643 5.573 10.14 6.134c1.497.561 2.432.404 2.652.511.22.108-13.527-7.387-16.336-10.223-2.81-2.836.532 1.656 3.544 3.578Z" fill="#9bd8db" fill-rule="evenodd" data-name="Path 962"/><path d="M133.87 664.06c-1.46-1.098 8.918 17.919 10.243 20.05.367.59 1.726.511 1.726.511s.99.773-.478-1.477c-1.468-2.251-3.034-7.622-3.365-8.694-.332-1.071-3.99-7.275-8.126-10.39Z" fill="#9bd8db" fill-rule="evenodd" data-name="Path 963"/><path d="M126.662 652.884c.728.399.136 2.556.888 3.246s1.63 1.4 1.238 2.058c-.391.659-1.143 1.22-1.016 1.816.126.597-.189.662-.189.662s-.752-1.815-.88-2.53c-.13-.717-.177-3.746-.041-5.252Z" fill="#247377" fill-rule="evenodd" data-name="Path 964"/><path d="M172.608 651.497c1.299 1.738 1.52 1.91.112 2.807-1.408.898-4.454 2.626-5.034 2.626-.58 0-1.09-.666-1.91-1.683-.23-.303 6.832-3.75 6.832-3.75Z" fill="#2d2c37" fill-rule="evenodd" data-name="Path 965"/><path d="M159.509 647.089c-2.094 1.21-5.49 1.193-7.605-.012-2.115-1.206-2.117-3.182-.024-4.392 2.093-1.21 5.49-1.194 7.605.014s2.129 3.182.024 4.39Z" fill="#247377" fill-rule="evenodd" data-name="Path 966"/><path d="M159.554 596.64c-1.895-.79-4.366-.513-7.07 1.05-5.968 3.45-10.82 11.804-10.82 18.66 0 9.332 10.82 19.947 10.82 19.947l3.217 1.59 7.14-39.624-3.287-1.623Z" fill="#247377" fill-rule="evenodd" data-name="Path 967"/><path d="M155.694 599.29c5.968-3.45 10.818-.69 10.818 6.168 0 9.33-10.818 32.438-10.818 32.438s-10.817-10.614-10.817-19.945c0-6.858 4.84-15.212 10.817-18.661Z" fill="#9bd8db" fill-rule="evenodd" data-name="Path 968"/><path d="M150.51 616.77c0 3.971 2.804 5.57 6.266 3.58 3.46-1.99 6.27-6.85 6.27-10.815s-2.807-5.574-6.268-3.58c-3.461 1.992-6.268 6.843-6.268 10.814Z" fill="#fcfbfa" fill-rule="evenodd" data-name="Path 969"/><path d="M145.734 618.311c0-6.697 4.73-14.856 10.567-18.226 5.774-3.342 10.101-.888 10.201 5.652v-.28c0-6.857-4.84-9.616-10.817-6.167s-10.818 11.803-10.818 18.661c0 9.33 10.818 19.945 10.818 19.945s-9.951-10.471-9.951-19.585Z" fill="#247377" fill-rule="evenodd" data-name="Path 970"/></g></g></g></svg>