<svg xmlns="http://www.w3.org/2000/svg" width="518.86" height="340.563" viewBox="0.303 80.61 518.86 340.563"><g data-name="Group 14"><g data-name="7184625_Mesa de trabajo 1"><g data-name="Background Complete"><path d="M404.414 133.753c6.047 0 107.859.664 114.258.459.459 0 .705-.688.246-.91-4.031-1.999-8.603-1.638-12.799-3.015-2.458-.82-3.982-2.458-5.735-4.293a11.823 11.823 0 0 0-5.293-3.458 11.2 11.2 0 0 0-5.735-.18c-2.065.492-3.86 1.639-5.834 2.458-4.916 1.844-9.644.09-13.11-3.531-2.876-2.983-5.735-5.793-9.627-7.375a12.774 12.774 0 0 0-10.201-.147c-3.728 1.696-6.292 5.096-9.832 7.145-4.162 2.458-9.136 1.851-13.724 2.589-4.589.737-8.12 4.596-12.143 6.825a8.595 8.595 0 0 1-4.392 1.36 27.036 27.036 0 0 1-2.679-.377c-1.385-.172-2.704-.13-3.63 1.024-.245.23-.164 1.426.23 1.426Z" fill="#fff" fill-rule="evenodd" data-name="Path 96"/><path d="M202.117 206.913c6.055 0 107.859.672 114.258.467.459 0 .704-.689.246-.918-4.032-2-8.604-1.598-12.799-3.007-2.458-.82-3.982-2.458-5.686-4.293a11.757 11.757 0 0 0-5.301-3.458 11.111 11.111 0 0 0-5.735-.18c-2.065.491-3.86 1.638-5.834 2.458-4.916 1.843-9.644.09-13.11-3.532-2.876-2.982-5.735-5.792-9.627-7.374a12.75 12.75 0 0 0-10.267-.237c-3.736 1.688-6.3 5.088-9.832 7.136-4.154 2.458-9.127 1.86-13.724 2.59-4.596.729-8.12 4.604-12.143 6.825a8.595 8.595 0 0 1-4.391 1.36 24.78 24.78 0 0 1-2.68-.377c-1.384-.172-2.695-.131-3.63 1.024-.188.287-.139 1.516.255 1.516Z" fill="#fff" fill-rule="evenodd" data-name="Path 97"/><path d="M129.334 134.925c4.425 0 78.748.483 83.418.336a.369.369 0 0 0 .188-.672c-2.95-1.45-6.284-1.164-9.348-2.196-1.803-.606-2.91-1.778-4.154-3.13a8.587 8.587 0 0 0-3.868-2.524 8.07 8.07 0 0 0-4.211-.13c-1.508.352-2.819 1.22-4.26 1.761-3.565 1.352-7.04.066-9.587-2.573-2.106-2.18-4.17-4.236-7.03-5.407a9.308 9.308 0 0 0-7.448-.099c-2.72 1.23-4.597 3.72-7.153 5.211-3.04 1.778-6.67 1.352-10.02 1.893-3.352.54-5.933 3.36-8.866 4.982-.96.616-2.071.96-3.212.991a19.58 19.58 0 0 1-1.95-.27 2.663 2.663 0 0 0-2.655.745c-.163.205-.13 1.082.156 1.082Z" fill="#fff" fill-rule="evenodd" data-name="Path 98"/><path d="M286.337 97.333c4.417 0 78.748.492 83.418.344.336 0 .517-.508.189-.672-2.95-1.458-6.293-1.163-9.349-2.196-1.803-.606-2.909-1.786-4.154-3.138a8.726 8.726 0 0 0-3.867-2.523 8.25 8.25 0 0 0-4.212-.131c-1.507.36-2.818 1.22-4.26 1.77-3.573 1.343-7.039.065-9.587-2.573-2.106-2.18-4.17-4.236-7.03-5.408a9.34 9.34 0 0 0-7.448-.106c-2.72 1.237-4.596 3.72-7.153 5.219-3.04 1.77-6.67 1.352-10.02 1.884-3.351.533-5.932 3.36-8.866 4.99a6.35 6.35 0 0 1-3.211.992 19.6 19.6 0 0 1-1.95-.28c-1.016-.122-1.975-.097-2.655.747-.164.213-.131 1.081.155 1.081Z" fill="#fff" fill-rule="evenodd" data-name="Path 99"/><path d="M333.942 172.91c.114.32 153.66 0 151.726 0-.884 0 1.336-1.328.476-1.754-4.998-2.458-10.463-2.548-15.912-3.048-3.17-.286-6.44-.753-9.291-2.253-2.852-1.5-4.704-4.146-6.752-6.555a28.85 28.85 0 0 0-26.219-9.93c-10.914 1.704-19.525 10.029-30.455 11.553-6.555.926-12.79-1.639-19.206-2.516-5.293-.737-9.693.295-14.42 2.639-3.466 1.712-6.67 3.162-10.578 3.433-3.007.213-6.03-.131-9.013-.164a20.238 20.238 0 0 0-13.339 5.317c-.483.426-2.032 3.278 2.983 3.278Z" fill="#fff" fill-rule="evenodd" data-name="Path 100"/><path d="M53.892 194.32c.115.327 153.669 0 151.727 0-.885 0 1.343-1.328.475-1.754-4.998-2.458-10.463-2.548-15.904-3.048-3.179-.287-6.44-.754-9.3-2.253-2.859-1.5-4.694-4.146-6.75-6.555a28.866 28.866 0 0 0-26.22-9.93c-10.922 1.704-19.525 10.028-30.463 11.552-6.555.926-12.782-1.638-19.206-2.515-5.284-.738-9.692.295-14.42 2.638-3.466 1.713-6.661 3.163-10.578 3.433-3.007.213-6.03-.13-9.013-.164a20.172 20.172 0 0 0-13.298 5.318c-.516.401-2.065 3.277 2.95 3.277Z" fill="#fff" fill-rule="evenodd" data-name="Path 101"/><path d="M519.163 297.14s-87.252-30.423-112.922-30.423c-19.034 0-166.14 30.422-166.14 30.422h279.062Z" fill="#ebebeb" fill-rule="evenodd" data-name="Path 103"/><path d="M221.904 223.177v73.962h149.343v-60.271h-12.954v15.74h-3.335V225.11H338.48v26.097h-2.18v-33.102h-14.314v9.087h-7.341v11.307h-2.229v-7.112h-13.01v21.212h-3.81V235.36H283.69v-13.11h-8.095v-7.455h-9.365v33.093h-3.147v-13.814h-15.428v19.77h-2.13v-16.132h-15.642v-14.535h-7.98Z" fill="#ebebeb" fill-rule="evenodd" data-name="Path 104"/><path d="M369.665 241.858h-2.196v-3.007h2.196v3.007z" fill="#fff" fill-rule="evenodd" data-name="Rectangle 4"/><path d="M365.863 241.858h-2.195v-3.007h2.195v3.007z" fill="#fff" fill-rule="evenodd" data-name="Rectangle 5"/><path d="M362.062 241.858h-2.196v-3.007h2.196v3.007z" fill="#fff" fill-rule="evenodd" data-name="Rectangle 6"/><path d="M369.665 246.38h-2.196v-3.006h2.196v3.007z" fill="#fff" fill-rule="evenodd" data-name="Rectangle 7"/><path d="M365.863 246.38h-2.195v-3.006h2.195v3.007z" fill="#fff" fill-rule="evenodd" data-name="Rectangle 8"/><path d="M362.062 246.38h-2.196v-3.006h2.196v3.007z" fill="#fff" fill-rule="evenodd" data-name="Rectangle 9"/><path d="M369.665 250.912h-2.196v-3.007h2.196v3.007z" fill="#fff" fill-rule="evenodd" data-name="Rectangle 10"/><path d="M365.863 250.912h-2.195v-3.007h2.195v3.007z" fill="#fff" fill-rule="evenodd" data-name="Rectangle 11"/><path d="M362.062 250.912h-2.196v-3.007h2.196v3.007z" fill="#fff" fill-rule="evenodd" data-name="Rectangle 12"/><path d="M369.665 255.443h-2.196v-3.007h2.196v3.007z" fill="#fff" fill-rule="evenodd" data-name="Rectangle 13"/><path d="M365.863 255.443h-2.195v-3.007h2.195v3.007z" fill="#fff" fill-rule="evenodd" data-name="Rectangle 14"/><path d="M362.062 255.443h-2.196v-3.007h2.196v3.007z" fill="#fff" fill-rule="evenodd" data-name="Rectangle 15"/><path d="M293.769 240.014h-2.196v-2.507h2.196v2.507z" fill="#fff" fill-rule="evenodd" data-name="Rectangle 16"/><path d="M289.967 240.014h-2.196v-2.507h2.196v2.507z" fill="#fff" fill-rule="evenodd" data-name="Rectangle 17"/><path d="M286.165 240.014h-2.195v-2.507h2.195v2.507z" fill="#fff" fill-rule="evenodd" data-name="Rectangle 18"/><path d="M293.769 243.783h-2.196v-2.507h2.196v2.507z" fill="#fff" fill-rule="evenodd" data-name="Rectangle 19"/><path d="M289.967 243.783h-2.196v-2.507h2.196v2.507z" fill="#fff" fill-rule="evenodd" data-name="Rectangle 20"/><path d="M286.165 243.783h-2.195v-2.507h2.195v2.507z" fill="#fff" fill-rule="evenodd" data-name="Rectangle 21"/><path d="M293.769 247.569h-2.196v-2.507h2.196v2.507z" fill="#fff" fill-rule="evenodd" data-name="Rectangle 22"/><path d="M289.967 247.569h-2.196v-2.507h2.196v2.507z" fill="#fff" fill-rule="evenodd" data-name="Rectangle 23"/><path d="M286.165 247.569h-2.195v-2.507h2.195v2.507z" fill="#fff" fill-rule="evenodd" data-name="Rectangle 24"/><path d="M293.769 251.346h-2.196v-2.507h2.196v2.507z" fill="#fff" fill-rule="evenodd" data-name="Rectangle 25"/><path d="M289.967 251.346h-2.196v-2.507h2.196v2.507z" fill="#fff" fill-rule="evenodd" data-name="Rectangle 26"/><path d="M286.165 251.346h-2.195v-2.507h2.195v2.507z" fill="#fff" fill-rule="evenodd" data-name="Rectangle 27"/><path d="M293.769 255.205h-2.196v-2.507h2.196v2.507z" fill="#fff" fill-rule="evenodd" data-name="Rectangle 28"/><path d="M289.967 255.205h-2.196v-2.507h2.196v2.507z" fill="#fff" fill-rule="evenodd" data-name="Rectangle 29"/><path d="M286.165 255.205h-2.195v-2.507h2.195v2.507z" fill="#fff" fill-rule="evenodd" data-name="Rectangle 30"/><path d="M293.769 259.08h-2.196v-2.507h2.196v2.508z" fill="#fff" fill-rule="evenodd" data-name="Rectangle 31"/><path d="M289.967 259.08h-2.196v-2.507h2.196v2.508z" fill="#fff" fill-rule="evenodd" data-name="Rectangle 32"/><path d="M286.165 259.08h-2.195v-2.507h2.195v2.508z" fill="#fff" fill-rule="evenodd" data-name="Rectangle 33"/><path d="M293.769 262.956h-2.196v-2.507h2.196v2.507z" fill="#fff" fill-rule="evenodd" data-name="Rectangle 34"/><path d="M289.967 262.956h-2.196v-2.507h2.196v2.507z" fill="#fff" fill-rule="evenodd" data-name="Rectangle 35"/><path d="M286.165 262.956h-2.195v-2.507h2.195v2.507z" fill="#fff" fill-rule="evenodd" data-name="Rectangle 36"/><path d="M293.769 266.823h-2.196v-2.507h2.196v2.507z" fill="#fff" fill-rule="evenodd" data-name="Rectangle 37"/><path d="M289.967 266.823h-2.196v-2.507h2.196v2.507z" fill="#fff" fill-rule="evenodd" data-name="Rectangle 38"/><path d="M286.165 266.823h-2.195v-2.507h2.195v2.507z" fill="#fff" fill-rule="evenodd" data-name="Rectangle 39"/><path d="M353.082 228.92h-12.618v-1.884h12.618v1.884z" fill="#fff" fill-rule="evenodd" data-name="Rectangle 40"/><path d="M353.082 232.566h-12.618v-1.884h12.618v1.884z" fill="#fff" fill-rule="evenodd" data-name="Rectangle 41"/><path d="M353.082 236.22h-12.618v-1.884h12.618v1.885z" fill="#fff" fill-rule="evenodd" data-name="Rectangle 42"/><path d="M353.082 239.867h-12.618v-1.885h12.618v1.885z" fill="#fff" fill-rule="evenodd" data-name="Rectangle 43"/><path d="M353.082 243.521h-12.618v-1.884h12.618v1.884z" fill="#fff" fill-rule="evenodd" data-name="Rectangle 44"/><path d="M353.082 247.167h-12.618v-1.884h12.618v1.884z" fill="#fff" fill-rule="evenodd" data-name="Rectangle 45"/><path d="M353.082 250.822h-12.618v-1.885h12.618v1.885z" fill="#fff" fill-rule="evenodd" data-name="Rectangle 46"/><path d="M353.082 254.468h-12.618v-1.885h12.618v1.885z" fill="#fff" fill-rule="evenodd" data-name="Rectangle 47"/><path d="M261.216 237.712h-11.602v-1.885h11.602v1.885z" fill="#fff" fill-rule="evenodd" data-name="Rectangle 48"/><path d="M261.216 241.358h-11.602v-1.884h11.602v1.884z" fill="#fff" fill-rule="evenodd" data-name="Rectangle 49"/><path d="M261.216 245.02h-11.602v-1.884h11.602v1.885z" fill="#fff" fill-rule="evenodd" data-name="Rectangle 50"/><path d="M261.216 248.667h-11.602v-1.885h11.602v1.885z" fill="#fff" fill-rule="evenodd" data-name="Rectangle 51"/><path d="M261.216 252.313h-11.602v-1.885h11.602v1.885z" fill="#fff" fill-rule="evenodd" data-name="Rectangle 52"/><path d="M261.216 255.967h-11.602v-1.884h11.602v1.884z" fill="#fff" fill-rule="evenodd" data-name="Rectangle 53"/><path d="M261.216 259.613h-11.602v-1.884h11.602v1.884z" fill="#fff" fill-rule="evenodd" data-name="Rectangle 54"/><path d="M261.216 263.267h-11.602v-1.884h11.602v1.884z" fill="#fff" fill-rule="evenodd" data-name="Rectangle 55"/><path d="M261.216 266.741h-11.602v-1.884h11.602v1.884z" fill="#fff" fill-rule="evenodd" data-name="Rectangle 56"/><path d="M261.216 270.2h-11.602v-1.885h11.602v1.884z" fill="#fff" fill-rule="evenodd" data-name="Rectangle 57"/><path d="M261.216 273.673h-11.602v-1.884h11.602v1.884z" fill="#fff" fill-rule="evenodd" data-name="Rectangle 58"/><path d="M261.216 277.139h-11.602v-1.885h11.602v1.885z" fill="#fff" fill-rule="evenodd" data-name="Rectangle 59"/><path d="M261.216 280.605h-11.602v-1.885h11.602v1.885z" fill="#fff" fill-rule="evenodd" data-name="Rectangle 60"/><path d="M243.109 242.12H230.85v-1.884h12.258v1.884z" fill="#fff" fill-rule="evenodd" data-name="Rectangle 61"/><path d="M243.109 245.774H230.85v-1.884h12.258v1.884z" fill="#fff" fill-rule="evenodd" data-name="Rectangle 62"/><path d="M243.109 249.42H230.85v-1.884h12.258v1.884z" fill="#fff" fill-rule="evenodd" data-name="Rectangle 63"/><path d="M243.109 253.075H230.85v-1.885h12.258v1.885z" fill="#fff" fill-rule="evenodd" data-name="Rectangle 64"/><path d="M243.109 256.72H230.85v-1.884h12.258v1.885z" fill="#fff" fill-rule="evenodd" data-name="Rectangle 65"/><path d="M243.109 260.375H230.85v-1.884h12.258v1.884z" fill="#fff" fill-rule="evenodd" data-name="Rectangle 66"/><path d="M243.109 264.021H230.85v-1.884h12.258v1.884z" fill="#fff" fill-rule="evenodd" data-name="Rectangle 67"/><path d="M243.109 267.676H230.85v-1.885h12.258v1.885z" fill="#fff" fill-rule="evenodd" data-name="Rectangle 68"/><path d="M243.109 270.945H230.85v-1.885h12.258v1.885z" fill="#fff" fill-rule="evenodd" data-name="Rectangle 69"/><path d="M243.109 274.206H230.85v-1.885h12.258v1.885z" fill="#fff" fill-rule="evenodd" data-name="Rectangle 70"/><path d="M243.109 277.475H230.85v-1.885h12.258v1.885z" fill="#fff" fill-rule="evenodd" data-name="Rectangle 71"/><path d="M308.616 234.91h-3.9v-1.82h3.9v1.82z" fill="#fff" fill-rule="evenodd" data-name="Rectangle 72"/><path d="M308.616 238.433h-3.9v-1.819h3.9v1.819z" fill="#fff" fill-rule="evenodd" data-name="Rectangle 73"/><path d="M308.616 241.964h-3.9v-1.819h3.9v1.82z" fill="#fff" fill-rule="evenodd" data-name="Rectangle 74"/><path d="M308.616 245.48h-3.9v-1.82h3.9v1.82z" fill="#fff" fill-rule="evenodd" data-name="Rectangle 75"/><path d="M308.616 249.01h-3.9v-1.818h3.9v1.819z" fill="#fff" fill-rule="evenodd" data-name="Rectangle 76"/><path d="M308.616 252.534h-3.9v-1.819h3.9v1.819z" fill="#fff" fill-rule="evenodd" data-name="Rectangle 77"/><path d="M308.616 256.065h-3.9v-1.819h3.9v1.82z" fill="#fff" fill-rule="evenodd" data-name="Rectangle 78"/><path d="M308.616 259.58h-3.9v-1.819h3.9v1.82z" fill="#fff" fill-rule="evenodd" data-name="Rectangle 79"/><path d="M303.306 234.91h-3.9v-1.82h3.9v1.82z" fill="#fff" fill-rule="evenodd" data-name="Rectangle 80"/><path d="M303.306 238.433h-3.9v-1.819h3.9v1.819z" fill="#fff" fill-rule="evenodd" data-name="Rectangle 81"/><path d="M303.306 241.964h-3.9v-1.819h3.9v1.82z" fill="#fff" fill-rule="evenodd" data-name="Rectangle 82"/><path d="M303.306 245.48h-3.9v-1.82h3.9v1.82z" fill="#fff" fill-rule="evenodd" data-name="Rectangle 83"/><path d="M303.306 249.01h-3.9v-1.818h3.9v1.819z" fill="#fff" fill-rule="evenodd" data-name="Rectangle 84"/><path d="M303.306 252.534h-3.9v-1.819h3.9v1.819z" fill="#fff" fill-rule="evenodd" data-name="Rectangle 85"/><path d="M303.306 256.065h-3.9v-1.819h3.9v1.82z" fill="#fff" fill-rule="evenodd" data-name="Rectangle 86"/><path d="M303.306 259.58h-3.9v-1.819h3.9v1.82z" fill="#fff" fill-rule="evenodd" data-name="Rectangle 87"/><path d="M334.13 222.874h-4.064v-2.868h4.064v2.868z" fill="#fff" fill-rule="evenodd" data-name="Rectangle 88"/><path d="M328.075 222.874h-4.064v-2.868h4.064v2.868z" fill="#fff" fill-rule="evenodd" data-name="Rectangle 89"/><path d="M334.13 227.085h-4.064v-2.868h4.064v2.868z" fill="#fff" fill-rule="evenodd" data-name="Rectangle 90"/><path d="M328.075 227.085h-4.064v-2.868h4.064v2.868z" fill="#fff" fill-rule="evenodd" data-name="Rectangle 91"/><path d="M334.13 231.296h-4.064v-2.867h4.064v2.867z" fill="#fff" fill-rule="evenodd" data-name="Rectangle 92"/><path d="M328.075 231.296h-4.064v-2.867h4.064v2.867z" fill="#fff" fill-rule="evenodd" data-name="Rectangle 93"/><path d="M334.13 235.5h-4.064v-2.868h4.064v2.868z" fill="#fff" fill-rule="evenodd" data-name="Rectangle 94"/><path d="M328.075 235.5h-4.064v-2.868h4.064v2.868z" fill="#fff" fill-rule="evenodd" data-name="Rectangle 95"/><path d="M334.13 239.72h-4.064v-2.868h4.064v2.867z" fill="#fff" fill-rule="evenodd" data-name="Rectangle 96"/><path d="M328.075 239.72h-4.064v-2.868h4.064v2.867z" fill="#fff" fill-rule="evenodd" data-name="Rectangle 97"/><path d="M334.13 243.923h-4.064v-2.868h4.064v2.868z" fill="#fff" fill-rule="evenodd" data-name="Rectangle 98"/><path d="M328.075 243.923h-4.064v-2.868h4.064v2.868z" fill="#fff" fill-rule="evenodd" data-name="Rectangle 99"/><path d="M334.13 248.126h-4.064v-2.868h4.064v2.868z" fill="#fff" fill-rule="evenodd" data-name="Rectangle 100"/><path d="M328.075 248.126h-4.064v-2.868h4.064v2.868z" fill="#fff" fill-rule="evenodd" data-name="Rectangle 101"/><path d="M334.13 252.337h-4.064v-2.867h4.064v2.867z" fill="#fff" fill-rule="evenodd" data-name="Rectangle 102"/><path d="M328.075 252.337h-4.064v-2.867h4.064v2.867z" fill="#fff" fill-rule="evenodd" data-name="Rectangle 103"/><path d="M320.578 231.296h-4.064v-2.867h4.064v2.867z" fill="#fff" fill-rule="evenodd" data-name="Rectangle 104"/><path d="M320.578 235.5h-4.064v-2.868h4.064v2.868z" fill="#fff" fill-rule="evenodd" data-name="Rectangle 105"/><path d="M320.578 239.72h-4.064v-2.868h4.064v2.867z" fill="#fff" fill-rule="evenodd" data-name="Rectangle 106"/><path d="M320.578 243.923h-4.064v-2.868h4.064v2.868z" fill="#fff" fill-rule="evenodd" data-name="Rectangle 107"/><path d="M320.578 248.126h-4.064v-2.868h4.064v2.868z" fill="#fff" fill-rule="evenodd" data-name="Rectangle 108"/><path d="M320.578 252.337h-4.064v-2.867h4.064v2.867z" fill="#fff" fill-rule="evenodd" data-name="Rectangle 109"/><path d="M334.13 256.5h-4.064v-2.868h4.064v2.868z" fill="#fff" fill-rule="evenodd" data-name="Rectangle 110"/><path d="M328.075 256.5h-4.064v-2.868h4.064v2.868z" fill="#fff" fill-rule="evenodd" data-name="Rectangle 111"/><path d="M320.578 256.5h-4.064v-2.868h4.064v2.868z" fill="#fff" fill-rule="evenodd" data-name="Rectangle 112"/><path d="M334.13 260.654h-4.064v-2.868h4.064v2.868z" fill="#fff" fill-rule="evenodd" data-name="Rectangle 113"/><path d="M328.075 260.654h-4.064v-2.868h4.064v2.868z" fill="#fff" fill-rule="evenodd" data-name="Rectangle 114"/><path d="M320.578 260.654h-4.064v-2.868h4.064v2.868z" fill="#fff" fill-rule="evenodd" data-name="Rectangle 115"/><path d="M334.13 264.816h-4.064v-2.868h4.064v2.868z" fill="#fff" fill-rule="evenodd" data-name="Rectangle 116"/><path d="M328.075 264.816h-4.064v-2.868h4.064v2.868z" fill="#fff" fill-rule="evenodd" data-name="Rectangle 117"/><path d="M320.578 264.816h-4.064v-2.868h4.064v2.868z" fill="#fff" fill-rule="evenodd" data-name="Rectangle 118"/><path d="M334.13 268.978h-4.064v-2.867h4.064v2.867z" fill="#fff" fill-rule="evenodd" data-name="Rectangle 119"/><path d="M328.075 268.978h-4.064v-2.867h4.064v2.867z" fill="#fff" fill-rule="evenodd" data-name="Rectangle 120"/><path d="M320.578 268.978h-4.064v-2.867h4.064v2.867z" fill="#fff" fill-rule="evenodd" data-name="Rectangle 121"/><path d="M334.13 273.132h-4.064v-2.867h4.064v2.867z" fill="#fff" fill-rule="evenodd" data-name="Rectangle 122"/><path d="M328.075 273.132h-4.064v-2.867h4.064v2.867z" fill="#fff" fill-rule="evenodd" data-name="Rectangle 123"/><path d="M320.578 273.132h-4.064v-2.867h4.064v2.867z" fill="#fff" fill-rule="evenodd" data-name="Rectangle 124"/><path d="M282.036 226.61h-2.196v-2.507h2.196v2.507z" fill="#fff" fill-rule="evenodd" data-name="Rectangle 125"/><path d="M278.234 226.61h-2.196v-2.507h2.196v2.507z" fill="#fff" fill-rule="evenodd" data-name="Rectangle 126"/><path d="M282.036 230.387h-2.196v-2.507h2.196v2.507z" fill="#fff" fill-rule="evenodd" data-name="Rectangle 127"/><path d="M278.234 230.387h-2.196v-2.507h2.196v2.507z" fill="#fff" fill-rule="evenodd" data-name="Rectangle 128"/><path d="M282.036 234.156h-2.196v-2.507h2.196v2.507z" fill="#fff" fill-rule="evenodd" data-name="Rectangle 129"/><path d="M278.234 234.156h-2.196v-2.507h2.196v2.507z" fill="#fff" fill-rule="evenodd" data-name="Rectangle 130"/><path d="M282.036 237.941h-2.196v-2.507h2.196v2.507z" fill="#fff" fill-rule="evenodd" data-name="Rectangle 131"/><path d="M278.234 237.941h-2.196v-2.507h2.196v2.507z" fill="#fff" fill-rule="evenodd" data-name="Rectangle 132"/><path d="M282.036 241.809h-2.196v-2.507h2.196v2.507z" fill="#fff" fill-rule="evenodd" data-name="Rectangle 133"/><path d="M278.234 241.809h-2.196v-2.507h2.196v2.507z" fill="#fff" fill-rule="evenodd" data-name="Rectangle 134"/><path d="M282.036 245.676h-2.196v-2.507h2.196v2.507z" fill="#fff" fill-rule="evenodd" data-name="Rectangle 135"/><path d="M278.234 245.676h-2.196v-2.507h2.196v2.507z" fill="#fff" fill-rule="evenodd" data-name="Rectangle 136"/><path d="M282.036 249.552h-2.196v-2.508h2.196v2.508z" fill="#fff" fill-rule="evenodd" data-name="Rectangle 137"/><path d="M278.234 249.552h-2.196v-2.508h2.196v2.508z" fill="#fff" fill-rule="evenodd" data-name="Rectangle 138"/><path d="M282.036 253.41h-2.196v-2.507h2.196v2.508z" fill="#fff" fill-rule="evenodd" data-name="Rectangle 139"/><path d="M278.234 253.41h-2.196v-2.507h2.196v2.508z" fill="#fff" fill-rule="evenodd" data-name="Rectangle 140"/><path d="M282.036 257.327h-2.196v-2.507h2.196v2.507z" fill="#fff" fill-rule="evenodd" data-name="Rectangle 141"/><path d="M278.234 257.327h-2.196v-2.507h2.196v2.507z" fill="#fff" fill-rule="evenodd" data-name="Rectangle 142"/><path d="M282.036 261.244h-2.196v-2.508h2.196v2.508z" fill="#fff" fill-rule="evenodd" data-name="Rectangle 143"/><path d="M278.234 261.244h-2.196v-2.508h2.196v2.508z" fill="#fff" fill-rule="evenodd" data-name="Rectangle 144"/><path d="M282.036 265.152h-2.196v-2.507h2.196v2.507z" fill="#fff" fill-rule="evenodd" data-name="Rectangle 145"/><path d="M278.234 265.152h-2.196v-2.507h2.196v2.507z" fill="#fff" fill-rule="evenodd" data-name="Rectangle 146"/><path d="M282.036 269.06h-2.196v-2.507h2.196v2.507z" fill="#fff" fill-rule="evenodd" data-name="Rectangle 147"/><path d="M278.234 269.06h-2.196v-2.507h2.196v2.507z" fill="#fff" fill-rule="evenodd" data-name="Rectangle 148"/><path d="M228.516 227.462h-2.196v-2.958h2.196v2.958z" fill="#fff" fill-rule="evenodd" data-name="Rectangle 149"/><path d="M224.706 227.462h-2.196v-2.958h2.196v2.958z" fill="#fff" fill-rule="evenodd" data-name="Rectangle 150"/><path d="M228.516 231.911h-2.196v-2.958h2.196v2.958z" fill="#fff" fill-rule="evenodd" data-name="Rectangle 151"/><path d="M224.706 231.911h-2.196v-2.958h2.196v2.958z" fill="#fff" fill-rule="evenodd" data-name="Rectangle 152"/><path d="M228.516 236.36h-2.196v-2.958h2.196v2.958z" fill="#fff" fill-rule="evenodd" data-name="Rectangle 153"/><path d="M224.706 236.36h-2.196v-2.958h2.196v2.958z" fill="#fff" fill-rule="evenodd" data-name="Rectangle 154"/><path d="M228.516 240.817h-2.196v-2.958h2.196v2.958z" fill="#fff" fill-rule="evenodd" data-name="Rectangle 155"/><path d="M224.706 240.817h-2.196v-2.958h2.196v2.958z" fill="#fff" fill-rule="evenodd" data-name="Rectangle 156"/><path d="M228.516 245.373h-2.196v-2.958h2.196v2.958z" fill="#fff" fill-rule="evenodd" data-name="Rectangle 157"/><path d="M224.706 245.373h-2.196v-2.958h2.196v2.958z" fill="#fff" fill-rule="evenodd" data-name="Rectangle 158"/><path d="M228.516 249.928h-2.196v-2.957h2.196v2.957z" fill="#fff" fill-rule="evenodd" data-name="Rectangle 159"/><path d="M224.706 249.928h-2.196v-2.957h2.196v2.957z" fill="#fff" fill-rule="evenodd" data-name="Rectangle 160"/><path d="M228.516 254.484h-2.196v-2.958h2.196v2.958z" fill="#fff" fill-rule="evenodd" data-name="Rectangle 161"/><path d="M224.706 254.484h-2.196v-2.958h2.196v2.958z" fill="#fff" fill-rule="evenodd" data-name="Rectangle 162"/><path d="M228.516 259.048h-2.196v-2.958h2.196v2.958z" fill="#fff" fill-rule="evenodd" data-name="Rectangle 163"/><path d="M224.706 259.048h-2.196v-2.958h2.196v2.958z" fill="#fff" fill-rule="evenodd" data-name="Rectangle 164"/><path d="M228.516 263.66h-2.196v-2.957h2.196v2.958z" fill="#fff" fill-rule="evenodd" data-name="Rectangle 165"/><path d="M224.706 263.66h-2.196v-2.957h2.196v2.958z" fill="#fff" fill-rule="evenodd" data-name="Rectangle 166"/><path d="M228.516 268.257h-2.196V265.3h2.196v2.958z" fill="#fff" fill-rule="evenodd" data-name="Rectangle 167"/><path d="M224.706 268.257h-2.196V265.3h2.196v2.958z" fill="#fff" fill-rule="evenodd" data-name="Rectangle 168"/><path d="M228.516 272.87h-2.196v-2.958h2.196v2.958z" fill="#fff" fill-rule="evenodd" data-name="Rectangle 169"/><path d="M224.706 272.87h-2.196v-2.958h2.196v2.958z" fill="#fff" fill-rule="evenodd" data-name="Rectangle 170"/><path d="M228.516 277.483h-2.196v-2.958h2.196v2.958z" fill="#fff" fill-rule="evenodd" data-name="Rectangle 171"/><path d="M224.706 277.483h-2.196v-2.958h2.196v2.958z" fill="#fff" fill-rule="evenodd" data-name="Rectangle 172"/><path d="M273.908 226.61h-2.196v-2.507h2.196v2.507z" fill="#fff" fill-rule="evenodd" data-name="Rectangle 173"/><path d="M270.114 226.61h-2.195v-2.507h2.195v2.507z" fill="#fff" fill-rule="evenodd" data-name="Rectangle 174"/><path d="M273.908 222.742h-2.196v-2.507h2.196v2.507z" fill="#fff" fill-rule="evenodd" data-name="Rectangle 175"/><path d="M270.114 222.742h-2.195v-2.507h2.195v2.507z" fill="#fff" fill-rule="evenodd" data-name="Rectangle 176"/><path d="M273.908 218.867h-2.196v-2.507h2.196v2.507z" fill="#fff" fill-rule="evenodd" data-name="Rectangle 177"/><path d="M270.114 218.867h-2.195v-2.507h2.195v2.507z" fill="#fff" fill-rule="evenodd" data-name="Rectangle 178"/><path d="M273.908 230.387h-2.196v-2.507h2.196v2.507z" fill="#fff" fill-rule="evenodd" data-name="Rectangle 179"/><path d="M270.114 230.387h-2.195v-2.507h2.195v2.507z" fill="#fff" fill-rule="evenodd" data-name="Rectangle 180"/><path d="M273.908 234.156h-2.196v-2.507h2.196v2.507z" fill="#fff" fill-rule="evenodd" data-name="Rectangle 181"/><path d="M270.114 234.156h-2.195v-2.507h2.195v2.507z" fill="#fff" fill-rule="evenodd" data-name="Rectangle 182"/><path d="M273.908 237.941h-2.196v-2.507h2.196v2.507z" fill="#fff" fill-rule="evenodd" data-name="Rectangle 183"/><path d="M270.114 237.941h-2.195v-2.507h2.195v2.507z" fill="#fff" fill-rule="evenodd" data-name="Rectangle 184"/><path d="M273.908 241.809h-2.196v-2.507h2.196v2.507z" fill="#fff" fill-rule="evenodd" data-name="Rectangle 185"/><path d="M270.114 241.809h-2.195v-2.507h2.195v2.507z" fill="#fff" fill-rule="evenodd" data-name="Rectangle 186"/><path d="M273.908 245.676h-2.196v-2.507h2.196v2.507z" fill="#fff" fill-rule="evenodd" data-name="Rectangle 187"/><path d="M270.114 245.676h-2.195v-2.507h2.195v2.507z" fill="#fff" fill-rule="evenodd" data-name="Rectangle 188"/><path d="M273.908 249.552h-2.196v-2.508h2.196v2.508z" fill="#fff" fill-rule="evenodd" data-name="Rectangle 189"/><path d="M270.114 249.552h-2.195v-2.508h2.195v2.508z" fill="#fff" fill-rule="evenodd" data-name="Rectangle 190"/><path d="M273.908 253.41h-2.196v-2.507h2.196v2.508z" fill="#fff" fill-rule="evenodd" data-name="Rectangle 191"/><path d="M270.114 253.41h-2.195v-2.507h2.195v2.508z" fill="#fff" fill-rule="evenodd" data-name="Rectangle 192"/><path d="M273.908 257.327h-2.196v-2.507h2.196v2.507z" fill="#fff" fill-rule="evenodd" data-name="Rectangle 193"/><path d="M270.114 257.327h-2.195v-2.507h2.195v2.507z" fill="#fff" fill-rule="evenodd" data-name="Rectangle 194"/><path d="M273.908 261.244h-2.196v-2.508h2.196v2.508z" fill="#fff" fill-rule="evenodd" data-name="Rectangle 195"/><path d="M270.114 261.244h-2.195v-2.508h2.195v2.508z" fill="#fff" fill-rule="evenodd" data-name="Rectangle 196"/><path d="M273.908 265.152h-2.196v-2.507h2.196v2.507z" fill="#fff" fill-rule="evenodd" data-name="Rectangle 197"/><path d="M270.114 265.152h-2.195v-2.507h2.195v2.507z" fill="#fff" fill-rule="evenodd" data-name="Rectangle 198"/><path d="M273.908 269.06h-2.196v-2.507h2.196v2.507z" fill="#fff" fill-rule="evenodd" data-name="Rectangle 199"/><path d="M270.114 269.06h-2.195v-2.507h2.195v2.507z" fill="#fff" fill-rule="evenodd" data-name="Rectangle 200"/><path d="M371.255 297.14H508.7v-84.967h-16.46v20h-4.236V220.85h-20.935v17.927h-2.77v-42.065h-18.197v11.544h-9.324v14.372h-2.827v-9.038H417.41v26.957h-4.834v-21.91h-15.126v-16.649h-10.29l-11.898.058v32.511h-3.998l-.008 62.582Z" fill="#ebebeb" fill-rule="evenodd" data-name="Path 105"/><path d="M506.685 218.515h-2.786v-3.827h2.786v3.827z" fill="#fff" fill-rule="evenodd" data-name="Rectangle 201"/><path d="M501.859 218.515h-2.786v-3.827h2.786v3.827z" fill="#fff" fill-rule="evenodd" data-name="Rectangle 202"/><path d="M497.025 218.515h-2.786v-3.827h2.786v3.827z" fill="#fff" fill-rule="evenodd" data-name="Rectangle 203"/><path d="M506.685 224.266h-2.786v-3.826h2.786v3.826z" fill="#fff" fill-rule="evenodd" data-name="Rectangle 204"/><path d="M501.859 224.266h-2.786v-3.826h2.786v3.826z" fill="#fff" fill-rule="evenodd" data-name="Rectangle 205"/><path d="M497.025 224.266h-2.786v-3.826h2.786v3.826z" fill="#fff" fill-rule="evenodd" data-name="Rectangle 206"/><path d="M506.685 230.018h-2.786v-3.826h2.786v3.826z" fill="#fff" fill-rule="evenodd" data-name="Rectangle 207"/><path d="M501.859 230.018h-2.786v-3.826h2.786v3.826z" fill="#fff" fill-rule="evenodd" data-name="Rectangle 208"/><path d="M497.025 230.018h-2.786v-3.826h2.786v3.826z" fill="#fff" fill-rule="evenodd" data-name="Rectangle 209"/><path d="M506.685 235.77h-2.786v-3.826h2.786v3.826z" fill="#fff" fill-rule="evenodd" data-name="Rectangle 210"/><path d="M501.859 235.77h-2.786v-3.826h2.786v3.826z" fill="#fff" fill-rule="evenodd" data-name="Rectangle 211"/><path d="M497.025 235.77h-2.786v-3.826h2.786v3.826z" fill="#fff" fill-rule="evenodd" data-name="Rectangle 212"/><path d="M410.256 224.545h-2.786v-3.187h2.786v3.187z" fill="#fff" fill-rule="evenodd" data-name="Rectangle 213"/><path d="M405.422 224.545h-2.786v-3.187h2.786v3.187z" fill="#fff" fill-rule="evenodd" data-name="Rectangle 214"/><path d="M400.596 224.545h-2.786v-3.187h2.786v3.187z" fill="#fff" fill-rule="evenodd" data-name="Rectangle 215"/><path d="M410.256 229.355h-2.786v-3.188h2.786v3.188z" fill="#fff" fill-rule="evenodd" data-name="Rectangle 216"/><path d="M405.422 229.355h-2.786v-3.188h2.786v3.188z" fill="#fff" fill-rule="evenodd" data-name="Rectangle 217"/><path d="M400.596 229.355h-2.786v-3.188h2.786v3.188z" fill="#fff" fill-rule="evenodd" data-name="Rectangle 218"/><path d="M410.256 234.148h-2.786v-3.187h2.786v3.187z" fill="#fff" fill-rule="evenodd" data-name="Rectangle 219"/><path d="M405.422 234.148h-2.786v-3.187h2.786v3.187z" fill="#fff" fill-rule="evenodd" data-name="Rectangle 220"/><path d="M400.596 234.148h-2.786v-3.187h2.786v3.187z" fill="#fff" fill-rule="evenodd" data-name="Rectangle 221"/><path d="M410.256 238.95h-2.786v-3.188h2.786v3.187z" fill="#fff" fill-rule="evenodd" data-name="Rectangle 222"/><path d="M405.422 238.95h-2.786v-3.188h2.786v3.187z" fill="#fff" fill-rule="evenodd" data-name="Rectangle 223"/><path d="M400.596 238.95h-2.786v-3.188h2.786v3.187z" fill="#fff" fill-rule="evenodd" data-name="Rectangle 224"/><path d="M410.256 243.857h-2.786v-3.187h2.786v3.187z" fill="#fff" fill-rule="evenodd" data-name="Rectangle 225"/><path d="M405.422 243.857h-2.786v-3.187h2.786v3.187z" fill="#fff" fill-rule="evenodd" data-name="Rectangle 226"/><path d="M400.596 243.857h-2.786v-3.187h2.786v3.187z" fill="#fff" fill-rule="evenodd" data-name="Rectangle 227"/><path d="M410.256 248.781h-2.786v-3.187h2.786v3.187z" fill="#fff" fill-rule="evenodd" data-name="Rectangle 228"/><path d="M405.422 248.781h-2.786v-3.187h2.786v3.187z" fill="#fff" fill-rule="evenodd" data-name="Rectangle 229"/><path d="M400.596 248.781h-2.786v-3.187h2.786v3.187z" fill="#fff" fill-rule="evenodd" data-name="Rectangle 230"/><path d="M410.256 253.697h-2.786v-3.187h2.786v3.187z" fill="#fff" fill-rule="evenodd" data-name="Rectangle 231"/><path d="M405.422 253.697h-2.786v-3.187h2.786v3.187z" fill="#fff" fill-rule="evenodd" data-name="Rectangle 232"/><path d="M400.596 253.697h-2.786v-3.187h2.786v3.187z" fill="#fff" fill-rule="evenodd" data-name="Rectangle 233"/><path d="M410.256 258.614h-2.786v-3.188h2.786v3.188z" fill="#fff" fill-rule="evenodd" data-name="Rectangle 234"/><path d="M405.422 258.614h-2.786v-3.188h2.786v3.188z" fill="#fff" fill-rule="evenodd" data-name="Rectangle 235"/><path d="M400.596 258.614h-2.786v-3.188h2.786v3.188z" fill="#fff" fill-rule="evenodd" data-name="Rectangle 236"/><path d="M485.628 225.7h-16.035v-2.392h16.035v2.392z" fill="#fff" fill-rule="evenodd" data-name="Rectangle 237"/><path d="M485.628 230.33h-16.035v-2.393h16.035v2.393z" fill="#fff" fill-rule="evenodd" data-name="Rectangle 238"/><path d="M485.628 234.967h-16.035v-2.392h16.035v2.392z" fill="#fff" fill-rule="evenodd" data-name="Rectangle 239"/><path d="M485.628 239.605h-16.035v-2.393h16.035v2.393z" fill="#fff" fill-rule="evenodd" data-name="Rectangle 240"/><path d="M485.628 244.25h-16.035v-2.392h16.035v2.392z" fill="#fff" fill-rule="evenodd" data-name="Rectangle 241"/><path d="M485.628 248.888h-16.035v-2.393h16.035v2.393z" fill="#fff" fill-rule="evenodd" data-name="Rectangle 242"/><path d="M485.628 253.525h-16.035v-2.392h16.035v2.392z" fill="#fff" fill-rule="evenodd" data-name="Rectangle 243"/><path d="M485.628 258.163h-16.035v-2.393h16.035v2.393z" fill="#fff" fill-rule="evenodd" data-name="Rectangle 244"/><path d="M429.117 218.064h-4.949v-2.31h4.95v2.31z" fill="#fff" fill-rule="evenodd" data-name="Rectangle 245"/><path d="M429.117 222.538h-4.949v-2.31h4.95v2.31z" fill="#fff" fill-rule="evenodd" data-name="Rectangle 246"/><path d="M429.117 227.028h-4.949v-2.31h4.95v2.31z" fill="#fff" fill-rule="evenodd" data-name="Rectangle 247"/><path d="M429.117 231.501h-4.949v-2.31h4.95v2.31z" fill="#fff" fill-rule="evenodd" data-name="Rectangle 248"/><path d="M429.117 235.983h-4.949v-2.31h4.95v2.31z" fill="#fff" fill-rule="evenodd" data-name="Rectangle 249"/><path d="M429.117 240.457h-4.949v-2.31h4.95v2.31z" fill="#fff" fill-rule="evenodd" data-name="Rectangle 250"/><path d="M429.117 244.939h-4.949v-2.31h4.95v2.31z" fill="#fff" fill-rule="evenodd" data-name="Rectangle 251"/><path d="M429.117 249.42h-4.949v-2.31h4.95v2.31z" fill="#fff" fill-rule="evenodd" data-name="Rectangle 252"/><path d="M422.374 218.064h-4.949v-2.31h4.949v2.31z" fill="#fff" fill-rule="evenodd" data-name="Rectangle 253"/><path d="M422.374 222.538h-4.949v-2.31h4.949v2.31z" fill="#fff" fill-rule="evenodd" data-name="Rectangle 254"/><path d="M422.374 227.028h-4.949v-2.31h4.949v2.31z" fill="#fff" fill-rule="evenodd" data-name="Rectangle 255"/><path d="M422.374 231.501h-4.949v-2.31h4.949v2.31z" fill="#fff" fill-rule="evenodd" data-name="Rectangle 256"/><path d="M422.374 235.983h-4.949v-2.31h4.949v2.31z" fill="#fff" fill-rule="evenodd" data-name="Rectangle 257"/><path d="M422.374 240.457h-4.949v-2.31h4.949v2.31z" fill="#fff" fill-rule="evenodd" data-name="Rectangle 258"/><path d="M422.374 244.939h-4.949v-2.31h4.949v2.31z" fill="#fff" fill-rule="evenodd" data-name="Rectangle 259"/><path d="M422.374 249.42h-4.949v-2.31h4.949v2.31z" fill="#fff" fill-rule="evenodd" data-name="Rectangle 260"/><path d="M461.539 202.775h-5.162v-3.638h5.162v3.638z" fill="#fff" fill-rule="evenodd" data-name="Rectangle 261"/><path d="M453.845 202.775h-5.162v-3.638h5.162v3.638z" fill="#fff" fill-rule="evenodd" data-name="Rectangle 262"/><path d="M461.539 208.125h-5.162v-3.638h5.162v3.638z" fill="#fff" fill-rule="evenodd" data-name="Rectangle 263"/><path d="M453.845 208.125h-5.162v-3.638h5.162v3.638z" fill="#fff" fill-rule="evenodd" data-name="Rectangle 264"/><path d="M461.539 213.476h-5.162v-3.638h5.162v3.638z" fill="#fff" fill-rule="evenodd" data-name="Rectangle 265"/><path d="M453.845 213.476h-5.162v-3.638h5.162v3.638z" fill="#fff" fill-rule="evenodd" data-name="Rectangle 266"/><path d="M461.539 218.818h-5.162v-3.638h5.162v3.638z" fill="#fff" fill-rule="evenodd" data-name="Rectangle 267"/><path d="M453.845 218.818h-5.162v-3.638h5.162v3.638z" fill="#fff" fill-rule="evenodd" data-name="Rectangle 268"/><path d="M461.539 224.168h-5.162v-3.638h5.162v3.638z" fill="#fff" fill-rule="evenodd" data-name="Rectangle 269"/><path d="M453.845 224.168h-5.162v-3.638h5.162v3.638z" fill="#fff" fill-rule="evenodd" data-name="Rectangle 270"/><path d="M461.539 229.519h-5.162v-3.638h5.162v3.638z" fill="#fff" fill-rule="evenodd" data-name="Rectangle 271"/><path d="M453.845 229.519h-5.162v-3.638h5.162v3.638z" fill="#fff" fill-rule="evenodd" data-name="Rectangle 272"/><path d="M461.539 234.869h-5.162v-3.638h5.162v3.638z" fill="#fff" fill-rule="evenodd" data-name="Rectangle 273"/><path d="M453.845 234.869h-5.162v-3.638h5.162v3.638z" fill="#fff" fill-rule="evenodd" data-name="Rectangle 274"/><path d="M461.539 240.211h-5.162v-3.638h5.162v3.638z" fill="#fff" fill-rule="evenodd" data-name="Rectangle 275"/><path d="M453.845 240.211h-5.162v-3.638h5.162v3.638z" fill="#fff" fill-rule="evenodd" data-name="Rectangle 276"/><path d="M444.316 213.476h-5.162v-3.638h5.162v3.638z" fill="#fff" fill-rule="evenodd" data-name="Rectangle 277"/><path d="M444.316 218.818h-5.162v-3.638h5.162v3.638z" fill="#fff" fill-rule="evenodd" data-name="Rectangle 278"/><path d="M444.316 224.168h-5.162v-3.638h5.162v3.638z" fill="#fff" fill-rule="evenodd" data-name="Rectangle 279"/><path d="M444.316 229.519h-5.162v-3.638h5.162v3.638z" fill="#fff" fill-rule="evenodd" data-name="Rectangle 280"/><path d="M444.316 234.869h-5.162v-3.638h5.162v3.638z" fill="#fff" fill-rule="evenodd" data-name="Rectangle 281"/><path d="M444.316 240.211h-5.162v-3.638h5.162v3.638z" fill="#fff" fill-rule="evenodd" data-name="Rectangle 282"/><path d="M461.539 245.496h-5.162v-3.638h5.162v3.638z" fill="#fff" fill-rule="evenodd" data-name="Rectangle 283"/><path d="M453.845 245.496h-5.162v-3.638h5.162v3.638z" fill="#fff" fill-rule="evenodd" data-name="Rectangle 284"/><path d="M444.316 245.496h-5.162v-3.638h5.162v3.638z" fill="#fff" fill-rule="evenodd" data-name="Rectangle 285"/><path d="M461.539 250.78h-5.162v-3.637h5.162v3.638z" fill="#fff" fill-rule="evenodd" data-name="Rectangle 286"/><path d="M453.845 250.78h-5.162v-3.637h5.162v3.638z" fill="#fff" fill-rule="evenodd" data-name="Rectangle 287"/><path d="M444.316 250.78h-5.162v-3.637h5.162v3.638z" fill="#fff" fill-rule="evenodd" data-name="Rectangle 288"/><path d="M461.539 256.065h-5.162v-3.638h5.162v3.638z" fill="#fff" fill-rule="evenodd" data-name="Rectangle 289"/><path d="M453.845 256.065h-5.162v-3.638h5.162v3.638z" fill="#fff" fill-rule="evenodd" data-name="Rectangle 290"/><path d="M444.316 256.065h-5.162v-3.638h5.162v3.638z" fill="#fff" fill-rule="evenodd" data-name="Rectangle 291"/><path d="M461.539 261.35h-5.162v-3.638h5.162v3.638z" fill="#fff" fill-rule="evenodd" data-name="Rectangle 292"/><path d="M453.845 261.35h-5.162v-3.638h5.162v3.638z" fill="#fff" fill-rule="evenodd" data-name="Rectangle 293"/><path d="M444.316 261.35h-5.162v-3.638h5.162v3.638z" fill="#fff" fill-rule="evenodd" data-name="Rectangle 294"/><path d="M461.539 266.635h-5.162v-3.638h5.162v3.638z" fill="#fff" fill-rule="evenodd" data-name="Rectangle 295"/><path d="M453.845 266.635h-5.162v-3.638h5.162v3.638z" fill="#fff" fill-rule="evenodd" data-name="Rectangle 296"/><path d="M444.316 266.635h-5.162v-3.638h5.162v3.638z" fill="#fff" fill-rule="evenodd" data-name="Rectangle 297"/><path d="M395.344 207.519h-2.786v-3.187h2.786v3.187z" fill="#fff" fill-rule="evenodd" data-name="Rectangle 298"/><path d="M390.518 207.519h-2.786v-3.187h2.786v3.187z" fill="#fff" fill-rule="evenodd" data-name="Rectangle 299"/><path d="M395.344 212.312h-2.786v-3.187h2.786v3.187z" fill="#fff" fill-rule="evenodd" data-name="Rectangle 300"/><path d="M390.518 212.312h-2.786v-3.187h2.786v3.187z" fill="#fff" fill-rule="evenodd" data-name="Rectangle 301"/><path d="M395.344 217.122h-2.786v-3.188h2.786v3.188z" fill="#fff" fill-rule="evenodd" data-name="Rectangle 302"/><path d="M390.518 217.122h-2.786v-3.188h2.786v3.188z" fill="#fff" fill-rule="evenodd" data-name="Rectangle 303"/><path d="M395.344 221.915h-2.786v-3.187h2.786v3.187z" fill="#fff" fill-rule="evenodd" data-name="Rectangle 304"/><path d="M390.518 221.915h-2.786v-3.187h2.786v3.187z" fill="#fff" fill-rule="evenodd" data-name="Rectangle 305"/><path d="M395.344 226.831h-2.786v-3.187h2.786v3.187z" fill="#fff" fill-rule="evenodd" data-name="Rectangle 306"/><path d="M390.518 226.831h-2.786v-3.187h2.786v3.187z" fill="#fff" fill-rule="evenodd" data-name="Rectangle 307"/><path d="M395.344 231.747h-2.786v-3.187h2.786v3.187z" fill="#fff" fill-rule="evenodd" data-name="Rectangle 308"/><path d="M390.518 231.747h-2.786v-3.187h2.786v3.187z" fill="#fff" fill-rule="evenodd" data-name="Rectangle 309"/><path d="M395.344 236.671h-2.786v-3.187h2.786v3.187z" fill="#fff" fill-rule="evenodd" data-name="Rectangle 310"/><path d="M390.518 236.671h-2.786v-3.187h2.786v3.187z" fill="#fff" fill-rule="evenodd" data-name="Rectangle 311"/><path d="M395.344 241.587h-2.786V238.4h2.786v3.187z" fill="#fff" fill-rule="evenodd" data-name="Rectangle 312"/><path d="M390.518 241.587h-2.786V238.4h2.786v3.187z" fill="#fff" fill-rule="evenodd" data-name="Rectangle 313"/><path d="M395.344 246.553h-2.786v-3.188h2.786v3.188z" fill="#fff" fill-rule="evenodd" data-name="Rectangle 314"/><path d="M390.518 246.553h-2.786v-3.188h2.786v3.188z" fill="#fff" fill-rule="evenodd" data-name="Rectangle 315"/><path d="M395.344 251.526h-2.786v-3.187h2.786v3.187z" fill="#fff" fill-rule="evenodd" data-name="Rectangle 316"/><path d="M390.518 251.526h-2.786v-3.187h2.786v3.187z" fill="#fff" fill-rule="evenodd" data-name="Rectangle 317"/><path d="M395.344 256.491h-2.786v-3.187h2.786v3.187z" fill="#fff" fill-rule="evenodd" data-name="Rectangle 318"/><path d="M390.518 256.491h-2.786v-3.187h2.786v3.187z" fill="#fff" fill-rule="evenodd" data-name="Rectangle 319"/><path d="M395.344 261.465h-2.786v-3.187h2.786v3.187z" fill="#fff" fill-rule="evenodd" data-name="Rectangle 320"/><path d="M390.518 261.465h-2.786v-3.187h2.786v3.187z" fill="#fff" fill-rule="evenodd" data-name="Rectangle 321"/><path d="M385.02 207.519h-2.786v-3.187h2.786v3.187z" fill="#fff" fill-rule="evenodd" data-name="Rectangle 322"/><path d="M380.194 207.519h-2.786v-3.187h2.786v3.187z" fill="#fff" fill-rule="evenodd" data-name="Rectangle 323"/><path d="M385.02 212.312h-2.786v-3.187h2.786v3.187z" fill="#fff" fill-rule="evenodd" data-name="Rectangle 324"/><path d="M380.194 212.312h-2.786v-3.187h2.786v3.187z" fill="#fff" fill-rule="evenodd" data-name="Rectangle 325"/><path d="M385.02 217.122h-2.786v-3.188h2.786v3.188z" fill="#fff" fill-rule="evenodd" data-name="Rectangle 326"/><path d="M380.194 217.122h-2.786v-3.188h2.786v3.188z" fill="#fff" fill-rule="evenodd" data-name="Rectangle 327"/><path d="M385.02 221.915h-2.786v-3.187h2.786v3.187z" fill="#fff" fill-rule="evenodd" data-name="Rectangle 328"/><path d="M380.194 221.915h-2.786v-3.187h2.786v3.187z" fill="#fff" fill-rule="evenodd" data-name="Rectangle 329"/><path d="M385.02 226.831h-2.786v-3.187h2.786v3.187z" fill="#fff" fill-rule="evenodd" data-name="Rectangle 330"/><path d="M380.194 226.831h-2.786v-3.187h2.786v3.187z" fill="#fff" fill-rule="evenodd" data-name="Rectangle 331"/><path d="M385.02 231.747h-2.786v-3.187h2.786v3.187z" fill="#fff" fill-rule="evenodd" data-name="Rectangle 332"/><path d="M380.194 231.747h-2.786v-3.187h2.786v3.187z" fill="#fff" fill-rule="evenodd" data-name="Rectangle 333"/><path d="M385.02 236.671h-2.786v-3.187h2.786v3.187z" fill="#fff" fill-rule="evenodd" data-name="Rectangle 334"/><path d="M380.194 236.671h-2.786v-3.187h2.786v3.187z" fill="#fff" fill-rule="evenodd" data-name="Rectangle 335"/><path d="M385.02 241.587h-2.786V238.4h2.786v3.187z" fill="#fff" fill-rule="evenodd" data-name="Rectangle 336"/><path d="M380.194 241.587h-2.786V238.4h2.786v3.187z" fill="#fff" fill-rule="evenodd" data-name="Rectangle 337"/><path d="M385.02 246.553h-2.786v-3.188h2.786v3.188z" fill="#fff" fill-rule="evenodd" data-name="Rectangle 338"/><path d="M380.194 246.553h-2.786v-3.188h2.786v3.188z" fill="#fff" fill-rule="evenodd" data-name="Rectangle 339"/><path d="M385.02 251.526h-2.786v-3.187h2.786v3.187z" fill="#fff" fill-rule="evenodd" data-name="Rectangle 340"/><path d="M380.194 251.526h-2.786v-3.187h2.786v3.187z" fill="#fff" fill-rule="evenodd" data-name="Rectangle 341"/><path d="M385.02 256.491h-2.786v-3.187h2.786v3.187z" fill="#fff" fill-rule="evenodd" data-name="Rectangle 342"/><path d="M380.194 256.491h-2.786v-3.187h2.786v3.187z" fill="#fff" fill-rule="evenodd" data-name="Rectangle 343"/><path d="M385.02 261.465h-2.786v-3.187h2.786v3.187z" fill="#fff" fill-rule="evenodd" data-name="Rectangle 344"/><path d="M380.194 261.465h-2.786v-3.187h2.786v3.187z" fill="#fff" fill-rule="evenodd" data-name="Rectangle 345"/><path d="M.303 297.14c166.205-.5 352.656-.5 518.86 0-166.204.507-352.655.507-518.86 0Z" fill="#dbdbdb" fill-rule="evenodd" data-name="Path 106"/></g><g data-name="Car"><path d="M199.249 376.501H84.459s12.576-53.626 57.354-53.626c44.777 0 55.461 41.647 57.436 53.626Z" fill="#5924ff" fill-rule="evenodd" data-name="Path 108"/><path d="M199.249 376.501H84.459s12.576-53.626 57.354-53.626c44.777 0 55.461 41.647 57.436 53.626Z" fill="#247377" fill-rule="evenodd" data-name="Path 109"/><path d="M505.538 370.709H390.763s12.57-53.594 57.42-53.594c44.851 0 55.388 41.623 57.355 53.594Z" fill="#5924ff" fill-rule="evenodd" data-name="Path 110"/><path d="M505.538 370.709H390.763s12.57-53.594 57.42-53.594c44.851 0 55.388 41.623 57.355 53.594Z" fill="#247377" fill-rule="evenodd" data-name="Path 111"/><path d="M501.482 272.518c2.458 3.908 12.946 47.35 13.191 48.858.246 1.507 3.835 8.103 3.892 9.357.058 1.253.943 20.664.443 21.917a53.381 53.381 0 0 1-3.958 6.596c-.622.754-2.58 14.748-4.4 14.945-1.819.196-8.808.311-9.127 0-.32-.312-2.261-52.16-53.34-52.16-51.078 0-50.488 55.02-51.43 55.208-.942.188-202.568 5.424-202.568 5.424 0-8.415-.663-58.534-50.742-58.534-32.626 0-49.111 26.899-49.677 46.702-.237 8.26 1.147 17.33.688 17.33-1.507 0-6.653.377-7.53 0-.876-.377-11.56-7.374-12.437-7.661-.877-.287-3.458-.377-4.965-.754-1.508-.377-12.053-9.603-12.241-9.98-.189-.377-.508-4.023-.566-4.334-.057-.311-3.58-13.38-4.096-14.822-.517-1.442-.689-13.38-.689-14.568 0-1.188 12.25-29.972 16.772-33.364 4.523-3.392 33.16-17.378 42.606-19.074 9.448-1.696 61.23-9.423 63.09-10.742 1.86-1.32 90.251-52.004 105.655-55.707 12.438-3.016 129.53 1.13 137.069 1.507 7.538.377 51.996 7.186 53.38 7.809 1.385.622 0 6.153-1.761 7.16 0-.024 28.464 32.103 32.74 38.887Z" fill="#9bd8db" fill-rule="evenodd" data-name="Path 112"/><path d="M157.233 325.612c36.379 8.316 36.87 49.505 36.87 57.059 0 0 201.691-5.211 202.633-5.408.762-.155.533-36.223 27.498-49.98-12.11 5.99-27.637 20.484-33.512 41.689-.639 2.253-7.079 5.8-63.974 7.611-56.896 1.811-106.335.664-115.717-.647-9.381-1.31-20.36-50.472-53.798-50.324Z" fill-rule="evenodd" data-name="Path 113"/><path d="M465.39 269.027c-2.458 7.26-273.36 20.828-274.99 17.305-1.213-2.597 25.4-23.99 37.87-30.955 12.47-6.964 48.039-27.128 65.548-29.201 17.51-2.073 53.061-1.893 84.024-1.32 30.71.566 40.042 1.32 52.856 6.776 11.225 4.794 36.617 31.627 34.692 37.395Z" fill="#263238" fill-rule="evenodd" data-name="Path 114"/><path d="M457.065 264.8c-.754 2.72-39.673 8.455-116.724 12.036-77.052 3.58-115.11 5.481-116.053 5.104-.942-.377 2.639-20.91 3.958-22.605 1.319-1.696 56.535-29.956 65.187-30.71 8.652-.753 55.478-.32 79.125-.475 29.291-.18 46.071 3.204 54.453 6.596 7.375 2.982 30.808 27.317 30.054 30.054Z" fill="#37474f" fill-rule="evenodd" data-name="Path 115"/><g data-name="Group 7"><path d="m384.979 228.306 42.204 42.204c9.53-1.081 16.78-2.146 21.762-3.105l-36.55-36.543a193.426 193.426 0 0 0-27.416-2.556Z" fill="#fff" fill-rule="evenodd" data-name="Path 116"/><path d="M224.288 281.94c.402.164 7.727-.098 22.123-.737l-19.108-19.115c-1.58 6.03-3.777 19.55-3.015 19.852Z" fill="#fff" fill-rule="evenodd" data-name="Path 117"/><path d="m350.82 228.175 45.261 45.26 10.103-.819 1.368-.114-44.302-44.303c-3.892-.016-8.087-.016-12.43-.024Z" fill="#fff" fill-rule="evenodd" data-name="Path 118"/><path d="m245.567 249.928 29.98 29.98 11.88-.557-33.593-33.593a257.947 257.947 0 0 0-8.267 4.17Z" fill="#fff" fill-rule="evenodd" data-name="Path 119"/><path d="m422.456 233.173 32.708 32.716c1.172-.401 1.811-.762 1.901-1.09.031-.211 0-.428-.09-.622l-28.923-28.931a9.014 9.014 0 0 0-1.04-.5c-1.303-.533-2.827-1.057-4.556-1.573Z" fill="#fff" fill-rule="evenodd" data-name="Path 120"/><path d="m238.43 253.583 26.744 26.768 3.375-.164-27.808-27.858-2.31 1.254Z" fill="#fff" fill-rule="evenodd" data-name="Path 121"/><path d="m284.396 231.559 45.736 45.752-3.376.156-44.9-44.868 2.54-1.04Z" fill="#fff" fill-rule="evenodd" data-name="Path 122"/></g><path d="M375.048 229.346c-.475 1.483-1.245 45.245-1.245 46.662 0 1.418 1.598 1.746 1.598 1.746l-24.876 1.155s1.639-.45 1.893-1.205c.254-.753 8.095-47.948 8.095-48.562 0-.615-1.27-1.197-1.27-1.197h17.33a2.63 2.63 0 0 0-1.525 1.401Z" fill="#263238" fill-rule="evenodd" data-name="Path 123"/><path d="M109.49 297.606c-1.885 4.72-19.362 15.2-26.154 17.46-4.269 1.426-19.32 4.72-20.328 4.015-1.008-.704 4.703-12.52 8.103-15.698 3.4-3.18 21.36-12.741 27.137-13.323 5.776-.582 13.183 2.786 11.242 7.546Z" fill="#fff" fill-rule="evenodd" data-name="Path 124"/><path d="M63.008 319.081c1.008.705 16.06-2.589 20.336-4.014 6.776-2.262 24.261-12.741 26.154-17.469 1.892-4.728-5.44-8.12-11.25-7.521-.446.052-.89.129-1.327.229 5.645 1.278 7.374 5.522 4.53 8.53-2.842 3.006-12.412 10.462-16.386 12.29-3.835 1.794-18.436 6.505-19.886 5.62a2.884 2.884 0 0 1-.91-2.18c-1.056 2.385-1.646 4.253-1.261 4.515Z" fill="#ebebeb" fill-rule="evenodd" data-name="Path 125"/><g data-name="Group 8"><path d="m362.848 282.096 1.705 12.044.737 6.04c.106 1.015.221 2.023.295 3.039.074 1.016 0 2.032 0 3.048l-.221 24.334-.197 12.168-.098 6.088-.05 3.04-.237 3.03-.901 12.168-1.033 12.118.615-12.142.704-12.135.173-3.04v-3.04l.065-6.07.115-12.16.418-24.31c0-1.008.09-2.032 0-3.032s-.148-2.007-.238-3.015l-.615-6.047-1.237-12.126Z" fill-rule="evenodd" data-name="Path 126"/><path d="M197.143 311.88c.066 8.193.219 16.386.46 24.58.048 2.048.122 4.097.212 6.137a27.12 27.12 0 0 0 1.016 6.055c.975 3.94 2.09 7.833 3.278 11.692a94.73 94.73 0 0 0 4.236 11.29l.647 1.352c.238.435.5.869.737 1.295.241.438.515.857.82 1.253l.434.599a1.5 1.5 0 0 0 .778.278c1.786.213 3.548.238 5.318.312 14.158.327 28.308.18 42.45.073 14.142-.106 28.3-.36 42.45-.655 14.15-.295 28.293-.754 42.427-1.36 7.038-.328 13.855-.295 20.885-1.033v-.63c-7.014.704-13.856.647-20.902.958-14.134.565-28.276.91-42.434 1.213-14.158.303-28.284.622-42.426.82-14.142.196-28.292.36-42.442.073-1.762-.058-3.54-.09-5.268-.295-.197 0-.46-.09-.5-.098l-.41-.582a10.146 10.146 0 0 1-.82-1.205c-.237-.426-.483-.819-.72-1.27l-.64-1.327a96.261 96.261 0 0 1-4.244-11.209c-1.212-3.834-2.335-7.718-3.277-11.643a25.825 25.825 0 0 1-1.008-6.038l-.246-6.12c-.278-8.194-.516-16.388-.63-24.581v-3.073c.016-.488.062-.975.139-1.458l.213-1.524.82-6.055 1.695-12.086-1.77 12.119-.884 6.055-.213 1.515a9.524 9.524 0 0 0-.164 1.533c-.025.99-.017 2.015-.017 3.04Z" fill-rule="evenodd" data-name="Path 127"/><path d="M95.29 308.414a54.277 54.277 0 0 0 6.793 4.866c2.343 1.516 4.727 2.942 7.103 4.4 2.376 1.459 4.81 2.81 7.243 4.154a236.58 236.58 0 0 0 7.374 3.925c-2.318-1.548-4.678-3.023-7.046-4.49l-7.136-4.326-7.203-4.212-3.596-2.105a34.907 34.907 0 0 1-3.532-2.213Z" fill-rule="evenodd" data-name="Path 128"/><path d="m365.626 335.288-22.606.55-22.598.622-45.195 1.27-45.195 1.45-22.59.721-22.597.82 22.606-.55 22.597-.622 45.196-1.27 45.195-1.45 22.597-.73 22.59-.81Z" fill-rule="evenodd" data-name="Path 129"/></g><path d="M401.677 373.132a47.473 47.473 0 1 1 0 .1z" fill-rule="evenodd" data-name="Ellipse 14"/><path d="M416.712 378.57a34.765 34.765 0 1 1 .016.1z" fill="#dbdbdb" fill-rule="evenodd" data-name="Ellipse 15"/><path d="M417.187 373.132a31.963 31.963 0 1 1 0 .1z" fill="#a6a6a6" fill-rule="evenodd" data-name="Ellipse 16"/><path d="M444.136 365.219h10.037c-3.392-4.916 8.414-21.975 8.414-21.975l-5.276-1.762c-3.515 6.023-5.269 7.792-8.194 7.792-2.925 0-4.645-1.77-8.193-7.792l-5.268 1.762s11.864 17.075 8.48 21.975Z" fill="#dbdbdb" fill-rule="evenodd" data-name="Path 130"/><path d="m455.009 365.825 3.105 9.554c3.605-4.736 23.499 1.212 23.499 1.212l.049-5.563c-6.817-1.483-9.013-2.605-9.939-5.35-.926-2.745.246-4.966 4.916-10.185l-3.277-4.457s-12.651 16.502-18.353 14.79Z" fill="#dbdbdb" fill-rule="evenodd" data-name="Path 131"/><path d="m457.794 376.362-8.12 5.9c5.613 1.974 6.096 22.728 6.096 22.728l5.318-1.68c-.705-6.94-.32-9.398 2.016-11.102 2.335-1.704 4.793-1.294 11.192 1.508l3.22-4.498s-19.582-6.9-19.722-12.856Z" fill="#dbdbdb" fill-rule="evenodd" data-name="Path 132"/><path d="m448.634 382.261-8.12-5.899c-.14 5.957-19.73 12.831-19.73 12.831l3.278 4.531c6.382-2.81 8.84-3.212 11.184-1.516 2.343 1.696 2.712 4.163 2.024 11.11l5.3 1.64s.443-20.722 6.064-22.697Z" fill="#dbdbdb" fill-rule="evenodd" data-name="Path 133"/><path d="m440.195 375.379 3.072-9.554c-5.735 1.713-18.296-14.789-18.296-14.789l-3.277 4.474c4.645 5.202 5.784 7.415 4.916 10.168-.869 2.753-3.114 3.867-9.939 5.358l.057 5.555s19.853-5.948 23.467-1.212Z" fill="#dbdbdb" fill-rule="evenodd" data-name="Path 134"/><path d="M439.875 373.01a9.283 9.283 0 1 0 9.275-9.282 9.275 9.275 0 0 0-9.275 9.283Z" fill="#dbdbdb" fill-rule="evenodd" data-name="Path 135"/><path d="M96.33 373.132a47.473 47.473 0 1 1 0 .1z" fill-rule="evenodd" data-name="Ellipse 17"/><path d="M109.284 376.484a34.667 34.667 0 1 1 .01.1z" fill="#dbdbdb" fill-rule="evenodd" data-name="Ellipse 18"/><path d="M111.841 373.132a31.963 31.963 0 1 1 0 .1z" fill="#a6a6a6" fill-rule="evenodd" data-name="Ellipse 19"/><path d="M138.781 365.219h10.037c-3.384-4.916 8.423-21.975 8.423-21.975l-5.277-1.762c-3.515 6.023-5.276 7.792-8.193 7.792s-4.646-1.77-8.193-7.792l-5.269 1.762s11.864 17.075 8.472 21.975Z" fill="#dbdbdb" fill-rule="evenodd" data-name="Path 136"/><path d="m149.662 365.825 3.105 9.554c3.606-4.736 23.491 1.212 23.491 1.212l.05-5.563c-6.818-1.483-9.014-2.605-9.931-5.35-.918-2.745.246-4.966 4.916-10.185l-3.277-4.457s-12.651 16.502-18.354 14.79Z" fill="#dbdbdb" fill-rule="evenodd" data-name="Path 137"/><path d="m152.44 376.362-8.12 5.9c5.62 1.974 6.104 22.728 6.104 22.728l5.31-1.68c-.697-6.94-.32-9.398 2.015-11.102 2.335-1.704 4.801-1.294 11.192 1.508l3.229-4.523s-19.591-6.874-19.73-12.831Z" fill="#dbdbdb" fill-rule="evenodd" data-name="Path 138"/><path d="m143.28 382.261-8.12-5.899c-.131 5.957-19.722 12.831-19.722 12.831l3.228 4.531c6.391-2.81 8.85-3.212 11.184-1.516 2.335 1.696 2.72 4.163 2.032 11.11l5.301 1.64s.467-20.722 6.096-22.697Z" fill="#dbdbdb" fill-rule="evenodd" data-name="Path 139"/><path d="m134.84 375.379 3.105-9.554c-5.735 1.713-18.296-14.789-18.296-14.789l-3.277 4.474c4.646 5.203 5.785 7.415 4.916 10.168-.868 2.753-3.122 3.867-9.939 5.358l.05 5.555s19.836-5.948 23.441-1.212Z" fill="#dbdbdb" fill-rule="evenodd" data-name="Path 140"/><path d="M134.52 373.01a9.283 9.283 0 1 0 9.284-9.282 9.275 9.275 0 0 0-9.283 9.283Z" fill="#dbdbdb" fill-rule="evenodd" data-name="Path 141"/><path d="M235.153 264.226c1.729 1.729 1.573 17.206.32 18.468-1.254 1.262-18.469 2.384-19.845-7.226-1.377-9.611 16.862-13.938 19.525-11.242Z" fill="#247377" fill-rule="evenodd" data-name="Path 142"/><path d="M172.39 273.476h13.995c36.428-24.031 86.458-47.808 86.458-47.808l-8.333-1.959c-30.258 14.65-88.612 48.153-90.128 49.227a8.318 8.318 0 0 1-1.991.54Z" fill="#37474f" fill-rule="evenodd" data-name="Path 143"/><g data-name="Group 9"><path d="M504.063 342.228a60.853 60.853 0 0 0-10.652-13.069 67.358 67.358 0 0 0-13.675-9.963 66.366 66.366 0 0 0-32.65-8.03l-4.245.197-2.122.107c-.696.073-1.401.188-2.106.286l-4.203.599c-1.385.286-2.761.655-4.138.983a52.293 52.293 0 0 0-15.567 6.678 54.197 54.197 0 0 0-12.602 11.274 75.69 75.69 0 0 0-8.906 14.33c2.761-4.916 5.612-9.775 9.332-13.978a54.076 54.076 0 0 1 12.643-10.89c9.512-5.931 20.803-8.348 31.954-8.455a68.241 68.241 0 0 1 16.625 1.786 66.048 66.048 0 0 1 15.568 5.883 66.771 66.771 0 0 1 13.716 9.595 63.475 63.475 0 0 1 11.028 12.667Z" fill="#fff" fill-rule="evenodd" data-name="Path 144"/><path d="M199.757 342.228a61.097 61.097 0 0 0-10.651-13.069 67.817 67.817 0 0 0-13.675-9.963 66.433 66.433 0 0 0-32.651-8.03l-4.245.197-2.122.107c-.704.073-1.41.188-2.105.286l-4.212.599c-1.385.286-2.761.655-4.097.983a52.151 52.151 0 0 0-15.567 6.677 54.242 54.242 0 0 0-12.61 11.275 75.238 75.238 0 0 0-8.898 14.33c2.753-4.916 5.604-9.775 9.324-13.978a54.077 54.077 0 0 1 12.643-10.89c9.512-5.931 20.811-8.348 31.954-8.455a68.216 68.216 0 0 1 16.6 1.786 65.906 65.906 0 0 1 15.625 5.883 66.768 66.768 0 0 1 13.716 9.595 63.78 63.78 0 0 1 10.971 12.667Z" fill="#fff" fill-rule="evenodd" data-name="Path 145"/><path d="M487.266 263.44c-7.374-5.801-14.904-11.471-22.458-17.043-7.554-5.571-15.199-11.07-23.048-16.272-1-.631-2-1.262-3.024-1.86a26.65 26.65 0 0 0-1.581-.86 10.134 10.134 0 0 0-1.729-.648c-2.278-.672-4.555-1.245-6.833-1.819-4.572-1.122-9.152-2.204-13.774-3.105a81.178 81.178 0 0 0-14.06-1.401c-4.703-.098-9.406-.09-14.1.131 4.694 0 9.397.131 14.076.426 4.684.174 9.345.755 13.929 1.737 4.572 1.032 9.144 2.09 13.691 3.277 2.27.59 4.547 1.18 6.768 1.852.54.15 1.063.35 1.565.598.5.254 1.008.533 1.5.82.999.59 1.99 1.22 2.974 1.851 7.857 5.097 15.477 10.611 23.146 16.027l22.958 16.288Z" fill="#fff" fill-rule="evenodd" data-name="Path 146"/></g><path d="M55.88 362.474c.45 1.696.77 2.892.819 2.99.065.312.385 3.95.573 4.327.189.377 10.734 9.594 12.209 9.996 1.384.336 3.695.475 4.736.696H74.438c.516.156 4.097 2.458 7.3 4.466l1.04.663.517.336c.328.197.647.402.942.59l.82.525.393.254c.72.442 1.22.737 1.393.82.868.384 6.03 0 7.538 0a.64.64 0 0 0 .04-.263c0-.508-.057-1.639-.18-3.204 0-.254-.049-.524-.073-.82-.025-.294-.05-.622-.074-.95-.025-.327-.05-.614-.066-.934 0-.172 0-.36-.04-.549a71.6 71.6 0 0 1-.148-2.089v-.04c-.172-2.647-.279-5.597-.197-8.465 0-.467 0-.942.074-1.425.074-.484.057-.869.107-1.311.049-.443.073-.754.122-1.123l.123-.885a41.1 41.1 0 0 1 .59-3.195c.05-.254.107-.5.172-.754.107-.442.222-.885.328-1.327.107-.443.189-.672.295-1.008.18-.664.393-1.311.615-1.967.114-.344.237-.696.368-1.04.385-1.082.82-2.163 1.295-3.278.131-.294.27-.59.401-.893.23-.491.467-.975.713-1.458.09-.18.18-.352.27-.54.205-.394.427-.82.64-1.189.213-.369.524-.934.819-1.401.295-.467.557-.926.82-1.385.262-.459.54-.819.819-1.253a.93.93 0 0 0 .082-.107l.819-1.229a1.64 1.64 0 0 1 .164-.213c.254-.352.508-.688.77-1.016.08-.12.168-.234.262-.344l.942-1.172a46.31 46.31 0 0 1 2.164-2.409 2.57 2.57 0 0 1 .204-.213c.287-.303.574-.59.877-.884.115-.115.221-.23.344-.336.353-.336.713-.68 1.074-1.008l.081-.066c.41-.377.82-.737 1.246-1.098l1.172-.95.196-.148c.36-.286.73-.565 1.115-.819.155-.123.327-.238.5-.36l.114-.09c.36-.246.721-.509 1.09-.746.369-.238.917-.606 1.393-.901.068-.046.139-.087.213-.123.467-.295.95-.574 1.434-.82.483-.246 1.032-.565 1.556-.819-9.373 1.991-24.998 14.748-31.307 27.972-6.309 13.225-4.695 14.167-6.17 15.757-1.474 1.59-6.358-1.64-8.62-2.196-2.26-.557-9.61-.746-12.437-1.311-2.827-.566-3.277-5.654-5.227-6.784a2.782 2.782 0 0 1-.385-.484Z" fill-rule="evenodd" data-name="Path 147"/><g data-name="Group 10"><path d="M459.45 289.757a10.094 10.094 0 1 0 17.41-6.866 10.12 10.12 0 0 0-17.386 6.866Zm0 0c0-9.201 11.347-13.855 17.886-7.374 4.122 4.2 4.056 10.948-.148 15.068-6.678 6.358-17.903 1.499-17.739-7.71Z" fill-rule="evenodd" data-name="Path 148"/></g><path d="M480.08 288.872c0-.385.082-.762.14-1.139-.082.377-.082.754-.14 1.14Z" fill-rule="evenodd" data-name="Path 149"/><path d="M509.823 300.564s-2.073 4.162-1.917 5.359c.155 1.196 1.638 13.83 2.523 14.428.885.599 2.909 1.64 4.654 1.352 1.745-.286-5.26-21.139-5.26-21.139Z" fill="#ebebeb" fill-rule="evenodd" data-name="Path 150"/><path d="M468.74 233.607s14.618 18.1 15.568 19.582c.95 1.483 12.348 16.551 12.348 16.551l3.277.648-20.27-26.564-10.922-10.217Z" fill="#37474f" fill-rule="evenodd" data-name="Path 151"/><path d="M340.939 303.243h-2.958a6.989 6.989 0 0 1-6.989-6.989 6.989 6.989 0 0 1 6.989-6.989h2.958a6.989 6.989 0 0 1 6.989 6.99 6.989 6.989 0 0 1-6.99 6.988z" fill-rule="evenodd" data-name="Rectangle 346"/><path d="M353.171 299.138h-25.128a1 1 0 0 1-1-1v-2.768a1 1 0 0 1 1-1h25.128a1 1 0 0 1 1 1v2.768a1 1 0 0 1-1 1z" fill="#5924ff" fill-rule="evenodd" data-name="Rectangle 347"/><path d="M353.171 299.138h-25.128a1 1 0 0 1-1-1v-2.768a1 1 0 0 1 1-1h25.128a1 1 0 0 1 1 1v2.768a1 1 0 0 1-1 1z" fill="#247377" fill-rule="evenodd" data-name="Rectangle 348"/></g><g data-name="Location pin"><path d="M291.819 109.967c-1.475-14.748-11.627-29.357-29.44-29.357-17.812 0-27.923 14.634-29.397 29.357-2.082 21.238 8.963 44.245 24.056 62.066h5.342c16.379-18.788 31.709-39.37 29.439-62.066Zm-29.44 16.338c-8.876-.054-16.034-7.283-16-16.16.032-8.876 7.244-16.052 16.12-16.04 8.878.012 16.07 7.207 16.08 16.084a16.075 16.075 0 0 1-16.2 16.116Z" fill="#247377" fill-rule="evenodd" data-name="Path 152"/><path d="M291.819 109.967c-1.475-14.748-11.627-29.357-29.44-29.357-17.812 0-27.923 14.634-29.397 29.357-2.082 21.238 8.963 44.245 24.056 62.066h5.342c16.379-18.788 31.709-39.37 29.439-62.066Zm-29.44 16.338c-8.876-.054-16.034-7.283-16-16.16.032-8.876 7.244-16.052 16.12-16.04 8.878.012 16.07 7.207 16.08 16.084a16.075 16.075 0 0 1-16.2 16.116Z" fill="#247377" fill-rule="evenodd" data-name="Path 153"/><path d="M286.477 109.967c-1.475-14.748-11.627-29.357-29.44-29.357-17.812 0-27.923 14.634-29.398 29.357-2.22 22.696 13.06 43.295 29.399 62.066 16.378-18.788 31.708-39.37 29.439-62.066Zm-29.44 16.338c-8.882-.031-16.06-7.25-16.042-16.133.018-8.882 7.226-16.072 16.108-16.067 8.882.004 16.083 7.201 16.092 16.084a16.076 16.076 0 0 1-16.157 16.116Z" fill="#9bd8db" fill-rule="evenodd" data-name="Path 154"/></g><g data-name="Character"><path d="M345.552 389.037c-1.205 5.621-2.384 11.52-2.36 12.815.074 2.597 3.278 7.046 4.916 5.948 1.639-1.097 33.02-42.851 33.208-45.187v-.065c0-.27-.483-.82-1.286-1.639-1.704-1.712-4.916-4.449-8.824-7.603-.893-.738-1.836-1.492-2.794-2.262l-26.662-21.54-20.115 26.645 26.375 21.729s-1.237 5.424-2.458 11.143Z" fill="#eb9481" fill-rule="evenodd" data-name="Path 155"/><path d="M345.552 389.037c-1.205 5.621-2.384 11.52-2.36 12.815.066 2.597 3.277 7.046 4.916 5.948 1.639-1.098 33.02-42.852 33.208-45.187v-.065c0-.27-.483-.82-1.286-1.639-1.704-1.712-4.916-4.449-8.824-7.603-.893-.738-1.836-1.492-2.794-2.262l-5.326-4.301-20.672 26.514 5.653 4.654s-1.237 5.424-2.458 11.143Z" fill="#ebebeb" fill-rule="evenodd" data-name="Path 156"/><path d="M347.674 407.628c1.639-1.114 33.2-43.425 33.372-45.818.082-.9-5.817-5.866-13.11-11.659l-.229-.18-20.689 27.087.476.336s-4.85 21.615-4.769 24.245c.082 2.63 3.351 7.095 4.949 5.99Z" fill="#263238" fill-rule="evenodd" data-name="Path 157"/><path d="M346.388 405.924c5.153-7.268 26.612-36.092 32.257-42.885.05-.057.082 0 0 0-4.916 7.317-26.637 35.962-32.175 42.934-.082.18-.189.099-.082-.049Z" fill="#fff" fill-rule="evenodd" data-name="Path 158"/><path d="M345.855 379.746c1.573-3.196 4.564-6.31 8.193-6.965.14 0 .172.18.074.246A49.41 49.41 0 0 0 346.24 380a.23.23 0 0 1-.385-.254Z" fill="#fff" fill-rule="evenodd" data-name="Path 159"/><path d="M345.56 382.663c1.573-3.196 4.572-6.31 8.193-6.965.14 0 .173.172.082.246a49.016 49.016 0 0 0-7.882 6.973.234.234 0 0 1-.393-.254Z" fill="#fff" fill-rule="evenodd" data-name="Path 160"/><path d="M345.273 385.629c1.573-3.204 4.564-6.317 8.194-6.965.139 0 .172.172.074.238a49.457 49.457 0 0 0-7.883 6.98.23.23 0 0 1-.385-.253Z" fill="#fff" fill-rule="evenodd" data-name="Path 161"/><path d="M345.675 407.137c-.27.975 2.392 2.712 3.007 2.318.614-.393 34.855-46.702 35.232-47.62.377-.918-2.622-2.728-3.441-1.926-.82.803-34.798 47.228-34.798 47.228Z" fill="#5924ff" fill-rule="evenodd" data-name="Path 162"/><path d="M345.675 407.137c-.27.975 2.392 2.712 3.007 2.318.614-.393 34.855-46.702 35.232-47.62.377-.918-2.622-2.728-3.441-1.926-.82.803-34.798 47.228-34.798 47.228Z" fill="#247377" fill-rule="evenodd" data-name="Path 163"/><path d="M367.224 360.54c.753-4.211 7.308-3.04 6.554 1.18-.754 4.22-7.308 3.007-6.554-1.18Z" fill="#fff" fill-rule="evenodd" data-name="Path 164"/><path d="M327.37 303.907c1.877 9.3 40.476 46.424 40.476 46.424l-26.907 31.062S286.141 326.685 289 306.136c2.459-17.887 29.251-89.784 29.251-89.784h30.89s-23.622 78.403-21.77 87.555Z" fill="#263238" fill-rule="evenodd" data-name="Path 165"/><path d="M327.37 303.907c1.877 9.3 40.476 46.424 40.476 46.424l-26.907 31.062S286.141 326.685 289 306.136c2.459-17.887 29.251-89.784 29.251-89.784h30.89s-23.622 78.403-21.77 87.555Z" fill="#455a64" fill-rule="evenodd" data-name="Path 166"/><path d="M337.875 374.002c3.58-4.449 2.458-3.22 6.112-7.628 1.778-2.163 13.445-16.338 15.453-18.025.049-.041.123 0 .09.073-1.344 2.278-13.257 16.248-15.076 18.37-3.712 4.343-2.688 3.056-6.448 7.374a.105.105 0 0 1-.131-.164Z" fill="#263238" fill-rule="evenodd" data-name="Path 167"/><path d="M323.536 299.368c.442-2.319.942-4.638 1.434-6.948 1-4.72 2.062-9.43 3.187-14.134a709.172 709.172 0 0 1 7.251-27.784c2.639-9.242 5.416-18.468 8.62-27.53.401-1.123.82-2.237 1.212-3.351a.074.074 0 0 1 .14.04c-2.778 9.08-5.637 18.125-8.243 27.26-2.605 9.136-4.99 18.23-7.251 27.408a679.513 679.513 0 0 0-3.22 13.871 726.19 726.19 0 0 0-1.491 6.842c-.6 2.314-1.03 4.67-1.287 7.046a10.652 10.652 0 0 0 1.811 6.342c1.155 1.893 2.524 3.679 3.835 5.465 2.638 3.58 27.775 31.586 28.587 32.348.065.057 0 .147-.099.09-3.375-3.023-24.703-26.113-27.407-29.685a195.84 195.84 0 0 1-3.933-5.367 21.41 21.41 0 0 1-3.064-5.407 12.684 12.684 0 0 1-.082-6.506Z" fill="#263238" fill-rule="evenodd" data-name="Path 168"/><path d="m323.593 216.335 5.613 73.578c5.35-25.187 19.926-73.578 19.926-73.578h-25.539Z" fill="#263238" fill-rule="evenodd" data-name="Path 169"/><path d="M336.58 367.849s-6.661 32.463-6.661 32.487c-.09 6.555-.287 12.29-.664 15.215a.106.106 0 0 1 0 .05 4.532 4.532 0 0 1-.508 2.015h-.04c-1.96 1.287-54.225 2.098-56.06 1.516-1.836-.582-.304-5.85 1.695-7.505 2-1.655 21.885-10.906 21.885-10.906l6.99-32.446 33.363-.426Z" fill="#eb9481" fill-rule="evenodd" data-name="Path 170"/><path d="M272.638 419.173c1.835.59 54.077-.23 56.068-1.516a4.53 4.53 0 0 0 .508-2.015.106.106 0 0 0 0-.05c.377-2.95.574-8.685.664-15.215l1.4-6.874h-33.486l-1.573 7.3s-19.861 9.259-21.885 10.906c-2.024 1.647-3.531 6.89-1.696 7.464Z" fill="#ebebeb" fill-rule="evenodd" data-name="Path 171"/><path d="M272.31 419.222c1.852.59 54.667-.23 56.658-1.532.77-.492 1.098-8.194 1.23-17.51v-.31l-34.086.147v.581s-20.074 9.357-22.122 11.029c-2.048 1.671-3.531 7.013-1.68 7.595Z" fill="#263238" fill-rule="evenodd" data-name="Path 172"/><path d="M272.843 417.166c8.898-.361 44.826-.959 53.65-.631.075 0 .075.049 0 .057-8.815.54-44.752.82-53.658.721-.148-.008-.148-.14.008-.147Z" fill="#fff" fill-rule="evenodd" data-name="Path 173"/><path d="M293.277 400.762c3.49-.704 7.784-.237 10.504 2.22.107.09 0 .238-.147.206a49.157 49.157 0 0 0-10.307-1.983.223.223 0 0 1-.05-.443Z" fill="#fff" fill-rule="evenodd" data-name="Path 174"/><path d="M290.77 402.327c3.499-.713 7.784-.237 10.504 2.212.107.099 0 .246-.147.213a48.685 48.685 0 0 0-10.332-1.982.221.221 0 1 1-.025-.443Z" fill="#fff" fill-rule="evenodd" data-name="Path 175"/><path d="M288.263 403.892c3.499-.713 7.792-.238 10.504 2.212.107.099 0 .246-.147.213a48.689 48.689 0 0 0-10.332-1.982.222.222 0 1 1-.025-.443Z" fill="#fff" fill-rule="evenodd" data-name="Path 176"/><path d="M271.475 417.338c-.943.385-.689 3.556 0 3.801.688.246 58.272-.91 59.247-1.139.975-.229.557-3.744-.582-3.908-1.139-.164-58.665 1.246-58.665 1.246Z" fill="#5924ff" fill-rule="evenodd" data-name="Path 177"/><path d="M271.475 417.338c-.943.385-.689 3.556 0 3.801.688.246 58.272-.91 59.247-1.139.975-.229.557-3.744-.582-3.908-1.139-.164-58.665 1.246-58.665 1.246Z" fill="#247377" fill-rule="evenodd" data-name="Path 178"/><path d="M321.57 405.94c3.793-1.974 6.874 3.925 3.064 5.9-3.81 1.974-6.874-3.925-3.064-5.9Z" fill="#fff" fill-rule="evenodd" data-name="Path 179"/><path d="M320.971 216.335a124.727 124.727 0 0 1 2.671 15.429c.648 6.464 1.45 12.175 2.311 12.888.86.713 5.858 3.94 7.505 4.916 0 0-15.223 46.13-19.148 61.508-5.703 22.311-19.345 89.186-19.345 89.186h36.322s11.045-63.671 15.879-84.892c4.097-18.19 19.238-69.432 19.238-69.432 5.777-14.19-3.547-29.586-3.547-29.586l-41.886-.017Z" fill="#455a64" fill-rule="evenodd" data-name="Path 180"/><path d="M298.177 393.224c5.391 0 3.843-.106 9.226-.074 2.638 0 19.96.123 22.417.59.058 0 .05.107 0 .115-2.458.393-19.787 0-22.425-.098-5.383-.14-3.835-.164-9.218-.369a.082.082 0 0 1 0-.164Z" fill="#263238" fill-rule="evenodd" data-name="Path 181"/><path d="M323.364 242.833a68.58 68.58 0 0 1 10.029 6.71.124.124 0 1 1-.14.205c-3.392-2.13-6.874-4.203-10.151-6.514a.24.24 0 1 1 .262-.401Z" fill="#263238" fill-rule="evenodd" data-name="Path 182"/><path d="M326.1 218.318c0-.123.255-.115.23 0-.62 3.865-1.04 7.76-1.262 11.667-.115 1.901-.221 12.496 3.146 12.242.566 0 .926-.533 1.14-1.344.155-1.086.177-2.187.065-3.278 0-2.22 0-4.44.172-6.66.27-4.111.961-8.183 2.065-12.152a.107.107 0 0 1 .205.041 113.66 113.66 0 0 0-1.64 17.075c0 2.753.722 7.022-2.162 6.998-2.884-.025-3.737-7.104-3.802-9.013-.09-5.251.53-10.49 1.843-15.576Z" fill="#263238" fill-rule="evenodd" data-name="Path 183"/><path d="M328.108 242.554c.182.745.316 1.5.401 2.262.11.598.11 1.212 0 1.81a.131.131 0 0 1-.237 0 6.323 6.323 0 0 1-.484-1.835c-.147-.704-.303-1.4-.426-2.106a.378.378 0 1 1 .746-.13Z" fill="#263238" fill-rule="evenodd" data-name="Path 184"/><path d="M335.523 373.183c.098-.82.205-1.68.328-2.524.23-1.638.5-3.211.745-4.817.5-3.229 1.05-6.449 1.639-9.669 1.139-6.415 2.458-12.806 3.843-19.172.819-3.597 1.696-7.153 2.663-10.71.065-.245.41-.13.368.115-.581 3.278-1.147 6.506-1.81 9.75-.664 3.245-1.328 6.457-1.967 9.685-1.27 6.391-2.458 12.807-3.72 19.198-.352 1.802-.68 3.613-1.032 5.416a98.032 98.032 0 0 1-.55 2.695c-.196.893-.474 1.778-.622 2.68 0 .081-.14 0-.123-.042.123-.86.14-1.745.238-2.605Z" fill="#263238" fill-rule="evenodd" data-name="Path 185"/><path d="M310.476 324.915c1.204-6.03 2.834-11.979 4.481-17.903 3.278-11.921 7.186-23.67 11.062-35.412a847.442 847.442 0 0 1 3.35-10.152c.558-1.687 3.278-10.807 3.639-11.675a.074.074 0 0 1 .139.04c-.82 3.106-1.86 7.637-2.77 10.718-.909 3.08-1.868 6.055-2.818 9.078-1.852 5.949-3.736 11.889-5.539 17.854-3.564 11.782-7.104 23.572-9.988 35.543-.819 3.351-1.638 6.702-2.36 10.078-.72 3.376-1.368 6.743-2.072 10.119 0 .09-.172.066-.164 0 .639-6.17 1.827-12.241 3.04-18.288Z" fill="#263238" fill-rule="evenodd" data-name="Path 186"/><path d="M332.91 357.263c1.941-11.217 4.268-22.385 6.84-33.479a642.456 642.456 0 0 1 8.653-33.216c3.18-10.996 6.694-21.885 10.471-32.684 1.902-5.09 3.5-10.288 4.785-15.567 1.164-5.244 2.18-13.782-3.277-24.704-.05-.082.254-.13.303 0 7.186 12.38 3.941 25.335.713 35.126-1.77 5.367-3.662 10.692-5.408 16.067a686.8 686.8 0 0 0-5.145 16.625 707.715 707.715 0 0 0-9.013 33.298c-2.737 11.176-5.113 22.417-7.235 33.716-2.122 11.3-3.916 22.729-5.735 34.126a135.38 135.38 0 0 0-.615 4.457c0 .082-.14.082-.13 0 1.384-11.298 2.9-22.548 4.792-33.765Z" fill="#263238" fill-rule="evenodd" data-name="Path 187"/><path d="M356.703 232.853c-.737-.278-1.548-.344-2.302-.557a19.112 19.112 0 0 1-2.335-.82 17.861 17.861 0 0 1-4.04-2.375 9.398 9.398 0 0 1-2.646-3.77c-.336-.778-1.786-4.915-1.803-4.915-.016 0-.237-.058-.23.04 0 .558.87 4.097 1.148 4.917a9.16 9.16 0 0 0 2.655 4.342 14.206 14.206 0 0 0 4.506 2.524c.84.3 1.703.527 2.58.68a6.81 6.81 0 0 0 2.459.123c.156.024.106-.156.008-.189Z" fill="#263238" fill-rule="evenodd" data-name="Path 188"/><path d="M315.891 230.158a9.995 9.995 0 0 1 1.238-.418 7.428 7.428 0 0 0 1.27-.648 9.013 9.013 0 0 0 3.94-5.407c.238-.705.87-4.49.877-4.515.009-.024.132-.04.115.05a31.324 31.324 0 0 1-.532 4.563 11.308 11.308 0 0 1-1.721 3.9 7.857 7.857 0 0 1-2.532 2.155c-.434.242-.9.422-1.385.533-.42.139-.874.139-1.294 0-.074-.017-.033-.18.024-.213Z" fill="#263238" fill-rule="evenodd" data-name="Path 189"/><path d="M326.289 162.938c-17.714 16.723-32.946 35.773-34.052 44.917-1.524 12.659 6.325 15.977 9.832 15.928 9.472-.123 27.178-38.23 32.815-53.02 5.44-14.363-4.687-11.504-8.595-7.825Z" fill="#c7c7c7" fill-rule="evenodd" data-name="Path 190"/><path d="M368.027 225.028c-.115.123-51.677-2.408-52.086-2.9-.123-.147-1.213-5.473-.402-9.152 3.032-13.757 15.38-49.98 19.296-54.83 1.065-1.312 4.449-1.582 7.308-1.148.749.106 1.487.278 2.204.516h.074a5.096 5.096 0 0 1 1.598.82c7.817 6.612 21.491 51.618 22.352 55.912.737 3.728-.164 10.586-.344 10.782Z" fill="#c7c7c7" fill-rule="evenodd" data-name="Path 191"/><path d="m349.042 219.957-3.277-7.874.14.074a5.99 5.99 0 0 1-3.762-.82 7.513 7.513 0 0 1-2.638-2.818l-.254-.41c-.074-.148-.14-.295-.205-.443l-.393-.884c-.205-.615-.426-1.221-.582-1.844a18.791 18.791 0 0 1-.393-1.884l-.262-1.91.237.23-12.11-.672.304-.27a22.6 22.6 0 0 1-.533 2.974 16.726 16.726 0 0 1-.975 2.851 9.725 9.725 0 0 1-1.639 2.598 6.285 6.285 0 0 1-2.532 1.77l.197-.206-2.024 7.784-.254-.344c5.113.303 10.217.656 15.347 1.016l15.608 1.082Zm0 0-15.37-.738c-5.163-.254-10.357-.5-15.568-.82h-.336l.082-.327 1.982-7.792v-.147l.156-.058a5.736 5.736 0 0 0 2.262-1.638 9.834 9.834 0 0 0 1.515-2.458c.396-.889.714-1.81.95-2.753.243-.946.42-1.907.533-2.876v-.279h.279l12.11.754h.205v.221l.221 1.876c.082.623.238 1.23.36 1.852.123.623.353 1.205.533 1.803l.369.86c.065.148.123.287.188.426l.238.41a7.235 7.235 0 0 0 2.458 2.728 5.735 5.735 0 0 0 3.54.86h.106v.082l3.187 8.014Z" fill-rule="evenodd" data-name="Path 192"/><path d="M351.664 163.487c15.404 15.2 29.415 40.025 28.087 52.865-1.319 12.683-5.588 10.954-6.833 10.733-7.595-1.368-21.63-38.665-25.49-53.66-3.859-14.993.434-13.69 4.236-9.938Z" fill="#c7c7c7" fill-rule="evenodd" data-name="Path 193"/><path d="M363.864 216.04c-.704-1.704-1.434-3.384-2.114-5.088l-2.056-5.088c-1.377-3.4-2.778-6.792-4.097-10.217-1.32-3.425-2.696-6.817-3.998-10.242a194.798 194.798 0 0 1-1.901-5.162 278.15 278.15 0 0 1-1.786-5.211 99.598 99.598 0 0 0 3.04 10.602c1.171 3.482 2.457 6.916 3.817 10.349 1.36 3.433 2.794 6.8 4.31 10.143 1.516 3.343 3.073 6.686 4.785 9.914Z" fill="#263238" fill-rule="evenodd" data-name="Path 194"/><path d="M349.165 179.464a15.343 15.343 0 0 0-.82-1.77c-.163-.286-.31-.565-.483-.819-.172-.254-.336-.565-.532-.819.075.67.287 1.317.623 1.9.312.57.723 1.08 1.212 1.509Z" fill="#263238" fill-rule="evenodd" data-name="Path 195"/><path d="M336.031 170.198s8.095-8.431 13.52-8.415l4.719 3.933s1.524.45 1.958-.525c1.073-2.392 1.13-8.12-3.9-11.675-4.613-3.278-13.83-2.27-19.927-.45-5.858 1.736-9.013 5.317-7.07 9.11 1.941 3.794 10.7 8.022 10.7 8.022Z" fill="#c7c7c7" fill-rule="evenodd" data-name="Path 196"/><path d="M335.384 168.412s-6.924-4.622-7.71-7.473c-.787-2.851 4.858-5.735 8.537-6.956 5.687-1.844 9.603-1.639 12.921 1.36 3.319 2.999-13.748 13.069-13.748 13.069Z" fill-rule="evenodd" data-name="Path 197"/><path d="M335.384 168.412c2.736.13 7.628-3.974 8.8-8.071.081-.279-.902-2.827-1.942-5.973-.623-1.917-1.27-4.097-1.721-6.063-.09-.41-11.864 5.883-11.864 5.883a32.614 32.614 0 0 1 2.941 7.374c.062.269.095.543.099.82v.138c.139 1.672.762 5.744 3.687 5.892Z" fill="#ad6359" fill-rule="evenodd" data-name="Path 198"/><path d="M331.697 162.438v.14c.438-.047.873-.121 1.302-.221 7.375-1.836 7.21-11.52 7.063-13.93-2.163.82-11.422 5.736-11.422 5.736a33.023 33.023 0 0 1 2.95 7.415c.06.283.095.571.107.86Z" fill="#263238" fill-rule="evenodd" data-name="Path 199"/><path d="M343.348 141.775c.19 1.391.509 2.763.95 4.096.484 1.008 3.097 1.639 3.097 1.639s-2.548 1.5-3.359 1.467c-.811-.033-2.458-1.787-2.458-1.787s1.778 2.966 2.925 2.917c.705 0-1.639.46-1.639.46-.799.099-1.607-.1-2.27-.558-1.015-.721 2.754-8.234 2.754-8.234Z" fill="#263238" fill-rule="evenodd" data-name="Path 200"/><path d="M339.75 132.196c2.328 4.163 2.787 17.559.238 21.123-3.687 5.162-11.126 7.202-15.87 2.458-4.597-4.613-4.875-22.073-1.901-25.457 4.375-4.99 14.084-4.269 17.534 1.876Z" fill="#ad6359" fill-rule="evenodd" data-name="Path 201"/><path d="M329.19 143.56s.065 0 .065.074c0 .91.172 1.942 1 2.204v.05c-1.008-.099-1.205-1.475-1.066-2.327Z" fill="#263238" fill-rule="evenodd" data-name="Path 202"/><path d="M329.951 142.594c1.45-.164 1.68 2.736.336 2.892-1.343.156-1.548-2.761-.336-2.892Z" fill="#263238" fill-rule="evenodd" data-name="Path 203"/><path d="M324.134 144.036s-.066.05-.066.09c.107.893.066 1.942-.729 2.302v.05c1-.222 1.033-1.606.795-2.442Z" fill="#263238" fill-rule="evenodd" data-name="Path 204"/><path d="M323.257 143.16c-1.458 0-1.343 2.916 0 2.916 1.344 0 1.205-2.917 0-2.917Z" fill="#263238" fill-rule="evenodd" data-name="Path 205"/><path d="M331.017 141.168c-.391-.079-.777-.18-1.156-.303a2.016 2.016 0 0 1-1.122-.54.631.631 0 0 1 .04-.755 1.54 1.54 0 0 1 1.525-.278c.545.11 1.03.42 1.36.868a.655.655 0 0 1-.647 1.008Z" fill="#263238" fill-rule="evenodd" data-name="Path 206"/><path d="M321.938 140.824c.384-.111.761-.243 1.13-.393a1.95 1.95 0 0 0 1.074-.615.623.623 0 0 0-.09-.745 1.524 1.524 0 0 0-1.54-.172 2.278 2.278 0 0 0-1.303.966.664.664 0 0 0 .73.96Z" fill="#263238" fill-rule="evenodd" data-name="Path 207"/><path d="M331.017 151.55c-.197.22-.394.532-.713.581a2.301 2.301 0 0 1-.992-.147v.049c.29.34.743.495 1.18.401a.975.975 0 0 0 .647-.82c-.024-.09-.122-.097-.122-.065Z" fill="#263238" fill-rule="evenodd" data-name="Path 208"/><path d="M329.861 148.927a3.08 3.08 0 0 1-1.942 1.524 3.769 3.769 0 0 1-1.098.132.623.623 0 0 1-.213 0h-.196a.23.23 0 0 1-.197-.189v-.172c-.074-.688-.09-1.745-.09-1.745-.246.14-1.491.82-1.5.459a46.63 46.63 0 0 1 .468-9.366.082.082 0 1 1 .164 0c.172 2.885-.172 5.785-.05 8.694a5.26 5.26 0 0 1 1.41-.55c.098 0 0 2.05.049 2.352a4.269 4.269 0 0 0 3.097-1.229c.074-.04.147.017.098.09Z" fill="#263238" fill-rule="evenodd" data-name="Path 209"/><path d="M327.207 150.206c.418.462.948.81 1.54 1.007.325.105.675.105 1 0 .704-.245.671-.91.491-1.466a3.895 3.895 0 0 0-.385-.82 4.744 4.744 0 0 1-2.646 1.279Z" fill="#263238" fill-rule="evenodd" data-name="Path 210"/><path d="M328.747 151.213c.325.105.675.105 1 0 .704-.245.671-.91.491-1.466a1.696 1.696 0 0 0-1.491 1.466Z" fill="#ff9bbc" fill-rule="evenodd" data-name="Path 211"/><path d="M341.668 143.413c-2.458-.164-5.326-7.71-5.326-7.71l.476 4.384a10.496 10.496 0 0 1-3.36-2.803 7.8 7.8 0 0 1-1.106-4.195s-1.99 3.278-4.793 4.679c-1.032.524-9.095 2.229-9.201 1.729-.328-1.491 1.704-7.505 3.433-9.324a10.766 10.766 0 0 1 10.2-3.54c5.212.82 7.137 3.63 8.366 5.875 1.23 2.245 2.204 10.905 1.311 10.905Z" fill="#263238" fill-rule="evenodd" data-name="Path 212"/><path d="M338.809 143.552s2.097-4.76 4.203-4.096c2.106.663 1.098 7.16-.967 8.43a2.303 2.303 0 0 1-3.277-.622l.04-3.712Z" fill="#ad6359" fill-rule="evenodd" data-name="Path 213"/><path d="M342.676 141.316v.057c-1.434.942-1.975 2.548-2.253 4.17a1.27 1.27 0 0 1 1.802-.712c.05 0 0 .09 0 .09a1.418 1.418 0 0 0-1.434.82 6.972 6.972 0 0 0-.491 1.384c-.05.156-.312.131-.295 0-.426-2.073.573-5.187 2.67-5.81Z" fill="#263238" fill-rule="evenodd" data-name="Path 214"/><path d="M325.642 127.108a18.953 18.953 0 0 1 4.826-2.622c1.941-.68 8.332-1.524 10.11-.59 1.778.934 3.433 6.785 3.655 7.645.22.86.95 6.178-.68 7.841-1.63 1.663-3.704-7.194-7.325-9.504-3.622-2.311-10.586-2.77-10.586-2.77Z" fill="#5924ff" fill-rule="evenodd" data-name="Path 215"/><path d="M325.642 127.116s6.964.443 10.586 2.762c3.621 2.318 5.694 11.176 7.325 9.512.72-.737.95-1.638 1-3.113-.951-2.516-2.86-6.334-5.621-8.669-2.59-2.188-6.359-2.77-10.193-2.392a21.105 21.105 0 0 0-3.097 1.9Z" fill-rule="evenodd" data-name="Path 216"/><path d="M344.126 144.782c-.672-2.336-4.433-8.194-7.735-11.275-3.301-3.08-11.192-3.654-12.224-3.367-2.458.68-3.187 1.638-3.638 1.483-.45-.156 1.753-2.59 2.376-3.171.623-.582 2.319-1.983 3.417-2.188 1.098-.205 8.013-.975 11.085 1.393 3.073 2.368 8.268 9.71 8.071 11.913-.04.533-.64.992-.696 1.746-.082.983-.05 2.089-.189 2.794-.082.573-.377.876-.467.672Z" fill="#5924ff" fill-rule="evenodd" data-name="Path 217"/><path d="M335.49 131.991c.506-.474.97-.992 1.385-1.548a8.744 8.744 0 0 0 1.09-1.778h.073a6.861 6.861 0 0 1-.917 1.95 5.802 5.802 0 0 1-1.549 1.483c-.065.05-.14-.05-.082-.107Z" fill="#263238" fill-rule="evenodd" data-name="Path 218"/><path d="M343.675 142.405c0-.18.115-.36.156-.54.057-.206.09-.418.098-.631a5.458 5.458 0 0 1 0-1.213 4.25 4.25 0 0 1 .394-.91c.205-.312.298-.684.262-1.056 0-.058.066-.074.074 0a4.186 4.186 0 0 1-.402 2.007c-.059.432-.08.868-.065 1.303a1.91 1.91 0 0 1-.418 1.122.074.074 0 0 1-.098-.082Z" fill="#263238" fill-rule="evenodd" data-name="Path 219"/><path d="M342.315 140.013c.182-.305.346-.62.492-.942.131-.326.24-.66.328-1 .082-.328.139-.664.22-1 .083-.335.23-.819.312-1.18 0-.057.082 0 .074 0-.074.418-.082.82-.147 1.262-.062.36-.144.715-.246 1.066a5.727 5.727 0 0 1-.377.966c-.154.31-.366.588-.623.82 0 0-.049.032-.033.008Z" fill="#263238" fill-rule="evenodd" data-name="Path 220"/><path d="M340.963 137.883a6.96 6.96 0 0 0 .975-1.737c.238-.607.427-1.23.615-1.852 0-.041.09 0 .082 0a8.188 8.188 0 0 1-.434 1.974 4.18 4.18 0 0 1-.443.877 4.637 4.637 0 0 1-.729.77c-.041.05-.098.009-.066-.032Z" fill="#263238" fill-rule="evenodd" data-name="Path 221"/><path d="M339.546 135.859a2.31 2.31 0 0 0 .5-.77c.147-.304.287-.623.418-.934.13-.312.262-.607.385-.91.15-.301.233-.63.246-.967 0 0 .073-.049.073 0 .046.332.02.67-.073.992a5.92 5.92 0 0 1-.336 1.04c-.143.33-.307.65-.492.959-.14.293-.37.534-.655.688-.05.017-.115-.049-.066-.098Z" fill="#263238" fill-rule="evenodd" data-name="Path 222"/><path d="M338.276 133.188c.172-.262.344-.525.5-.82.155-.295.287-.557.426-.819.139-.262.287-.59.41-.901h.073c-.055.326-.14.647-.254.958-.116.304-.253.6-.41.885a7.57 7.57 0 0 1-.507.82c-.17.275-.393.515-.656.704a.057.057 0 0 1-.082-.065 4.71 4.71 0 0 1 .5-.762Z" fill="#263238" fill-rule="evenodd" data-name="Path 223"/><path d="M333.384 131.033a9.597 9.597 0 0 1 1.23-1.95c.464-.601.991-1.15 1.573-1.639 0 0 .09 0 .065.057-.917 1.197-1.892 2.36-2.794 3.565-.033.057-.098.057-.074-.033Z" fill="#263238" fill-rule="evenodd" data-name="Path 224"/><path d="M331.525 129.304c.178-.334.392-.647.639-.934a10.83 10.83 0 0 1 1.794-1.557l.057.058c-.532.54-1.065 1.065-1.565 1.638-.252.278-.488.57-.704.877-.213.303-.353.647-.55.967h-.057c.057-.372.188-.729.386-1.049Z" fill="#263238" fill-rule="evenodd" data-name="Path 225"/><path d="M329.378 128.796c.158-.327.353-.635.582-.918a5.956 5.956 0 0 1 1.515-1.384s.074 0 .041.065c-.503.47-.963.982-1.376 1.532-.213.27-.41.558-.606.82-.197.262-.345.614-.566.868h-.04c.117-.341.268-.67.45-.983Z" fill="#263238" fill-rule="evenodd" data-name="Path 226"/><path d="M327.674 127.92c.204-.263.426-.5.647-.746.206-.249.45-.465.72-.64.042 0 .075 0 .05.066-.401.492-.82.992-1.188 1.483a8.084 8.084 0 0 0-.82 1.549h-.048c.033-.623.256-1.22.639-1.713Z" fill="#263238" fill-rule="evenodd" data-name="Path 227"/><path d="M325.814 127.911a4.996 4.996 0 0 1 1.368-1.319.041.041 0 1 1 .05.066c-.473.397-.881.864-1.213 1.384a8.891 8.891 0 0 0-.82 1.639h-.057c.083-.634.313-1.24.672-1.77Z" fill="#263238" fill-rule="evenodd" data-name="Path 228"/><path d="M323.7 129.484a3.947 3.947 0 0 1 .524-1.163c.332-.466.708-.9 1.123-1.295.04 0 .09 0 .057.058-.396.402-.743.85-1.032 1.335a5.217 5.217 0 0 0-.377.738c-.05.122-.098.254-.14.385a3.374 3.374 0 0 1-.122.377.04.04 0 0 1-.074 0 1.074 1.074 0 0 1 .04-.435Z" fill="#263238" fill-rule="evenodd" data-name="Path 229"/><path d="M322.307 129.902a5.455 5.455 0 0 1 .713-1.204c.147-.189.303-.377.442-.566 0-.049.098 0 .058.05a4.19 4.19 0 0 0-.394.598l-.344.59c-.106.204-.221.401-.336.598a4.91 4.91 0 0 1-.336.606h-.057c.055-.234.14-.46.254-.672Z" fill="#263238" fill-rule="evenodd" data-name="Path 230"/><path d="M335.384 168.412s6.341-11.545 14.666-12.93l-.5 6.301s-4.99.172-13.519 8.415l-.647-1.786Z" fill="#c7c7c7" fill-rule="evenodd" data-name="Path 231"/><path d="M351.803 161.832a10.652 10.652 0 0 0-4.465.738 19.836 19.836 0 0 0-4.056 2.048 34.482 34.482 0 0 0-3.654 2.704l-1.704 1.491-1.64 1.639-.18.18-.212-.098a39.243 39.243 0 0 1-4.589-2.581 21.03 21.03 0 0 1-2.13-1.54 13.76 13.76 0 0 1-1.884-1.836 23.486 23.486 0 0 0 4.252 2.982c.754.435 1.524.82 2.294 1.221.77.402 1.557.77 2.343 1.106l-.401.082 1.639-1.638c.565-.525 1.147-1.041 1.729-1.557.581-.516 1.212-.967 1.835-1.426a18.183 18.183 0 0 1 1.958-1.27 18.025 18.025 0 0 1 4.269-1.884c.369-.123.754-.197 1.13-.287a7.84 7.84 0 0 1 1.156-.164 6.834 6.834 0 0 1 2.31.09Z" fill="#263238" fill-rule="evenodd" data-name="Path 232"/><path d="M354.27 165.716a24.673 24.673 0 0 1-4.72-3.933 26.218 26.218 0 0 1 4.72 3.933Z" fill="#263238" fill-rule="evenodd" data-name="Path 233"/><path d="M338.825 165.61a46.703 46.703 0 0 1 1.753 7.767c.263 1.835.36 8.521-1.712 8.53-2.073.007.737-4.655.893-8.194.156-3.54-1.082-5.99-1.458-8.063l.524-.04Z" fill="#5924ff" fill-rule="evenodd" data-name="Path 234"/><g data-name="Group 11"><path d="M338.825 165.61a46.703 46.703 0 0 1 1.753 7.767c.263 1.835.36 8.521-1.712 8.53-2.073.007.737-4.655.893-8.194.156-3.54-1.082-5.99-1.458-8.063l.524-.04Z" fill-rule="evenodd" data-name="Path 235"/></g><path d="M331.295 166.101a42.1 42.1 0 0 0-.663 7.186c0 1.638.671 7.701 2.54 7.472 1.868-.23-1.205-4.097-1.77-7.276-.566-3.179.278-5.506.377-7.374l-.484-.008Z" fill="#5924ff" fill-rule="evenodd" data-name="Path 236"/><g data-name="Group 12"><path d="M331.295 166.101a42.1 42.1 0 0 0-.663 7.186c0 1.638.671 7.701 2.54 7.472 1.868-.23-1.205-4.097-1.77-7.276-.566-3.179.278-5.506.377-7.374l-.484-.008Z" fill-rule="evenodd" data-name="Path 237"/></g><path d="M296.923 189.018c.689-6.014 2.188-14.412 4.286-16.215 2.097-1.802 10.225-8.193 12.56-9.103 2.335-.91 12.758-5.112 14.749-4.047 1.564.86-.173 4.973-5.13 7.038a73.207 73.207 0 0 0-7.824 4.04c-1.27.581-4.253 4.8-3.368 6.62.516 1.073 3.704 2.27 5.637 1.335 1.934-.934 2.335-4.818 4.523-6.702 2.188-1.885 6.153-1.754 6.407-.688.254 1.065-1.04 1.59-2.974 5.26-1.245 2.36-1.204 7.948-4.056 12.028a68.694 68.694 0 0 0-3.883 7.472l-20.927-7.038Z" fill="#ad6359" fill-rule="evenodd" data-name="Path 238"/><path d="M324.38 170.288a3.924 3.924 0 0 0 1.933-.934c.218-.227.366-.511.427-.82a1.706 1.706 0 0 0 0-.5c0-.155-.066-.384-.205-.475-.14-.09 0-.073.04 0 .059.083.122.162.19.238.048.067.087.142.114.221.065.156.099.323.098.492a1.639 1.639 0 0 1-.369 1 2.687 2.687 0 0 1-2.228.868s-.033-.082 0-.09Z" fill="#263238" fill-rule="evenodd" data-name="Path 239"/><path d="M301.209 172.803c1.835-3.04 6.555-8.546 11.364-10.512 3.228-1.336 14.593 3.867 14.314 6.022-.279 2.155-2.188 2.204-5.039 1.934-1.04-.098-6.555-1.926-7.464-.762-1.303 1.688-2.868 7.374-2.868 7.374l-10.307-4.056Z" fill="#ad6359" fill-rule="evenodd" data-name="Path 240"/><path d="M326.592 167.477c-1.442-2.26-4.523-3.416-7.579-4.31v.074c.779.23 5.777 2.385 7.57 4.277-.007.017.025-.016.01-.04Z" fill="#263238" fill-rule="evenodd" data-name="Path 241"/><path d="M301.209 172.803c1.835-3.04 6.555-8.546 11.364-10.512 3.228-1.336 12.29 5.449 12.004 7.604-.287 2.154-3.024 2.392-6.096 1.409-.992-.32-4.351-2.565-5.252-1.393-1.303 1.639-4.474 5.858-4.474 5.858l-7.546-2.966Z" fill="#ad6359" fill-rule="evenodd" data-name="Path 242"/><path d="M310.582 173.188c.295-.483.393-.647.696-1.122.304-.475.615-.942.943-1.393.265-.413.598-.778.983-1.082a2.138 2.138 0 0 1 1.344-.303 7.62 7.62 0 0 1 2.933 1.213c1.016.549 3.114 1.434 4.703 1.229.436-.036.86-.162 1.245-.369a1.99 1.99 0 0 0 .738-.623c.655-1.188-.238-2.458-1.14-3.424a20.253 20.253 0 0 0-6.087-3.941 33.885 33.885 0 0 0-1.639-.705 4.711 4.711 0 0 0-1.941-.508c-1.106 0-2.884 1.188-3.442 1.54-.04 0-.073-.049 0-.073.672-.435 2.32-1.852 4.097-1.811.653.08 1.285.278 1.868.581.623.255 1.246.525 1.86.82 1.196.554 2.346 1.2 3.441 1.934 1.097.67 2.06 1.536 2.844 2.556.664.927.768 2.144.27 3.17a2.728 2.728 0 0 1-1.983 1.115 5.342 5.342 0 0 1-1.401 0 23.287 23.287 0 0 1-3.073-.82c-.975-.36-1.868-.99-2.867-1.27-.479-.154-1-.107-1.442.132-.396.284-.75.623-1.05 1.008-.645.669-1.23 1.396-1.744 2.17-.131.238-.279.173-.156-.024Z" fill="#263238" fill-rule="evenodd" data-name="Path 243"/><path d="M299.881 175.442c.664-1.434 1.705-7.325 2.794-9.153 1.09-1.827 6.104-8.193 8.53-7.964 3.04.27 0 5.81-1.524 8.104-1.524 2.294-1.172 6.104-1.172 6.104l-8.628 2.909Z" fill="#ad6359" fill-rule="evenodd" data-name="Path 244"/><path d="M311.778 162.643a27.02 27.02 0 0 0-1.5 2.303c-.487.71-.922 1.455-1.302 2.228a8.018 8.018 0 0 0-.532 2.516v1.27c0 .45.065.926.065 1.384 0 .05.074.058.074 0 .037-.846.127-1.689.27-2.523.125-.867.359-1.715.697-2.524.671-1.638 1.638-3.048 2.36-4.645a.066.066 0 0 0-.132-.009Z" fill="#263238" fill-rule="evenodd" data-name="Path 245"/><path d="M308.534 173.172a8.685 8.685 0 0 0 .876 4.244c.293.672.635 1.321 1.025 1.942.39.616.823 1.205 1.294 1.762a16.46 16.46 0 0 1 2.294 3.49 16.984 16.984 0 0 1 1.262 4.031 11.354 11.354 0 0 0-.655-4.26 13.338 13.338 0 0 0-2.22-3.778 20.376 20.376 0 0 1-2.36-3.465 12.728 12.728 0 0 1-1.516-3.966Z" fill="#263238" fill-rule="evenodd" data-name="Path 246"/><path d="M302.905 223.316c5.883-1 9.406-11.02 15.567-28.628 1.074-3.097-15.018-21.303-17.018-18.444-2.523 3.614-8.971 23.491-9.537 28.866-1.122 10.594 4.113 19.419 10.988 18.206Z" fill="#ad6359" fill-rule="evenodd" data-name="Path 247"/><path d="m315.228 204.504-19.665-17.846s-4.858 16.117-4.096 22.77c.762 6.653 3.326 14.191 11.38 14.33 5.973.107 12.38-19.254 12.38-19.254Z" fill="#c7c7c7" fill-rule="evenodd" data-name="Path 248"/><path d="M309.509 217.531c.655-1 1.237-2.04 1.794-3.089a64.265 64.265 0 0 0 1.581-3.195c.5-1.082.95-2.18 1.352-3.277.432-1.116.764-2.267.992-3.442-.467 1.098-.967 2.172-1.467 3.278l-1.483 3.22c-.483 1.081-.975 2.163-1.434 3.277-.459 1.114-.926 2.106-1.335 3.228Z" fill="#263238" fill-rule="evenodd" data-name="Path 249"/><path d="M311.237 207.871c-.958-.975-2.007-1.884-3.023-2.81a198.318 198.318 0 0 0-3.08-2.745 578.388 578.388 0 0 0-6.26-5.358c-.582-.484-1.156-.96-1.746-1.434-.59-.475-1.31-.934-1.933-1.442-.05-.041-.107 0-.066.073.508.451.942.975 1.434 1.434.492.46 1.032.95 1.557 1.418 1.032.91 2.056 1.819 3.097 2.72 2.073 1.81 4.154 3.605 6.284 5.342 1.196.983 2.385 2.008 3.646 2.917.074.05.148-.05.09-.115Z" fill="#263238" fill-rule="evenodd" data-name="Path 250"/><path d="m331.705 166.609 5.186 25.62c.23.763-.172 1.345-.901 1.312l-13.06-.623a2.122 2.122 0 0 1-1.754-1.425l-5.178-25.63c-.238-.753.164-1.343.893-1.302l13.069.614c.81.1 1.49.658 1.745 1.434Z" fill="#37474f" fill-rule="evenodd" data-name="Path 251"/><path d="m330.197 166.519 5.187 25.629c.23.754-.172 1.344-.902 1.303l-13.068-.615a2.122 2.122 0 0 1-1.745-1.434l-5.179-25.62c-.237-.763.164-1.344.893-1.312l13.069.623a2.106 2.106 0 0 1 1.745 1.426Z" fill="#455a64" fill-rule="evenodd" data-name="Path 252"/><path d="M326.518 167.51a1.114 1.114 0 1 0 2.228.065 1.114 1.114 0 0 0-2.228-.065Z" fill="#263238" fill-rule="evenodd" data-name="Path 253"/><path d="M374.68 227.257c-5.736.14-12.29-5.063-29.104-20.484-2.327-2.13 8.333-22.589 10.939-20.434 3.277 2.712 15.387 13.929 16.165 14.88 6.596 7.857 5.9 25.948 2 26.038Z" fill="#ad6359" fill-rule="evenodd" data-name="Path 254"/><path d="M362.316 193.533s-4.384-7.907-7.972-11.348a32.07 32.07 0 0 0-13.438-7.292c-5.4-1.426-19.427-1.156-20.057 2.9-.566 3.67 13.765 2.671 13.765 2.671s-14.749-1.385-14.65 3.155c.098 4.539 16.698 2.458 16.698 2.458s-15.215-1.082-14.339 3.588c.664 3.524 15.773 2.458 15.773 2.458s-13.11-.819-12.56 2.819c.58 4.04 14.592 3.925 14.592 3.925 2.9 9.07 8.193 12.134 12.069 13.929.942.401 10.119-19.263 10.119-19.263Z" fill="#ad6359" fill-rule="evenodd" data-name="Path 255"/><path d="M339.759 180.612c-1.729-.222-3.482-.467-5.227-.533a61.98 61.98 0 0 0-5.236 0 29.497 29.497 0 0 0-6.743 1c3.982-.762 10.233-.598 11.979-.533 1.745.066 3.482.057 5.227.123.04.016.04-.05 0-.057Z" fill="#263238" fill-rule="evenodd" data-name="Path 256"/><path d="M339.612 186.912c-2.22-.188-4.417-.458-6.645-.557-2.229-.098-4.335 0-6.555.074-.172 0-.115.09.057.098 2.22 0 4.27.23 6.49.279 2.22.049 4.449 0 6.653.164.04 0 .032-.05 0-.058Z" fill="#263238" fill-rule="evenodd" data-name="Path 257"/><path d="M340.464 192.345a49.668 49.668 0 0 0-10.234-.074c-.172 0-.082.123.09.115 3.409 0 6.08-.09 10.127.082.066 0 .09-.107.017-.123Z" fill="#263238" fill-rule="evenodd" data-name="Path 258"/><path d="m362.644 190.624-10.185 25.465s18.026 13.593 22.68 11.062c4.653-2.532 3.54-18.026-.648-24.36-1.745-2.646-11.847-12.167-11.847-12.167Z" fill="#c7c7c7" fill-rule="evenodd" data-name="Path 259"/><path d="m362.307 191.468.386-.82h-.074c1.639 1.697 3.326 3.384 4.957 5.105 1.63 1.72 3.277 3.417 4.826 5.203a26.55 26.55 0 0 1 2.18 2.753c.633.984 1.18 2.02 1.638 3.097a22.552 22.552 0 0 1 1.59 6.866c.081-2.399-.3-4.791-1.123-7.046a16.668 16.668 0 0 0-1.581-3.237 26.212 26.212 0 0 0-2.188-2.867c-1.573-1.795-3.236-3.49-4.916-5.154a81.13 81.13 0 0 0-5.285-4.785l-.049-.05v.066l-.36.869Z" fill="#263238" fill-rule="evenodd" data-name="Path 260"/><path d="M366.15 197.63c-.59 1.237-1.073 2.531-1.59 3.81a168.889 168.889 0 0 0-1.499 3.834 514.918 514.918 0 0 0-2.851 7.743c-.254.704-.5 1.417-.737 2.13-.238.713-.418 1.557-.68 2.319 0 .057.065.09.09 0 .245-.631.581-1.221.819-1.844.238-.622.524-1.302.778-1.95.5-1.286.992-2.564 1.483-3.85.967-2.573 1.934-5.146 2.819-7.752.5-1.466 1.057-2.933 1.467-4.424a.074.074 0 0 0-.099-.017Z" fill="#263238" fill-rule="evenodd" data-name="Path 261"/><path d="M370.927 226.921c-1.827 0-3.523-.91-5.145-1.639a61.33 61.33 0 0 1-9.177-5.735c-1.483-1.09-2.925-2.253-4.35-3.417l.048-.106c.353-.738.688-1.475 1.057-2.204-.23.778-.5 1.548-.754 2.327l-.049-.197c2.639 1.762 6.326 4.269 8.948 5.973 3.023 1.82 5.956 4.097 9.422 4.99Z" fill="#263238" fill-rule="evenodd" data-name="Path 262"/></g><g data-name="Speech bubble"><path d="M413.836 119.449a29.152 29.152 0 0 1-48.71 18.443l-14.584 2.139 7.292-12.594a29.16 29.16 0 1 1 56.002-7.972Z" fill="#fff" fill-rule="evenodd" data-name="Path 263"/><path d="M413.836 119.449a29.341 29.341 0 0 1-5.883 14.748 31.065 31.065 0 0 1-2.638 3.04 33.21 33.21 0 0 1-3.08 2.605 28.578 28.578 0 0 1-7.03 3.917 29.432 29.432 0 0 1-7.85 1.876 30.465 30.465 0 0 1-4.097.074 25.572 25.572 0 0 1-4.031-.418 29.497 29.497 0 0 1-14.429-7.12l.344.106-14.527 2.27-1.057.155.533-.925 7.251-12.635v.492a29.447 29.447 0 1 1 56.535-8.194Zm0 0a28.85 28.85 0 0 0-33.06-31.554 28.596 28.596 0 0 0-12.07 4.76 30.004 30.004 0 0 0-8.725 9.514 28.792 28.792 0 0 0-1.64 25.039l.107.262-.139.238-7.374 12.585-.525-.77 14.601-2.049h.205l.14.131a28.767 28.767 0 0 0 13.928 7.194c1.305.263 2.628.425 3.958.484 1.328.094 2.662.094 3.99 0a28.972 28.972 0 0 0 7.792-1.713 27.145 27.145 0 0 0 7.112-3.843 32.83 32.83 0 0 0 3.08-2.572 31.743 31.743 0 0 0 2.647-3.007 29.225 29.225 0 0 0 5.973-14.7Z" fill="#263238" fill-rule="evenodd" data-name="Path 264"/></g><g data-name="Group 1221"><g data-name="Group 1218" transform="translate(363.26 109.938)" clip-path="url(&quot;#a&quot;)"><path d="M18.599 9.83c-.402.46-.864.734-1.427.837-1.522.278-2.876-.568-3.238-2.07-.292-1.212.01-2.272.969-3.1.96-.828 2.718-.816 3.618.211l.078.085v-.191c0-.832.003-1.664-.004-2.496 0-.14.04-.176.175-.17.231.012.464.009.695.001.105-.003.142.022.142.135-.003 2.457-.003 4.914 0 7.37 0 .11-.028.143-.138.14a12.285 12.285 0 0 0-.745 0c-.105.003-.131-.033-.127-.133.007-.191.002-.383.002-.62m-.005-2.004c0-.077.007-.155-.002-.231-.073-.685-.364-1.243-1.008-1.54-.656-.303-1.323-.293-1.938.116-.527.35-.742.887-.774 1.497-.078 1.482.992 2.344 2.349 2.033.851-.195 1.378-.923 1.373-1.875" fill="#040404" fill-rule="evenodd" data-name="Path 1909"/><path d="M31.971 5.778c.053-.084.035-.146.035-.203.002-.827.004-1.653-.001-2.479-.001-.127.03-.175.165-.17.231.011.463.008.695.002.108-.003.143.03.141.14-.006.37-.002.739-.002 1.108 0 2.07-.002 4.142.003 6.213 0 .155-.032.215-.197.204a6.955 6.955 0 0 0-.662-.002c-.106.003-.147-.03-.143-.14.008-.195.002-.391.002-.615-.177.15-.303.31-.47.426-.56.39-1.183.516-1.852.437-1.113-.13-1.848-.756-2.247-1.773-.514-1.312-.08-2.89 1.174-3.648.975-.59 2.454-.503 3.289.404.024.026.043.058.07.096m-1.851.086c-.902 0-1.56.487-1.774 1.336-.172.69-.101 1.347.346 1.926.298.387.708.575 1.194.62.61.058 1.156-.081 1.587-.525.447-.46.571-1.032.51-1.66-.097-1.02-.834-1.696-1.863-1.697" fill="#98d2bb" fill-rule="evenodd" data-name="Path 1910"/><path d="M37.349 8.247c-.68 0-1.359.005-2.037-.003-.14-.001-.15.04-.121.159.181.745.808 1.265 1.578 1.34.476.047.92-.019 1.337-.252.126-.071.24-.16.333-.27.058-.068.104-.07.179-.02.187.127.38.243.57.366.166.107.167.108.03.26a2.58 2.58 0 0 1-1.408.813c-.773.17-1.525.099-2.233-.266-.811-.418-1.281-1.103-1.437-1.985-.16-.909.02-1.754.618-2.482a2.655 2.655 0 0 1 1.748-.969c.723-.1 1.382.058 1.97.485.65.474.992 1.13 1.089 1.922.031.258.04.513.008.773-.013.11-.054.132-.154.131-.69-.003-1.38-.002-2.07-.002m-.492-.86h1.539c.067 0 .159.024.134-.1-.073-.367-.204-.71-.473-.98-.335-.337-.752-.453-1.22-.445a1.699 1.699 0 0 0-1.653 1.394c-.024.128.018.134.118.133.518-.003 1.037-.001 1.555-.001" fill="#98d2bb" fill-rule="evenodd" data-name="Path 1911"/><path d="M1.003 7.935c0 .857-.003 1.672.004 2.486 0 .132-.036.166-.164.16a9.625 9.625 0 0 0-.712 0c-.101.003-.13-.025-.13-.128.006-.446.003-.893.003-1.339 0-2 .002-3.999-.004-5.998 0-.148.036-.188.181-.18.22.014.442.011.662.001.128-.006.164.03.164.16-.005 1.4-.004 2.8-.004 4.198v.202l.614-.75c.439-.538.878-1.075 1.314-1.615.053-.065.105-.096.193-.094.358.005.717.002 1.084.002-.004.07-.059.104-.094.147-.644.776-1.287 1.552-1.937 2.322-.083.098-.075.152.002.243.775.91 1.546 1.823 2.318 2.735.018.02.033.042.071.092-.243 0-.46.004-.678-.001-.213-.005-.454.07-.633-.03-.172-.095-.281-.302-.417-.461L1.003 7.935" fill="#020202" fill-rule="evenodd" data-name="Path 1912"/><path d="M8.916 5.794c.468-.638 1.069-.912 1.81-.88a2.124 2.124 0 0 1 2.005 1.932c.04.49.013.98.016 1.47.004.706-.002 1.412.003 2.117.001.113-.025.154-.145.15a8.616 8.616 0 0 0-.712 0c-.125.005-.155-.033-.155-.157.006-1.014.003-2.028.004-3.042 0-.278-.041-.548-.155-.804-.272-.612-.844-.8-1.475-.696-.69.114-1.177.704-1.19 1.443-.017.953-.006 1.906-.006 2.86 0 .392 0 .392-.392.392-.166 0-.331-.005-.497.003-.097.004-.12-.033-.12-.124.005-.419.002-.838.002-1.257 0-1.333.002-2.667-.002-4 0-.126.025-.172.16-.165.237.012.475.009.712.001.105-.003.145.022.14.135-.01.191-.003.384-.003.622" fill="#050505" fill-rule="evenodd" data-name="Path 1913"/><path d="M42.405 10.725c-.585-.02-1.153-.107-1.644-.46a1.457 1.457 0 0 1-.541-.691c-.035-.096-.018-.138.079-.168.252-.08.502-.166.752-.251.065-.022.114-.026.149.05.15.324.427.476.762.54.407.08.81.091 1.194-.097.31-.153.46-.45.378-.782-.05-.205-.216-.31-.402-.384-.278-.11-.574-.147-.866-.201-.422-.08-.845-.158-1.22-.385-.421-.253-.63-.625-.66-1.113-.065-1.083.719-1.704 1.61-1.84.567-.088 1.11-.02 1.608.28.323.193.551.467.675.826.037.106.025.16-.098.186-.225.05-.448.113-.67.179-.083.024-.13.012-.169-.07-.285-.623-1.326-.641-1.708-.298-.293.264-.372.833.11 1.056.32.149.667.18 1.005.252.41.088.813.191 1.186.394.58.316.722.83.648 1.398-.128.982-.86 1.437-1.717 1.546-.152.02-.305.051-.461.033" fill="#98d3bb" fill-rule="evenodd" data-name="Path 1914"/><path d="M22.204 5.98a1.976 1.976 0 0 1 1.085-.937c.208-.077.425-.108.644-.133.092-.01.127.022.126.118-.005.292-.006.584 0 .876.002.102-.033.134-.134.13-.181-.007-.365-.024-.545.013-.62.13-.978.519-1.106 1.203-.047.249-.071.5-.07.754.002.799-.002 1.598.003 2.397 0 .125-.027.177-.164.17a7.516 7.516 0 0 0-.678 0c-.124.005-.16-.035-.16-.159.006-.716.003-1.433.003-2.149 0-1.02.002-2.039-.003-3.058 0-.127.03-.175.165-.168.231.011.464.008.695 0 .108-.002.145.03.142.14-.007.25-.003.501-.003.803" fill="#98d2bb" fill-rule="evenodd" data-name="Path 1915"/><path d="M8.857 0c-.077.963-.151 1.869-.582 2.698-.183.351-.491.555-.854.685-.119.043-.242.074-.362.113-.396.126-.815.19-1.179.422.33-.818.85-1.5 1.46-2.122-.747.488-1.288 1.17-1.783 1.95-.16-.766-.01-1.415.422-2.004.326-.444.78-.699 1.293-.868.235-.078.47-.157.7-.244.333-.126.616-.327.885-.63M7.435 1.738c.018-.007.042-.017.019-.04-.02-.02-.032.01-.047.019-.016.012-.035.027-.012.045.024.02.03-.009.04-.024" fill="#030303" fill-rule="evenodd" data-name="Path 1916"/><path d="M6.503 7.805c0 .87-.003 1.74.002 2.611 0 .122-.02.174-.158.167-.247-.013-.496-.007-.744-.002-.09.001-.125-.02-.124-.118.002-1.769.002-3.537 0-5.305 0-.093.023-.123.118-.12.249.006.497.008.745 0 .124-.005.165.021.164.156-.007.87-.003 1.74-.003 2.611" fill="#030303" fill-rule="evenodd" data-name="Path 1917"/><path d="M26.147 7.821c0 .864-.004 1.728.004 2.593.001.152-.049.186-.189.178a5.976 5.976 0 0 0-.644 0c-.156.01-.196-.045-.196-.196.005-1.668.003-3.336.003-5.003 0-.353 0-.353.355-.353.171 0 .343.008.513-.003.126-.007.157.037.157.159-.005.875-.003 1.75-.003 2.625" fill="#99d3bc" fill-rule="evenodd" data-name="Path 1918"/><path d="M25.64 2.924c.32.001.574.26.573.58a.583.583 0 0 1-.567.573.596.596 0 0 1-.586-.575.59.59 0 0 1 .58-.578" fill="#99d3bc" fill-rule="evenodd" data-name="Path 1919"/></g></g></g></g><defs><clipPath id="a"><path d="M0 0h44.6v10.73H0V0z" data-name="Rectangle 412"/></clipPath></defs></svg>