<svg xmlns="http://www.w3.org/2000/svg" width="23.754" height="23.788" viewBox="24.009 785.247 23.754 23.788"><g data-name="Group 268"><g data-name="Group 267"><g data-name="Group 266"><path d="M42.792 799.983c-.487-.507-1.074-.778-1.697-.778-.617 0-1.21.266-1.717.773l-1.586 1.581c-.13-.07-.261-.135-.387-.2a6.379 6.379 0 0 1-.497-.267c-1.486-.944-2.837-2.174-4.132-3.765-.628-.793-1.05-1.461-1.356-2.139.412-.377.794-.768 1.165-1.145.14-.14.281-.286.422-.427 1.054-1.054 1.054-2.42 0-3.474l-1.37-1.37a20.925 20.925 0 0 1-.468-.477 23.707 23.707 0 0 0-.943-.934c-.488-.482-1.07-.738-1.682-.738-.613 0-1.205.256-1.707.738l-.01.01-1.708 1.722a3.673 3.673 0 0 0-1.09 2.334c-.12 1.466.312 2.832.644 3.726.813 2.194 2.028 4.227 3.84 6.406 2.2 2.626 4.845 4.7 7.868 6.16 1.155.548 2.696 1.196 4.418 1.306.106.005.216.01.316.01 1.16 0 2.134-.417 2.897-1.245.005-.01.015-.015.02-.025.262-.316.563-.603.88-.909.215-.206.436-.422.652-.648.497-.517.758-1.12.758-1.737 0-.622-.266-1.22-.773-1.722l-2.757-2.766Zm1.798 5.287c-.005 0-.005.005 0 0-.196.21-.397.401-.613.612-.326.311-.657.638-.969 1.004-.507.542-1.104.799-1.888.799-.075 0-.155 0-.23-.005-1.492-.096-2.877-.678-3.917-1.175-2.841-1.376-5.337-3.33-7.41-5.804-1.712-2.064-2.857-3.972-3.615-6.02-.467-1.25-.638-2.224-.562-3.143.05-.588.276-1.075.692-1.491l1.712-1.712c.246-.231.508-.357.764-.357.316 0 .572.191.733.352l.015.015c.306.286.597.582.903.898.156.161.317.322.477.487l1.371 1.371c.532.532.532 1.024 0 1.557-.146.145-.286.29-.432.431-.421.432-.823.834-1.26 1.225-.01.01-.02.015-.025.025-.432.432-.351.854-.261 1.14l.015.045c.356.864.858 1.677 1.622 2.646l.005.005c1.385 1.707 2.846 3.038 4.458 4.057.206.13.417.236.618.336.18.09.351.176.497.267.02.01.04.025.06.035.17.085.331.125.497.125.417 0 .678-.26.763-.346l1.717-1.717c.17-.171.442-.377.758-.377.312 0 .568.196.723.367l.01.01 2.767 2.766c.517.512.517 1.04.005 1.572Z" fill="#247377" fill-rule="evenodd" data-name="Path 886"/><path d="M36.848 790.905c1.315.221 2.51.844 3.464 1.798a6.4 6.4 0 0 1 1.798 3.464.674.674 0 0 0 .667.562c.04 0 .076-.005.116-.01a.678.678 0 0 0 .557-.783 7.744 7.744 0 0 0-2.174-4.192 7.744 7.744 0 0 0-4.192-2.174.681.681 0 0 0-.783.552.67.67 0 0 0 .547.783Z" fill="#247377" fill-rule="evenodd" data-name="Path 887"/><path d="M47.753 795.74a12.74 12.74 0 0 0-3.58-6.903 12.74 12.74 0 0 0-6.903-3.58.675.675 0 0 0-.779.552.681.681 0 0 0 .558.783 11.408 11.408 0 0 1 6.17 3.199 11.374 11.374 0 0 1 3.198 6.17.674.674 0 0 0 .668.562c.04 0 .075-.005.116-.01a.665.665 0 0 0 .552-.773Z" fill="#247377" fill-rule="evenodd" data-name="Path 888"/></g></g></g></svg>