<svg xmlns="http://www.w3.org/2000/svg" width="22" height="22" viewBox="198 842 22 22"><g data-name="Group 626"><g data-name="Group 625"><path d="M209 842c-6.042 0-11 4.958-11 11s4.958 11 11 11 11-4.958 11-11-4.958-11-11-11Zm5.013 5.075a.645.645 0 1 1 .912.912.645.645 0 0 1-.912-.912Zm-5.658-1.81a.644.644 0 1 1 1.29 0v1.29a.644.644 0 1 1-1.29 0v-1.29Zm-7.09 8.38a.644.644 0 1 1 0-1.29h1.29a.644.644 0 1 1 0 1.29h-1.29Zm2.722 5.28a.645.645 0 1 1-.912-.912.645.645 0 0 1 .912.912Zm0-10.938a.645.645 0 1 1-.912-.912.645.645 0 0 1 .912.912Zm5.658 12.747a.644.644 0 1 1-1.29 0v-1.289a.644.644 0 1 1 1.29 0v1.29Zm3.678-3.411a.644.644 0 0 1-.912 0l-3.867-3.867a.644.644 0 0 1-.189-.456v-3.867a.644.644 0 1 1 1.29 0v3.6l3.678 3.678a.644.644 0 0 1 0 .912Zm1.602 1.602a.645.645 0 1 1-.912-.912.645.645 0 0 1 .912.912Zm2.454-5.925a.644.644 0 0 1-.645.645h-1.289a.644.644 0 1 1 0-1.29h1.29c.356 0 .644.289.644.645Z" fill-rule="evenodd" data-name="Path 1743"/></g></g></svg>