<svg xmlns="http://www.w3.org/2000/svg" width="22.98" height="23.187" viewBox="2.033 0 22.98 23.187"><g data-name="Group 702"><g data-name="Group 697"><path d="M5.555 16.665h-1.43v-3.09c0-5.182 4.216-9.398 9.398-9.398 5.182 0 9.397 4.216 9.397 9.397v.46h-1.43v-.46c0-4.393-3.574-7.967-7.967-7.967s-7.968 3.574-7.968 7.967v3.09Z" fill="#247377" fill-rule="evenodd" data-name="Path 1763"/><path d="M21.485 15.205h1.44v1.44h-1.44v-1.44Z" fill="#247377" fill-rule="evenodd" data-name="Path 1764"/><path d="M8.655 13.574h-1.43a6.306 6.306 0 0 1 6.298-6.298v1.43a4.874 4.874 0 0 0-4.868 4.868Z" fill="#247377" fill-rule="evenodd" data-name="Path 1765"/><path d="M23.276 23.187H3.77a1.738 1.738 0 0 1-1.737-1.736v-2.055c0-.957.779-1.736 1.737-1.736h19.506c.958 0 1.737.779 1.737 1.736v2.055c0 .957-.78 1.736-1.737 1.736ZM3.77 19.09a.307.307 0 0 0-.307.306v2.055c0 .169.138.306.307.306h19.506a.307.307 0 0 0 .307-.306v-2.055a.307.307 0 0 0-.307-.306H3.77Z" fill="#247377" fill-rule="evenodd" data-name="Path 1766"/></g><g data-name="Group 701"><g data-name="Group 698"><path d="M12.808 0h1.43v2.62h-1.43V0Z" fill="#247377" fill-rule="evenodd" data-name="Path 1767"/></g><g data-name="Group 699"><path d="m4.387 4.08 1.011-1.01 1.853 1.852-1.012 1.01L4.387 4.08Z" fill="#247377" fill-rule="evenodd" data-name="Path 1768"/></g><g data-name="Group 700"><path d="m19.792 4.923 1.852-1.852 1.011 1.01-1.852 1.853-1.011-1.01Z" fill="#247377" fill-rule="evenodd" data-name="Path 1769"/></g></g></g></svg>