<svg xmlns="http://www.w3.org/2000/svg" width="16.34" height="19.971" viewBox="55.531 782.515 16.34 19.971"><g data-name="Group 632"><path d="M70.51 798.854H56.892c-.752 0-1.362.61-1.362 1.362a2.27 2.27 0 0 0 2.27 2.27h11.8a2.27 2.27 0 0 0 2.27-2.27c0-.752-.61-1.362-1.362-1.362Zm0 0" fill-rule="evenodd" data-name="Path 1744"/><path d="M59.84 790.654a1.81 1.81 0 0 1 1.814-1.785h4.094a1.818 1.818 0 0 1 1.816 1.815l.473 7.263h1.995l-.43-8.17a2.726 2.726 0 0 0-2.724-2.724h-.454v-.907h.908a.909.909 0 0 0 .908-.908v-.908a1.818 1.818 0 0 0-1.816-1.815h-5.446a1.818 1.818 0 0 0-1.816 1.815v.908c0 .501.407.907.908.908h.908v.907h-.454a2.72 2.72 0 0 0-2.723 2.7l-.43 8.194h1.973l.496-7.293Zm2.046-4.508h3.63v.907h-3.63v-.907Zm0 0" fill-rule="evenodd" data-name="Path 1745"/><path d="M65.748 789.777h-4.094a.909.909 0 0 0-.908.907l-.492 7.263h6.873l-.47-7.233a.917.917 0 0 0-.909-.937Zm0 0" fill-rule="evenodd" data-name="Path 1746"/></g></svg>